<svg xmlns="http://www.w3.org/2000/svg" xmlns:xlink="http://www.w3.org/1999/xlink" width="512" zoomAndPan="magnify" viewBox="0 0 384 383.999986" height="512" preserveAspectRatio="xMidYMid meet" version="1.2"><defs><clipPath id="fa4867c041"><path d="M 0 1.199219 L 179 1.199219 L 179 181 L 0 181 Z M 0 1.199219 "/></clipPath><clipPath id="74af2217c3"><path d="M 205 1.199219 L 384 1.199219 L 384 181 L 205 181 Z M 205 1.199219 "/></clipPath><clipPath id="a23d3f87f7"><path d="M 0 204 L 179 204 L 179 382.949219 L 0 382.949219 Z M 0 204 "/></clipPath><clipPath id="5a58707ce7"><path d="M 205 204 L 384 204 L 384 382.949219 L 205 382.949219 Z M 205 204 "/></clipPath></defs><g id="10a94bd6b3"><g clip-rule="nonzero" clip-path="url(#fa4867c041)"><path style=" stroke:none;fill-rule:nonzero;fill:#000000;fill-opacity:1;" d="M 146.3125 180.125 L 32.402344 180.125 C 14.546875 180.125 0.0195312 165.59375 0.0195312 147.730469 L 0.0195312 33.777344 C 0.0195312 15.914062 14.546875 1.382812 32.402344 1.382812 L 146.3125 1.382812 C 164.167969 1.382812 178.695312 15.914062 178.695312 33.777344 L 178.695312 147.730469 C 178.695312 165.59375 164.167969 180.125 146.3125 180.125 Z M 32.402344 17.9375 C 23.671875 17.9375 16.570312 25.042969 16.570312 33.777344 L 16.570312 147.730469 C 16.570312 156.464844 23.671875 163.570312 32.402344 163.570312 L 146.3125 163.570312 C 155.042969 163.570312 162.144531 156.464844 162.144531 147.730469 L 162.144531 33.777344 C 162.144531 25.042969 155.042969 17.9375 146.3125 17.9375 Z M 32.402344 17.9375 "/></g><g clip-rule="nonzero" clip-path="url(#74af2217c3)"><path style=" stroke:none;fill-rule:nonzero;fill:#000000;fill-opacity:1;" d="M 351.679688 180.125 L 237.773438 180.125 C 219.914062 180.125 205.390625 165.59375 205.390625 147.730469 L 205.390625 33.777344 C 205.390625 15.914062 219.914062 1.382812 237.773438 1.382812 L 351.679688 1.382812 C 369.535156 1.382812 384.0625 15.914062 384.0625 33.777344 L 384.0625 147.730469 C 384.0625 165.59375 369.535156 180.125 351.679688 180.125 Z M 237.773438 17.9375 C 229.039062 17.9375 221.9375 25.042969 221.9375 33.777344 L 221.9375 147.730469 C 221.9375 156.464844 229.039062 163.570312 237.773438 163.570312 L 351.679688 163.570312 C 360.410156 163.570312 367.511719 156.464844 367.511719 147.730469 L 367.511719 33.777344 C 367.511719 25.042969 360.410156 17.9375 351.679688 17.9375 Z M 237.773438 17.9375 "/></g><g clip-rule="nonzero" clip-path="url(#a23d3f87f7)"><path style=" stroke:none;fill-rule:nonzero;fill:#000000;fill-opacity:1;" d="M 146.3125 382.769531 L 32.402344 382.769531 C 14.546875 382.769531 0.0195312 368.234375 0.0195312 350.375 L 0.0195312 236.421875 C 0.0195312 218.558594 14.546875 204.023438 32.402344 204.023438 L 146.3125 204.023438 C 164.167969 204.023438 178.695312 218.558594 178.695312 236.421875 L 178.695312 350.375 C 178.695312 368.234375 164.167969 382.769531 146.3125 382.769531 Z M 32.402344 220.578125 C 23.671875 220.578125 16.570312 227.683594 16.570312 236.421875 L 16.570312 350.375 C 16.570312 359.109375 23.671875 366.214844 32.402344 366.214844 L 146.3125 366.214844 C 155.042969 366.214844 162.144531 359.109375 162.144531 350.375 L 162.144531 236.421875 C 162.144531 227.683594 155.042969 220.578125 146.3125 220.578125 Z M 32.402344 220.578125 "/></g><g clip-rule="nonzero" clip-path="url(#5a58707ce7)"><path style=" stroke:none;fill-rule:nonzero;fill:#000000;fill-opacity:1;" d="M 351.679688 382.769531 L 237.773438 382.769531 C 219.914062 382.769531 205.390625 368.234375 205.390625 350.375 L 205.390625 236.421875 C 205.390625 218.558594 219.914062 204.023438 237.773438 204.023438 L 351.679688 204.023438 C 369.535156 204.023438 384.0625 218.558594 384.0625 236.421875 L 384.0625 350.375 C 384.0625 368.234375 369.535156 382.769531 351.679688 382.769531 Z M 237.773438 220.578125 C 229.039062 220.578125 221.9375 227.683594 221.9375 236.421875 L 221.9375 350.375 C 221.9375 359.109375 229.039062 366.214844 237.773438 366.214844 L 351.679688 366.214844 C 360.410156 366.214844 367.511719 359.109375 367.511719 350.375 L 367.511719 236.421875 C 367.511719 227.683594 360.410156 220.578125 351.679688 220.578125 Z M 237.773438 220.578125 "/></g></g></svg>