<svg xmlns="http://www.w3.org/2000/svg" xmlns:xlink="http://www.w3.org/1999/xlink" width="512" zoomAndPan="magnify" viewBox="0 0 384 383.999986" height="512" preserveAspectRatio="xMidYMid meet" version="1.2"><g id="d8ac4416ca"><path style=" stroke:none;fill-rule:nonzero;fill:#000000;fill-opacity:1;" d="M 203.945312 168.105469 C 203.945312 168.105469 203.945312 168.535156 203.945312 168.535156 C 203.945312 168.105469 203.945312 168.105469 203.945312 168.105469 Z M 384 192 C 384 298.238281 298.238281 384 192 384 C 85.761719 384 0 298.238281 0 192 C 0 85.761719 85.761719 0 192 0 C 298.238281 0 384 85.761719 384 192 Z M 360.535156 192 C 360.535156 98.988281 285.011719 23.894531 192 23.894531 C 99.414062 23.894531 23.894531 98.988281 23.894531 192 C 23.894531 192 23.894531 192.425781 23.894531 192.425781 C 23.894531 285.441406 99.414062 360.535156 192.425781 360.535156 C 285.441406 360.105469 360.535156 285.011719 360.535156 192 Z M 192 131.839844 C 205.226562 131.839844 215.894531 121.171875 215.894531 107.945312 C 215.894531 94.71875 205.226562 84.054688 192 84.054688 C 178.773438 84.054688 168.105469 94.71875 168.105469 107.945312 C 168.105469 121.171875 178.773438 131.839844 192 131.839844 Z M 215.894531 276.054688 L 203.945312 276.054688 L 203.945312 168.960938 C 203.945312 168.960938 203.945312 168.535156 203.945312 168.535156 C 203.945312 168.535156 203.945312 168.105469 203.945312 168.105469 C 203.945312 168.105469 203.945312 168.535156 203.945312 168.535156 C 203.945312 168.535156 203.945312 168.105469 203.945312 168.105469 C 203.945312 161.28125 198.398438 156.160156 192 156.160156 L 168.105469 156.160156 C 161.28125 156.160156 156.160156 161.707031 156.160156 168.105469 C 156.160156 174.933594 161.707031 180.054688 168.105469 180.054688 L 180.054688 180.054688 L 180.054688 276.054688 L 168.105469 276.054688 C 161.28125 276.054688 156.160156 281.601562 156.160156 288 C 156.160156 294.828125 161.707031 299.945312 168.105469 299.945312 L 215.894531 299.945312 C 222.71875 299.945312 227.839844 294.398438 227.839844 288 C 227.839844 281.171875 222.71875 276.054688 215.894531 276.054688 Z M 215.894531 276.054688 "/></g></svg>