<svg xmlns="http://www.w3.org/2000/svg" xmlns:xlink="http://www.w3.org/1999/xlink" width="512" zoomAndPan="magnify" viewBox="0 0 384 383.999986" height="512" preserveAspectRatio="xMidYMid meet" version="1.0"><defs><clipPath id="37291f6b6c"><path d="M 15.359375 1 L 368 1 L 368 384 L 15.359375 384 Z M 15.359375 1 " clip-rule="nonzero"/></clipPath></defs><g clip-path="url(#37291f6b6c)"><path fill="#000000" d="M 191.929688 101.835938 C 250.527344 101.835938 298.015625 149.34375 298.015625 207.925781 C 298.015625 266.507812 250.527344 314.019531 191.929688 314.019531 C 133.335938 314.019531 85.847656 266.507812 85.847656 207.925781 C 85.847656 149.328125 133.335938 101.835938 191.929688 101.835938 Z M 257.015625 63.816406 C 252.507812 61.78125 250.488281 56.472656 252.527344 51.964844 C 254.5625 47.453125 259.871094 45.4375 264.378906 47.472656 C 295.394531 61.507812 321.613281 84.273438 339.921875 112.617188 C 357.648438 140.089844 367.9375 172.816406 367.9375 207.925781 C 367.9375 256.527344 348.246094 300.546875 316.394531 332.398438 C 284.542969 364.253906 240.527344 383.964844 191.929688 383.964844 C 143.332031 383.964844 99.320312 364.253906 67.464844 332.398438 C 35.613281 300.546875 15.925781 256.546875 15.925781 207.925781 C 15.925781 159.308594 35.613281 115.308594 67.464844 83.453125 C 95.007812 55.910156 131.625 37.453125 172.460938 32.964844 L 156.769531 16 C 153.425781 12.382812 153.640625 6.726562 157.261719 3.382812 C 160.878906 0.0351562 166.53125 0.253906 169.878906 3.871094 L 197.894531 34.164062 C 199.75 35.816406 200.910156 38.199219 200.910156 40.871094 C 200.910156 43.289062 199.964844 45.472656 198.421875 47.089844 L 173.058594 78.164062 C 169.933594 82 164.3125 82.582031 160.460938 79.453125 C 156.625 76.34375 156.042969 70.710938 159.167969 66.871094 L 172.039062 51.089844 C 136.351562 55.5625 104.355469 71.964844 80.15625 96.144531 C 51.558594 124.746094 33.867188 164.273438 33.867188 207.925781 C 33.867188 251.582031 51.558594 291.089844 80.15625 319.710938 C 108.753906 348.308594 148.277344 366 191.929688 366 C 235.582031 366 275.089844 348.308594 303.703125 319.710938 C 332.304688 291.109375 349.992188 251.582031 349.992188 207.925781 C 349.992188 176.363281 340.757812 146.964844 324.847656 122.308594 C 308.414062 96.855469 284.871094 76.417969 257.015625 63.816406 Z M 182.949219 140.289062 C 182.949219 135.34375 186.96875 131.308594 191.929688 131.308594 C 196.894531 131.308594 200.910156 135.328125 200.910156 140.289062 L 200.910156 198.945312 L 244.507812 198.945312 C 249.472656 198.945312 253.488281 202.964844 253.488281 207.925781 C 253.488281 212.871094 249.472656 216.910156 244.507812 216.910156 L 191.929688 216.910156 C 186.96875 216.910156 182.949219 212.890625 182.949219 207.925781 Z M 182.949219 140.289062 " fill-opacity="1" fill-rule="evenodd"/></g></svg>