<svg xmlns="http://www.w3.org/2000/svg" xmlns:xlink="http://www.w3.org/1999/xlink" width="512" zoomAndPan="magnify" viewBox="0 0 384 383.999986" height="512" preserveAspectRatio="xMidYMid meet" version="1.0"><defs><clipPath id="030f45fa14"><path d="M 79.199219 6 L 186 6 L 186 384 L 79.199219 384 Z M 79.199219 6 " clip-rule="nonzero"/></clipPath><clipPath id="9f0482c0fd"><path d="M 227 2 L 304.949219 2 L 304.949219 380 L 227 380 Z M 227 2 " clip-rule="nonzero"/></clipPath></defs><g clip-path="url(#030f45fa14)"><path fill="#ffffff" d="M 91.507812 6.230469 C 88.722656 6.402344 86.527344 8.648438 86.394531 11.441406 L 79.835938 131.066406 C 79.152344 143.363281 83.789062 152.539062 90.128906 158.675781 C 95.539062 163.890625 101.730469 166.8125 107.242188 169.75 L 99.644531 351.683594 C 98.898438 369.644531 114.476562 383.847656 132.445312 383.847656 C 150.425781 383.847656 165.984375 369.644531 165.234375 351.683594 L 157.617188 169.75 C 163.15625 166.820312 169.371094 163.890625 174.777344 158.675781 C 181.117188 152.539062 185.699219 143.363281 185.046875 131.066406 L 178.507812 11.441406 C 178.332031 8.429688 175.753906 6.128906 172.75 6.304688 C 169.742188 6.457031 167.4375 9.035156 167.609375 12.042969 L 174.175781 131.671875 C 174.703125 141.214844 171.773438 146.375 167.1875 150.816406 C 162.574219 155.269531 155.914062 158.53125 149.425781 162.082031 C 147.597656 163.0625 146.496094 165.011719 146.59375 167.070312 L 154.335938 352.105469 C 154.8125 363.484375 144.769531 372.949219 132.445312 372.949219 C 120.140625 372.949219 110.066406 363.484375 110.546875 352.105469 L 118.289062 167.070312 C 118.382812 165.011719 117.28125 163.085938 115.476562 162.082031 C 108.984375 158.527344 102.296875 155.269531 97.695312 150.816406 C 93.082031 146.375 90.199219 141.214844 90.726562 131.671875 L 97.261719 12.042969 C 97.492188 8.78125 94.792969 6.046875 91.507812 6.230469 Z M 91.507812 6.230469 " fill-opacity="1" fill-rule="evenodd"/></g><path fill="#ffffff" d="M 118.816406 6.230469 C 115.808594 6.273438 113.40625 8.757812 113.453125 11.761719 L 113.453125 105.613281 C 113.328125 108.722656 115.808594 111.269531 118.914062 111.269531 C 121.996094 111.269531 124.484375 108.714844 124.351562 105.613281 L 124.351562 11.761719 C 124.402344 8.679688 121.894531 6.179688 118.816406 6.230469 Z M 118.816406 6.230469 " fill-opacity="1" fill-rule="evenodd"/><path fill="#ffffff" d="M 145.921875 6.230469 C 142.894531 6.25 140.460938 8.726562 140.511719 11.761719 L 140.511719 105.613281 C 140.511719 108.640625 142.957031 111.101562 145.96875 111.101562 C 149.003906 111.101562 151.464844 108.644531 151.464844 105.613281 L 151.464844 11.761719 C 151.507812 8.679688 149.003906 6.179688 145.921875 6.230469 Z M 145.921875 6.230469 " fill-opacity="1" fill-rule="evenodd"/><g clip-path="url(#9f0482c0fd)"><path fill="#ffffff" d="M 243.402344 13.261719 C 246.035156 12.4375 251.597656 13.789062 257.933594 20.078125 C 273.113281 35.160156 294.007812 64.324219 294.007812 114.878906 C 294.007812 161.480469 283.585938 188.738281 269.128906 203.09375 C 268 204.21875 267.425781 205.773438 267.550781 207.378906 L 278.296875 352.082031 C 278.75 358.046875 276.71875 361.703125 273.214844 364.535156 C 269.730469 367.363281 264.398438 369.046875 258.902344 369.046875 C 253.421875 369.074219 247.9375 367.421875 244.097656 364.515625 C 240.289062 361.585938 237.9375 357.75 237.9375 351.6875 L 237.9375 27.269531 C 237.9375 22.304688 238.792969 18.78125 239.894531 16.625 C 240.976562 14.496094 242.074219 13.667969 243.402344 13.261719 Z M 240.121094 2.84375 C 235.914062 4.199219 232.355469 7.433594 230.195312 11.660156 C 228.015625 15.894531 227.015625 21.085938 227.015625 27.273438 L 227.015625 351.683594 C 227.015625 360.925781 231.351562 368.519531 237.515625 373.203125 C 243.65625 377.894531 251.347656 379.972656 258.960938 379.945312 C 266.550781 379.914062 274.21875 377.789062 280.105469 373.007812 C 286.019531 368.195312 289.855469 360.457031 289.179688 351.308594 L 278.527344 207.859375 C 294.691406 190.195312 304.910156 161.109375 304.910156 114.886719 C 304.910156 61.300781 282.316406 28.957031 265.625 12.375 C 257.683594 4.476562 248.589844 0.1875 240.121094 2.84375 Z M 240.121094 2.84375 " fill-opacity="1" fill-rule="evenodd"/></g></svg>