<svg xmlns="http://www.w3.org/2000/svg" xmlns:xlink="http://www.w3.org/1999/xlink" width="512" zoomAndPan="magnify" viewBox="0 0 384 383.999986" height="512" preserveAspectRatio="xMidYMid meet" version="1.2"><defs><clipPath id="a49065e2db"><path d="M 1.199219 2 L 382.949219 2 L 382.949219 383 L 1.199219 383 Z M 1.199219 2 "/></clipPath></defs><g id="843daf86f4"><g clip-rule="nonzero" clip-path="url(#a49065e2db)"><path style=" stroke:none;fill-rule:nonzero;fill:#000000;fill-opacity:1;" d="M 367.308594 86.585938 L 334.097656 119.78125 L 265.257812 50.96875 L 298.464844 17.773438 C 300.617188 15.628906 303.496094 14.441406 306.566406 14.441406 C 309.652344 14.441406 312.546875 15.632812 314.703125 17.785156 L 367.308594 70.367188 C 369.457031 72.523438 370.644531 75.402344 370.644531 78.484375 C 370.644531 81.558594 369.457031 84.433594 367.308594 86.585938 Z M 127.246094 326.539062 L 119.28125 307.050781 L 311.679688 114.742188 L 325.40625 128.464844 Z M 52.945312 355.242188 L 29.707031 332.015625 L 51.289062 268.085938 L 74.214844 277.460938 L 80.359375 300.269531 C 80.929688 302.386719 82.589844 304.035156 84.699219 304.605469 L 107.515625 310.734375 L 116.898438 333.679688 Z M 17.886719 367.058594 L 25.324219 345 L 39.953125 359.625 Z M 278.988281 82.066406 L 302.988281 106.054688 L 110.214844 298.738281 L 91.304688 293.664062 L 86.21875 274.757812 Z M 256.570312 59.65625 L 270.300781 73.378906 L 77.902344 265.695312 L 58.433594 257.738281 Z M 375.996094 61.683594 L 323.386719 9.09375 C 314.421875 0.148438 298.71875 0.140625 289.777344 9.089844 L 43.210938 255.582031 C 42.554688 256.234375 42.007812 257.078125 41.675781 258.140625 C 41.34375 259.207031 2.273438 374.878906 2.273438 374.878906 C 1.898438 375.988281 1.167969 378.308594 3.75 381.1875 C 6.078125 383.78125 9.417969 382.875 10.058594 382.660156 C 10.058594 382.660156 126.128906 343.617188 127.023438 343.226562 C 127.914062 342.839844 128.816406 342.339844 129.402344 341.753906 L 375.988281 95.277344 C 380.46875 90.808594 382.941406 84.84375 382.941406 78.484375 C 382.9375 72.117188 380.46875 66.15625 375.996094 61.683594 "/></g></g></svg>