<svg xmlns="http://www.w3.org/2000/svg" xmlns:xlink="http://www.w3.org/1999/xlink" width="512" zoomAndPan="magnify" viewBox="0 0 384 383.999986" height="512" preserveAspectRatio="xMidYMid meet" version="1.0"><defs><clipPath id="3231937865"><path d="M 15.476562 0 L 368.726562 0 L 368.726562 384 L 15.476562 384 Z M 15.476562 0 " clip-rule="nonzero"/></clipPath></defs><g clip-path="url(#3231937865)"><path fill="#ffffff" d="M 368.5 349.324219 L 368.5 345.445312 C 368.5 321.628906 363.828125 298.511719 354.621094 276.738281 C 345.730469 255.71875 333.007812 236.84375 316.804688 220.644531 C 300.601562 204.441406 281.730469 191.71875 260.710938 182.828125 C 259.328125 182.242188 257.9375 181.679688 256.539062 181.128906 C 259.179688 178.964844 261.730469 176.664062 264.167969 174.226562 C 273.535156 164.859375 280.890625 153.945312 286.03125 141.789062 C 291.359375 129.195312 294.0625 115.828125 294.0625 102.058594 C 294.0625 88.289062 291.359375 74.921875 286.03125 62.324219 C 280.890625 50.171875 273.535156 39.257812 264.167969 29.890625 C 254.800781 20.523438 243.890625 13.167969 231.734375 8.027344 C 219.136719 2.699219 205.769531 0 192 0 C 178.234375 0 164.863281 2.699219 152.269531 8.027344 C 140.113281 13.167969 129.203125 20.523438 119.835938 29.890625 C 110.46875 39.257812 103.113281 50.171875 97.972656 62.324219 C 92.644531 74.921875 89.941406 88.289062 89.941406 102.058594 C 89.941406 115.828125 92.644531 129.195312 97.972656 141.789062 C 103.113281 153.945312 110.46875 164.859375 119.835938 174.226562 C 122.273438 176.664062 124.820312 178.964844 127.464844 181.128906 C 126.066406 181.679688 124.675781 182.242188 123.292969 182.828125 C 102.273438 191.71875 83.402344 204.441406 67.199219 220.644531 C 50.996094 236.84375 38.273438 255.71875 29.382812 276.738281 C 20.175781 298.511719 15.503906 321.628906 15.503906 345.445312 L 15.503906 349.324219 C 15.503906 367.4375 29.410156 382.367188 47.105469 384.003906 L 339.296875 383.695312 L 339.40625 383.683594 C 342.445312 383.371094 345.390625 382.46875 348.085938 381.027344 C 360.117188 375.535156 368.5 363.390625 368.5 349.324219 Z M 116.78125 133.835938 C 112.523438 123.769531 110.363281 113.078125 110.363281 102.058594 C 110.363281 91.039062 112.523438 80.347656 116.78125 70.28125 C 120.890625 60.558594 126.777344 51.828125 134.273438 44.332031 C 141.773438 36.835938 150.503906 30.949219 160.222656 26.835938 C 170.289062 22.578125 180.980469 20.421875 192 20.421875 C 203.023438 20.421875 213.714844 22.578125 223.78125 26.835938 C 233.5 30.949219 242.230469 36.835938 249.726562 44.332031 C 257.226562 51.828125 263.113281 60.558594 267.222656 70.28125 C 271.480469 80.347656 273.640625 91.039062 273.640625 102.058594 C 273.640625 113.078125 271.480469 123.769531 267.222656 133.835938 C 263.109375 143.554688 257.226562 152.285156 249.726562 159.785156 C 242.230469 167.28125 233.5 173.167969 223.78125 177.277344 C 213.714844 181.535156 203.023438 183.695312 192 183.695312 C 180.980469 183.695312 170.289062 181.535156 160.222656 177.277344 C 150.503906 173.167969 141.773438 167.28125 134.273438 159.785156 C 126.777344 152.285156 120.890625 143.554688 116.78125 133.835938 Z M 348.078125 349.324219 C 348.078125 357.269531 341.613281 363.730469 333.667969 363.730469 L 50.332031 363.730469 C 42.390625 363.730469 35.925781 357.269531 35.925781 349.324219 L 35.925781 345.445312 C 35.925781 324.375 40.050781 303.9375 48.191406 284.691406 C 56.050781 266.105469 67.304688 249.417969 81.640625 235.082031 C 95.972656 220.75 112.664062 209.496094 131.25 201.632812 C 135.34375 199.902344 139.554688 198.332031 143.757812 196.960938 C 145.226562 196.484375 146.71875 196.023438 148.195312 195.59375 C 148.746094 195.433594 149.269531 195.226562 149.765625 194.988281 C 150.597656 195.363281 151.429688 195.730469 152.269531 196.085938 C 164.863281 201.417969 178.230469 204.117188 192 204.117188 C 205.769531 204.117188 219.136719 201.414062 231.734375 196.085938 C 232.574219 195.730469 233.40625 195.363281 234.234375 194.988281 C 234.734375 195.226562 235.257812 195.433594 235.808594 195.59375 C 241.527344 197.265625 247.226562 199.296875 252.753906 201.636719 C 271.339844 209.496094 288.03125 220.75 302.363281 235.082031 C 316.695312 249.417969 327.949219 266.105469 335.8125 284.691406 C 343.949219 303.933594 348.078125 324.375 348.078125 345.445312 Z M 348.078125 349.324219 " fill-opacity="1" fill-rule="nonzero"/></g></svg>