<svg xmlns="http://www.w3.org/2000/svg" xmlns:xlink="http://www.w3.org/1999/xlink" width="512" zoomAndPan="magnify" viewBox="0 0 384 383.999986" height="512" preserveAspectRatio="xMidYMid meet" version="1.0"><path fill="#c47257" d="M 186.316406 370.984375 C 182.675781 370.980469 179.039062 370.863281 175.40625 370.636719 C 171.769531 370.410156 168.148438 370.070312 164.535156 369.621094 C 160.921875 369.171875 157.328125 368.613281 153.746094 367.941406 C 150.167969 367.273438 146.613281 366.492188 143.082031 365.605469 C 139.550781 364.71875 136.050781 363.722656 132.582031 362.621094 C 129.113281 361.519531 125.679688 360.308594 122.28125 358.996094 C 118.886719 357.683594 115.535156 356.269531 112.226562 354.75 C 108.917969 353.234375 105.65625 351.613281 102.445312 349.898438 C 99.238281 348.179688 96.082031 346.363281 92.984375 344.453125 C 89.886719 342.539062 86.847656 340.535156 83.871094 338.4375 C 80.894531 336.339844 77.988281 334.15625 75.144531 331.878906 C 72.304688 329.601562 69.535156 327.242188 66.835938 324.796875 C 64.140625 322.351562 61.519531 319.824219 58.976562 317.21875 C 56.433594 314.613281 53.972656 311.929688 51.597656 309.175781 C 49.21875 306.417969 46.925781 303.589844 44.722656 300.691406 C 42.519531 297.796875 40.402344 294.832031 38.378906 291.804688 C 36.355469 288.78125 34.429688 285.691406 32.59375 282.546875 C 30.761719 279.402344 29.023438 276.203125 27.386719 272.953125 C 25.75 269.703125 24.210938 266.402344 22.777344 263.058594 C 21.339844 259.710938 20.007812 256.324219 18.78125 252.898438 C 17.550781 249.46875 16.429688 246.007812 15.414062 242.511719 C 14.398438 239.015625 13.488281 235.492188 12.6875 231.941406 C 11.890625 228.386719 11.199219 224.816406 10.617188 221.222656 C 10.035156 217.625 9.566406 214.019531 9.207031 210.394531 C 8.847656 206.773438 8.597656 203.140625 8.460938 199.503906 C 8.324219 195.863281 8.296875 192.226562 8.382812 188.585938 C 8.46875 184.945312 8.664062 181.3125 8.972656 177.683594 C 9.28125 174.058594 9.703125 170.441406 10.230469 166.839844 C 10.761719 163.238281 11.402344 159.65625 12.152344 156.09375 C 12.902344 152.53125 13.757812 148.992188 14.726562 145.484375 C 15.691406 141.972656 16.765625 138.496094 17.945312 135.050781 C 19.125 131.605469 20.40625 128.199219 21.796875 124.835938 C 23.183594 121.46875 24.671875 118.148438 26.265625 114.875 C 27.855469 111.601562 29.546875 108.378906 31.335938 105.207031 C 33.125 102.035156 35.011719 98.921875 36.988281 95.867188 C 38.96875 92.8125 41.042969 89.820312 43.203125 86.890625 C 45.367188 83.964844 47.621094 81.105469 49.957031 78.3125 C 52.296875 75.523438 54.71875 72.808594 57.222656 70.164062 C 59.730469 67.523438 62.3125 64.960938 64.972656 62.476562 C 67.636719 59.992188 70.371094 57.59375 73.183594 55.277344 C 75.992188 52.960938 78.867188 50.734375 81.816406 48.59375 C 84.761719 46.453125 87.769531 44.40625 90.839844 42.453125 C 93.910156 40.496094 97.039062 38.636719 100.226562 36.875 C 103.410156 35.109375 106.648438 33.445312 109.933594 31.882812 C 113.222656 30.316406 116.554688 28.851562 119.929688 27.492188 C 123.308594 26.132812 126.722656 24.875 130.175781 23.722656 C 133.628906 22.570312 137.117188 21.527344 140.632812 20.589844 C 144.152344 19.652344 147.695312 18.824219 151.265625 18.101562 C 154.832031 17.382812 158.421875 16.769531 162.027344 16.269531 C 165.632812 15.769531 169.25 15.378906 172.882812 15.101562 C 176.511719 14.820312 180.148438 14.652344 183.789062 14.597656 C 187.429688 14.542969 191.066406 14.597656 194.703125 14.761719 C 198.339844 14.929688 201.96875 15.207031 205.589844 15.597656 C 209.210938 15.988281 212.8125 16.484375 216.402344 17.097656 C 219.992188 17.707031 223.558594 18.425781 227.105469 19.253906 C 230.648438 20.082031 234.167969 21.019531 237.65625 22.066406 C 241.144531 23.109375 244.59375 24.257812 248.011719 25.515625 C 251.429688 26.769531 254.804688 28.128906 258.140625 29.59375 C 261.472656 31.054688 264.757812 32.621094 267.996094 34.285156 C 271.234375 35.949219 274.421875 37.710938 277.550781 39.570312 C 280.679688 41.429688 283.75 43.382812 286.761719 45.429688 C 289.773438 47.476562 292.71875 49.617188 295.597656 51.84375 C 298.476562 54.070312 301.285156 56.386719 304.023438 58.785156 C 306.757812 61.1875 309.421875 63.667969 312.007812 66.230469 C 314.59375 68.796875 317.097656 71.4375 319.519531 74.152344 C 321.945312 76.871094 324.28125 79.65625 326.535156 82.519531 C 328.789062 85.378906 330.949219 88.304688 333.023438 91.296875 C 335.097656 94.289062 337.078125 97.34375 338.964844 100.457031 C 340.847656 103.574219 342.636719 106.742188 344.332031 109.964844 C 346.023438 113.1875 347.613281 116.460938 349.105469 119.78125 C 350.597656 123.105469 351.984375 126.46875 353.269531 129.875 C 354.554688 133.28125 355.734375 136.722656 356.808594 140.203125 C 357.882812 143.679688 358.851562 147.191406 359.710938 150.726562 C 360.570312 154.265625 361.320312 157.828125 361.960938 161.410156 C 362.601562 164.996094 363.132812 168.59375 363.550781 172.210938 C 363.972656 175.828125 364.28125 179.453125 364.480469 183.089844 C 364.675781 186.726562 364.761719 190.363281 364.738281 194.003906 C 364.714844 197.644531 364.578125 201.28125 364.328125 204.914062 C 364.082031 208.546875 363.722656 212.167969 363.253906 215.777344 C 362.78125 219.386719 362.203125 222.980469 361.511719 226.554688 C 360.824219 230.128906 360.023438 233.679688 359.117188 237.207031 C 358.207031 240.730469 357.195312 244.226562 356.070312 247.691406 C 354.949219 251.15625 353.722656 254.582031 352.390625 257.96875 C 351.058594 261.359375 349.625 264.703125 348.089844 268.003906 C 346.550781 271.304688 344.914062 274.554688 343.179688 277.753906 C 341.441406 280.953125 339.609375 284.097656 337.683594 287.1875 C 335.753906 290.273438 333.730469 293.300781 331.617188 296.265625 C 329.503906 299.226562 327.300781 302.125 325.007812 304.953125 C 322.714844 307.78125 320.339844 310.539062 317.878906 313.222656 C 315.417969 315.90625 312.878906 318.511719 310.257812 321.039062 C 307.636719 323.566406 304.941406 326.011719 302.171875 328.375 C 299.402344 330.738281 296.5625 333.011719 293.652344 335.199219 C 290.742188 337.390625 287.769531 339.488281 284.730469 341.492188 C 281.691406 343.5 278.59375 345.410156 275.4375 347.226562 C 272.285156 349.042969 269.074219 350.761719 265.816406 352.378906 C 262.554688 354 259.246094 355.519531 255.894531 356.933594 C 244.886719 361.59375 233.527344 365.105469 221.8125 367.46875 C 210.101562 369.835938 198.265625 371.007812 186.316406 370.984375 Z M 186.316406 30.78125 C 183.027344 30.785156 179.746094 30.890625 176.464844 31.097656 C 173.179688 31.300781 169.910156 31.609375 166.648438 32.015625 C 163.382812 32.421875 160.136719 32.925781 156.90625 33.53125 C 153.671875 34.136719 150.464844 34.84375 147.273438 35.644531 C 144.085938 36.445312 140.925781 37.34375 137.792969 38.339844 C 134.660156 39.335938 131.558594 40.429688 128.492188 41.613281 C 125.425781 42.800781 122.398438 44.078125 119.410156 45.449219 C 116.421875 46.820312 113.476562 48.285156 110.578125 49.835938 C 107.679688 51.386719 104.832031 53.027344 102.035156 54.753906 C 99.234375 56.480469 96.492188 58.289062 93.804688 60.183594 C 91.117188 62.078125 88.492188 64.054688 85.925781 66.109375 C 83.359375 68.164062 80.859375 70.296875 78.421875 72.503906 C 75.988281 74.714844 73.621094 76.996094 71.328125 79.351562 C 69.03125 81.703125 66.808594 84.125 64.664062 86.617188 C 62.515625 89.105469 60.445312 91.660156 58.457031 94.273438 C 56.464844 96.890625 54.554688 99.566406 52.730469 102.300781 C 50.902344 105.035156 49.160156 107.820312 47.503906 110.664062 C 45.851562 113.503906 44.28125 116.390625 42.804688 119.328125 C 41.324219 122.265625 39.9375 125.242188 38.640625 128.265625 C 37.34375 131.285156 36.140625 134.34375 35.035156 137.441406 C 33.925781 140.535156 32.910156 143.664062 31.996094 146.820312 C 31.078125 149.976562 30.257812 153.160156 29.535156 156.367188 C 28.8125 159.574219 28.191406 162.800781 27.664062 166.046875 C 27.140625 169.292969 26.714844 172.550781 26.390625 175.824219 C 26.066406 179.09375 25.84375 182.375 25.71875 185.660156 C 25.597656 188.945312 25.574219 192.230469 25.652344 195.519531 C 25.726562 198.804688 25.90625 202.085938 26.1875 205.363281 C 26.464844 208.640625 26.84375 211.902344 27.324219 215.15625 C 27.800781 218.410156 28.378906 221.644531 29.058594 224.863281 C 29.734375 228.078125 30.507812 231.273438 31.382812 234.441406 C 32.253906 237.613281 33.222656 240.753906 34.289062 243.863281 C 35.355469 246.972656 36.515625 250.050781 37.769531 253.089844 C 39.023438 256.128906 40.367188 259.125 41.804688 262.082031 C 43.242188 265.039062 44.769531 267.949219 46.386719 270.8125 C 48.003906 273.675781 49.703125 276.488281 51.492188 279.246094 C 53.28125 282.003906 55.152344 284.707031 57.105469 287.351562 C 59.058594 289.996094 61.09375 292.578125 63.207031 295.097656 C 65.316406 297.617188 67.503906 300.070312 69.769531 302.457031 C 72.03125 304.839844 74.363281 307.15625 76.769531 309.398438 C 79.171875 311.640625 81.644531 313.808594 84.179688 315.898438 C 86.71875 317.992188 89.316406 320 91.976562 321.933594 C 94.636719 323.867188 97.355469 325.714844 100.128906 327.480469 C 102.902344 329.246094 105.726562 330.925781 108.605469 332.515625 C 111.480469 334.109375 114.402344 335.609375 117.371094 337.023438 C 120.339844 338.4375 123.351562 339.757812 126.398438 340.988281 C 129.449219 342.214844 132.535156 343.347656 135.652344 344.390625 C 138.773438 345.429688 141.921875 346.371094 145.097656 347.21875 C 148.273438 348.066406 151.472656 348.8125 154.699219 349.464844 C 157.921875 350.113281 161.160156 350.664062 164.417969 351.117188 C 167.671875 351.570312 170.941406 351.921875 174.21875 352.171875 C 177.496094 352.425781 180.78125 352.574219 184.066406 352.625 C 187.355469 352.675781 190.640625 352.625 193.925781 352.476562 C 197.210938 352.324219 200.488281 352.074219 203.757812 351.722656 C 207.023438 351.371094 210.28125 350.917969 213.523438 350.367188 C 216.761719 349.816406 219.984375 349.164062 223.1875 348.417969 C 226.386719 347.667969 229.5625 346.824219 232.710938 345.878906 C 235.863281 344.9375 238.980469 343.898438 242.066406 342.761719 C 245.152344 341.628906 248.199219 340.398438 251.210938 339.078125 C 254.222656 337.757812 257.1875 336.34375 260.113281 334.84375 C 263.039062 333.339844 265.914062 331.746094 268.738281 330.066406 C 271.566406 328.386719 274.339844 326.625 277.058594 324.773438 C 279.777344 322.925781 282.433594 320.996094 285.035156 318.980469 C 287.636719 316.96875 290.171875 314.878906 292.644531 312.710938 C 295.117188 310.542969 297.519531 308.304688 299.855469 305.988281 C 302.1875 303.671875 304.449219 301.289062 306.636719 298.835938 C 308.828125 296.382812 310.9375 293.863281 312.972656 291.28125 C 315.007812 288.695312 316.960938 286.054688 318.832031 283.351562 C 320.703125 280.648438 322.492188 277.890625 324.195312 275.078125 C 325.898438 272.265625 327.515625 269.402344 329.042969 266.492188 C 330.570312 263.582031 332.007812 260.625 333.351562 257.625 C 334.699219 254.625 335.953125 251.589844 337.113281 248.511719 C 338.273438 245.433594 339.339844 242.328125 340.308594 239.183594 C 341.277344 236.042969 342.152344 232.875 342.925781 229.679688 C 343.703125 226.484375 344.378906 223.269531 344.957031 220.03125 C 345.539062 216.796875 346.015625 213.542969 346.394531 210.277344 C 346.773438 207.011719 347.054688 203.738281 347.234375 200.453125 C 347.410156 197.171875 347.488281 193.886719 347.464844 190.597656 C 347.445312 187.3125 347.320312 184.027344 347.097656 180.746094 C 346.871094 177.464844 346.546875 174.195312 346.125 170.9375 C 345.699219 167.675781 345.175781 164.429688 344.550781 161.203125 C 343.929688 157.972656 343.207031 154.769531 342.386719 151.585938 C 341.566406 148.398438 340.648438 145.246094 339.636719 142.117188 C 338.625 138.988281 337.515625 135.894531 336.3125 132.835938 C 335.109375 129.773438 333.8125 126.753906 332.425781 123.773438 C 331.039062 120.792969 329.558594 117.859375 327.992188 114.96875 C 326.425781 112.078125 324.769531 109.238281 323.027344 106.449219 C 321.285156 103.660156 319.460938 100.929688 317.550781 98.253906 C 315.640625 95.574219 313.652344 92.960938 311.582031 90.40625 C 309.511719 87.851562 307.367188 85.363281 305.144531 82.9375 C 302.921875 80.515625 300.625 78.164062 298.261719 75.878906 C 295.894531 73.597656 293.460938 71.390625 290.957031 69.257812 C 288.457031 67.125 285.890625 65.070312 283.261719 63.09375 C 280.636719 61.117188 277.949219 59.222656 275.207031 57.410156 C 272.460938 55.597656 269.664062 53.875 266.816406 52.234375 C 263.964844 50.59375 261.070312 49.042969 258.125 47.578125 C 255.179688 46.117188 252.191406 44.746094 249.164062 43.464844 C 239.222656 39.261719 228.960938 36.089844 218.378906 33.953125 C 207.800781 31.816406 197.113281 30.761719 186.316406 30.78125 Z M 186.316406 30.78125 " fill-opacity="1" fill-rule="nonzero"/><path fill="#c47257" d="M 186.316406 370.984375 C 132.269531 370.984375 81.695312 346.90625 47.558594 304.917969 C 47.101562 304.351562 46.71875 303.738281 46.414062 303.078125 C 46.109375 302.414062 45.894531 301.726562 45.761719 301.007812 C 45.632812 300.289062 45.59375 299.570312 45.648438 298.839844 C 45.703125 298.113281 45.84375 297.40625 46.078125 296.714844 C 46.914062 294.238281 47.824219 291.792969 48.808594 289.371094 C 49.792969 286.953125 50.851562 284.566406 51.984375 282.210938 C 53.113281 279.855469 54.316406 277.535156 55.589844 275.253906 C 56.863281 272.972656 58.203125 270.730469 59.613281 268.53125 C 61.023438 266.332031 62.496094 264.175781 64.039062 262.066406 C 65.578125 259.957031 67.183594 257.898438 68.851562 255.882812 C 70.515625 253.871094 72.242188 251.914062 74.03125 250.007812 C 75.816406 248.101562 77.660156 246.25 79.558594 244.457031 C 81.457031 242.664062 83.410156 240.925781 85.417969 239.253906 C 87.421875 237.578125 89.476562 235.964844 91.578125 234.417969 C 93.683594 232.867188 95.832031 231.382812 98.027344 229.964844 C 100.222656 228.546875 102.457031 227.195312 104.734375 225.914062 C 107.011719 224.632812 109.324219 223.421875 111.675781 222.28125 C 114.023438 221.140625 116.410156 220.074219 118.824219 219.078125 C 121.238281 218.082031 123.683594 217.164062 126.15625 216.316406 C 128.628906 215.472656 131.125 214.703125 133.640625 214.007812 C 127.0625 204.75 121.300781 194.011719 116.679688 182.328125 C 110.3125 166.226562 106.804688 149.808594 106.804688 136.109375 C 106.804688 134.808594 106.835938 133.507812 106.898438 132.207031 C 106.964844 130.90625 107.058594 129.609375 107.1875 128.316406 C 107.3125 127.019531 107.472656 125.730469 107.664062 124.441406 C 107.855469 123.152344 108.078125 121.871094 108.332031 120.597656 C 108.585938 119.320312 108.871094 118.050781 109.1875 116.789062 C 109.503906 115.527344 109.847656 114.273438 110.226562 113.027344 C 110.605469 111.78125 111.011719 110.546875 111.453125 109.320312 C 111.890625 108.097656 112.359375 106.882812 112.855469 105.679688 C 113.355469 104.476562 113.882812 103.289062 114.4375 102.113281 C 114.992188 100.9375 115.578125 99.773438 116.191406 98.625 C 116.804688 97.476562 117.445312 96.347656 118.117188 95.230469 C 118.785156 94.113281 119.480469 93.015625 120.203125 91.933594 C 120.925781 90.851562 121.675781 89.789062 122.449219 88.742188 C 123.226562 87.695312 124.027344 86.671875 124.851562 85.664062 C 125.675781 84.660156 126.527344 83.675781 127.402344 82.710938 C 128.273438 81.746094 129.171875 80.804688 130.09375 79.882812 C 131.011719 78.964844 131.953125 78.066406 132.917969 77.191406 C 133.882812 76.320312 134.867188 75.46875 135.875 74.644531 C 136.878906 73.816406 137.90625 73.019531 138.949219 72.242188 C 139.996094 71.46875 141.058594 70.71875 142.140625 69.996094 C 143.222656 69.273438 144.324219 68.578125 145.4375 67.90625 C 146.554688 67.238281 147.6875 66.597656 148.835938 65.984375 C 149.980469 65.371094 151.144531 64.785156 152.320312 64.230469 C 153.496094 63.671875 154.6875 63.144531 155.886719 62.648438 C 157.089844 62.148438 158.304688 61.679688 159.53125 61.242188 C 160.753906 60.804688 161.988281 60.394531 163.234375 60.019531 C 164.480469 59.640625 165.734375 59.292969 166.996094 58.976562 C 168.257812 58.660156 169.527344 58.375 170.804688 58.121094 C 172.082031 57.867188 173.363281 57.644531 174.648438 57.457031 C 175.9375 57.265625 177.226562 57.105469 178.523438 56.976562 C 179.816406 56.851562 181.117188 56.753906 182.414062 56.691406 C 183.714844 56.625 185.015625 56.59375 186.316406 56.59375 C 187.617188 56.59375 188.917969 56.625 190.21875 56.691406 C 191.519531 56.753906 192.816406 56.851562 194.109375 56.976562 C 195.40625 57.105469 196.695312 57.265625 197.984375 57.457031 C 199.269531 57.644531 200.554688 57.867188 201.828125 58.121094 C 203.105469 58.375 204.375 58.660156 205.636719 58.976562 C 206.898438 59.292969 208.152344 59.640625 209.398438 60.019531 C 210.644531 60.394531 211.878906 60.804688 213.105469 61.242188 C 214.328125 61.679688 215.542969 62.148438 216.746094 62.648438 C 217.949219 63.144531 219.136719 63.671875 220.3125 64.230469 C 221.488281 64.785156 222.652344 65.371094 223.800781 65.984375 C 224.945312 66.597656 226.078125 67.238281 227.195312 67.90625 C 228.3125 68.578125 229.410156 69.273438 230.492188 69.996094 C 231.574219 70.71875 232.636719 71.46875 233.683594 72.242188 C 234.726562 73.019531 235.753906 73.816406 236.761719 74.644531 C 237.765625 75.46875 238.75 76.320312 239.714844 77.191406 C 240.679688 78.066406 241.621094 78.964844 242.542969 79.882812 C 243.460938 80.804688 244.359375 81.746094 245.234375 82.710938 C 246.105469 83.675781 246.957031 84.660156 247.78125 85.664062 C 248.605469 86.671875 249.40625 87.695312 250.183594 88.742188 C 250.957031 89.789062 251.707031 90.851562 252.429688 91.933594 C 253.152344 93.015625 253.847656 94.113281 254.519531 95.230469 C 255.1875 96.347656 255.828125 97.476562 256.441406 98.625 C 257.054688 99.773438 257.640625 100.9375 258.195312 102.113281 C 258.753906 103.289062 259.28125 104.476562 259.777344 105.679688 C 260.277344 106.882812 260.742188 108.097656 261.183594 109.320312 C 261.621094 110.546875 262.027344 111.78125 262.40625 113.027344 C 262.785156 114.273438 263.132812 115.527344 263.449219 116.789062 C 263.765625 118.050781 264.050781 119.320312 264.300781 120.597656 C 264.554688 121.871094 264.777344 123.152344 264.96875 124.441406 C 265.160156 125.730469 265.320312 127.019531 265.449219 128.316406 C 265.574219 129.609375 265.671875 130.90625 265.734375 132.207031 C 265.796875 133.507812 265.832031 134.808594 265.832031 136.109375 C 265.832031 149.808594 262.320312 166.226562 255.953125 182.328125 C 251.332031 194.011719 245.570312 204.75 238.992188 214.007812 C 241.511719 214.703125 244.003906 215.472656 246.476562 216.320312 C 248.949219 217.164062 251.394531 218.085938 253.808594 219.078125 C 256.226562 220.074219 258.609375 221.140625 260.960938 222.28125 C 263.308594 223.421875 265.625 224.632812 267.898438 225.917969 C 270.175781 227.199219 272.414062 228.546875 274.605469 229.964844 C 276.800781 231.382812 278.949219 232.867188 281.054688 234.417969 C 283.15625 235.96875 285.210938 237.578125 287.21875 239.253906 C 289.222656 240.929688 291.175781 242.664062 293.074219 244.457031 C 294.972656 246.25 296.816406 248.101562 298.601562 250.007812 C 300.390625 251.914062 302.117188 253.875 303.785156 255.886719 C 305.449219 257.898438 307.054688 259.957031 308.59375 262.070312 C 310.136719 264.179688 311.613281 266.332031 313.019531 268.53125 C 314.429688 270.734375 315.773438 272.972656 317.042969 275.253906 C 318.316406 277.539062 319.519531 279.855469 320.648438 282.210938 C 321.78125 284.566406 322.839844 286.953125 323.824219 289.375 C 324.808594 291.792969 325.722656 294.242188 326.558594 296.714844 C 326.789062 297.40625 326.933594 298.117188 326.984375 298.84375 C 327.039062 299.570312 327 300.292969 326.871094 301.007812 C 326.742188 301.726562 326.523438 302.414062 326.21875 303.078125 C 325.914062 303.742188 325.53125 304.355469 325.074219 304.917969 C 290.941406 346.90625 240.367188 370.984375 186.316406 370.984375 Z M 64.070312 297.730469 C 65.957031 299.917969 67.902344 302.054688 69.90625 304.136719 C 71.910156 306.21875 73.964844 308.246094 76.078125 310.222656 C 78.1875 312.195312 80.351562 314.109375 82.566406 315.964844 C 84.78125 317.824219 87.042969 319.617188 89.351562 321.355469 C 91.664062 323.089844 94.019531 324.761719 96.421875 326.371094 C 98.820312 327.980469 101.261719 329.523438 103.746094 331 C 106.230469 332.476562 108.75 333.886719 111.308594 335.230469 C 113.867188 336.574219 116.460938 337.84375 119.089844 339.046875 C 121.71875 340.25 124.375 341.382812 127.0625 342.445312 C 129.75 343.503906 132.464844 344.492188 135.207031 345.40625 C 137.949219 346.320312 140.710938 347.160156 143.5 347.929688 C 146.285156 348.695312 149.089844 349.386719 151.914062 350 C 154.734375 350.617188 157.574219 351.15625 160.425781 351.621094 C 163.277344 352.082031 166.140625 352.46875 169.015625 352.78125 C 171.886719 353.089844 174.765625 353.320312 177.652344 353.476562 C 180.539062 353.632812 183.425781 353.710938 186.316406 353.710938 C 189.207031 353.710938 192.09375 353.632812 194.980469 353.476562 C 197.863281 353.320312 200.746094 353.089844 203.617188 352.78125 C 206.492188 352.46875 209.355469 352.082031 212.207031 351.621094 C 215.058594 351.15625 217.894531 350.617188 220.71875 350 C 223.542969 349.386719 226.347656 348.695312 229.132812 347.929688 C 231.921875 347.160156 234.683594 346.320312 237.425781 345.40625 C 240.167969 344.492188 242.882812 343.503906 245.570312 342.445312 C 248.257812 341.382812 250.914062 340.25 253.542969 339.046875 C 256.171875 337.84375 258.765625 336.574219 261.324219 335.230469 C 263.882812 333.886719 266.402344 332.476562 268.886719 331 C 271.371094 329.523438 273.8125 327.980469 276.210938 326.371094 C 278.613281 324.761719 280.96875 323.089844 283.277344 321.355469 C 285.589844 319.617188 287.851562 317.824219 290.066406 315.964844 C 292.28125 314.109375 294.445312 312.195312 296.554688 310.222656 C 298.667969 308.246094 300.722656 306.21875 302.726562 304.136719 C 304.730469 302.054688 306.675781 299.917969 308.5625 297.730469 C 307.6875 295.46875 306.742188 293.242188 305.722656 291.042969 C 304.703125 288.84375 303.613281 286.683594 302.453125 284.558594 C 301.292969 282.429688 300.066406 280.34375 298.765625 278.296875 C 297.46875 276.253906 296.109375 274.25 294.679688 272.292969 C 293.25 270.335938 291.761719 268.429688 290.207031 266.570312 C 288.65625 264.710938 287.042969 262.90625 285.371094 261.152344 C 283.699219 259.398438 281.972656 257.699219 280.191406 256.058594 C 278.410156 254.417969 276.574219 252.835938 274.6875 251.316406 C 272.804688 249.796875 270.871094 248.339844 268.890625 246.945312 C 266.90625 245.550781 264.882812 244.222656 262.816406 242.960938 C 260.746094 241.699219 258.640625 240.507812 256.492188 239.382812 C 254.347656 238.257812 252.167969 237.207031 249.953125 236.226562 C 247.738281 235.242188 245.492188 234.335938 243.21875 233.503906 C 240.945312 232.667969 238.644531 231.910156 236.320312 231.226562 C 233.996094 230.542969 231.652344 229.933594 229.289062 229.40625 C 226.925781 228.875 224.546875 228.421875 222.152344 228.046875 C 221.378906 227.929688 220.636719 227.707031 219.921875 227.386719 C 219.207031 227.0625 218.550781 226.652344 217.949219 226.152344 C 217.347656 225.652344 216.820312 225.078125 216.375 224.433594 C 215.929688 223.792969 215.578125 223.101562 215.316406 222.363281 C 215.058594 221.621094 214.90625 220.863281 214.851562 220.082031 C 214.800781 219.300781 214.855469 218.527344 215.015625 217.757812 C 215.171875 216.992188 215.429688 216.261719 215.789062 215.5625 C 216.148438 214.867188 216.589844 214.230469 217.121094 213.65625 C 226 204.03125 234.082031 190.652344 239.890625 175.976562 C 245.480469 161.847656 248.558594 147.6875 248.558594 136.109375 C 248.558594 101.789062 220.636719 73.867188 186.316406 73.867188 C 151.996094 73.867188 124.078125 101.789062 124.078125 136.109375 C 124.078125 147.6875 127.15625 161.847656 132.746094 175.976562 C 138.546875 190.652344 146.632812 204.03125 155.511719 213.65625 C 156.042969 214.230469 156.488281 214.867188 156.84375 215.566406 C 157.203125 216.261719 157.460938 216.992188 157.621094 217.757812 C 157.777344 218.527344 157.832031 219.300781 157.78125 220.082031 C 157.730469 220.863281 157.574219 221.621094 157.316406 222.363281 C 157.058594 223.101562 156.703125 223.792969 156.257812 224.4375 C 155.8125 225.078125 155.289062 225.652344 154.6875 226.152344 C 154.085938 226.652344 153.425781 227.0625 152.710938 227.386719 C 152 227.707031 151.253906 227.929688 150.480469 228.046875 C 148.085938 228.421875 145.707031 228.875 143.34375 229.40625 C 140.980469 229.933594 138.636719 230.542969 136.3125 231.226562 C 133.988281 231.910156 131.691406 232.667969 129.414062 233.503906 C 127.140625 234.335938 124.894531 235.246094 122.679688 236.226562 C 120.464844 237.207031 118.285156 238.257812 116.140625 239.382812 C 113.992188 240.507812 111.886719 241.699219 109.816406 242.960938 C 107.75 244.222656 105.726562 245.550781 103.746094 246.945312 C 101.761719 248.339844 99.828125 249.796875 97.945312 251.316406 C 96.058594 252.835938 94.222656 254.417969 92.441406 256.058594 C 90.660156 257.699219 88.933594 259.398438 87.261719 261.152344 C 85.589844 262.90625 83.976562 264.710938 82.425781 266.570312 C 80.871094 268.429688 79.382812 270.335938 77.953125 272.292969 C 76.523438 274.25 75.164062 276.253906 73.863281 278.296875 C 72.566406 280.34375 71.339844 282.429688 70.179688 284.558594 C 69.019531 286.683594 67.929688 288.84375 66.910156 291.042969 C 65.890625 293.242188 64.945312 295.46875 64.070312 297.730469 Z M 64.070312 297.730469 " fill-opacity="1" fill-rule="nonzero"/></svg>