<svg xmlns="http://www.w3.org/2000/svg" xmlns:xlink="http://www.w3.org/1999/xlink" width="512" zoomAndPan="magnify" viewBox="0 0 384 383.999986" height="512" preserveAspectRatio="xMidYMid meet" version="1.2"><defs><clipPath id="d920574685"><path d="M 1.199219 101 L 88 101 L 88 184 L 1.199219 184 Z M 1.199219 101 "/></clipPath><clipPath id="49d1414da0"><path d="M 1.199219 1.199219 L 88 1.199219 L 88 84 L 1.199219 84 Z M 1.199219 1.199219 "/></clipPath><clipPath id="636df7f423"><path d="M 1.199219 200 L 88 200 L 88 284 L 1.199219 284 Z M 1.199219 200 "/></clipPath><clipPath id="1391d07546"><path d="M 1.199219 300 L 88 300 L 88 382.949219 L 1.199219 382.949219 Z M 1.199219 300 "/></clipPath><clipPath id="d97390e7bc"><path d="M 106 24 L 382.949219 24 L 382.949219 61 L 106 61 Z M 106 24 "/></clipPath></defs><g id="33fad724ee"><g clip-rule="nonzero" clip-path="url(#d920574685)"><path style=" stroke:none;fill-rule:nonzero;fill:#000000;fill-opacity:1;" d="M 82.558594 128.214844 L 59.816406 124.910156 L 49.644531 104.304688 C 49.410156 103.828125 49.117188 103.394531 48.761719 103.003906 C 48.402344 102.613281 48 102.277344 47.550781 101.996094 C 47.101562 101.714844 46.621094 101.503906 46.113281 101.359375 C 45.601562 101.214844 45.082031 101.140625 44.550781 101.140625 C 44.023438 101.140625 43.503906 101.214844 42.992188 101.359375 C 42.484375 101.503906 42.003906 101.714844 41.554688 101.996094 C 41.105469 102.277344 40.703125 102.613281 40.34375 103.003906 C 39.988281 103.394531 39.695312 103.828125 39.460938 104.304688 L 29.289062 124.910156 L 6.566406 128.214844 C 6.042969 128.292969 5.539062 128.441406 5.054688 128.65625 C 4.570312 128.875 4.128906 129.15625 3.722656 129.496094 C 3.320312 129.839844 2.96875 130.230469 2.671875 130.667969 C 2.375 131.109375 2.148438 131.578125 1.984375 132.082031 C 1.820312 132.585938 1.726562 133.105469 1.710938 133.632812 C 1.691406 134.164062 1.742188 134.683594 1.871094 135.199219 C 1.996094 135.714844 2.191406 136.199219 2.453125 136.660156 C 2.71875 137.121094 3.039062 137.535156 3.417969 137.90625 L 19.875 153.941406 L 15.980469 176.589844 C 15.890625 177.113281 15.875 177.636719 15.929688 178.164062 C 15.988281 178.691406 16.117188 179.199219 16.316406 179.691406 C 16.515625 180.183594 16.78125 180.636719 17.105469 181.054688 C 17.433594 181.472656 17.8125 181.835938 18.238281 182.148438 C 18.667969 182.457031 19.132812 182.707031 19.628906 182.886719 C 20.128906 183.070312 20.640625 183.179688 21.167969 183.21875 C 21.699219 183.253906 22.222656 183.222656 22.738281 183.113281 C 23.257812 183.003906 23.753906 182.828125 24.222656 182.578125 L 44.558594 171.886719 L 64.898438 182.578125 C 65.367188 182.824219 65.863281 183.003906 66.382812 183.109375 C 66.898438 183.21875 67.421875 183.253906 67.949219 183.214844 C 68.480469 183.175781 68.992188 183.0625 69.488281 182.882812 C 69.984375 182.699219 70.449219 182.453125 70.875 182.140625 C 71.304688 181.832031 71.683594 181.464844 72.007812 181.050781 C 72.335938 180.632812 72.597656 180.179688 72.796875 179.6875 C 72.996094 179.199219 73.125 178.691406 73.183594 178.164062 C 73.242188 177.636719 73.222656 177.113281 73.136719 176.589844 L 69.238281 153.941406 L 85.699219 137.90625 C 86.078125 137.535156 86.398438 137.121094 86.660156 136.660156 C 86.921875 136.199219 87.117188 135.714844 87.246094 135.199219 C 87.371094 134.683594 87.425781 134.164062 87.40625 133.632812 C 87.386719 133.105469 87.296875 132.585938 87.132812 132.082031 C 86.96875 131.578125 86.738281 131.109375 86.441406 130.667969 C 86.148438 130.230469 85.796875 129.839844 85.390625 129.496094 C 84.988281 129.15625 84.542969 128.875 84.058594 128.65625 C 83.578125 128.441406 83.074219 128.292969 82.550781 128.214844 Z M 59.1875 147.890625 C 58.519531 148.546875 58.042969 149.316406 57.753906 150.207031 C 57.46875 151.097656 57.402344 152.003906 57.5625 152.921875 L 60.007812 167.167969 L 47.210938 160.441406 C 46.382812 160.007812 45.503906 159.789062 44.570312 159.789062 C 43.632812 159.789062 42.753906 160.007812 41.925781 160.441406 L 29.117188 167.167969 L 31.558594 152.921875 C 31.71875 152.003906 31.652344 151.097656 31.367188 150.207031 C 31.082031 149.320312 30.601562 148.546875 29.933594 147.894531 L 19.585938 137.800781 L 33.890625 135.726562 C 34.8125 135.589844 35.652344 135.246094 36.410156 134.699219 C 37.164062 134.148438 37.75 133.457031 38.164062 132.617188 L 44.5625 119.65625 L 50.960938 132.617188 C 51.375 133.457031 51.960938 134.148438 52.714844 134.699219 C 53.472656 135.246094 54.3125 135.589844 55.234375 135.726562 L 69.542969 137.800781 Z M 59.1875 147.890625 "/></g><g clip-rule="nonzero" clip-path="url(#49d1414da0)"><path style=" stroke:none;fill-rule:nonzero;fill:#000000;fill-opacity:1;" d="M 82.558594 28.4375 L 59.816406 25.132812 L 49.644531 4.53125 C 49.410156 4.054688 49.117188 3.621094 48.761719 3.226562 C 48.40625 2.835938 48.003906 2.5 47.550781 2.21875 C 47.101562 1.9375 46.621094 1.726562 46.113281 1.582031 C 45.601562 1.433594 45.082031 1.363281 44.550781 1.363281 C 44.023438 1.363281 43.503906 1.433594 42.992188 1.582031 C 42.484375 1.726562 42.003906 1.9375 41.554688 2.21875 C 41.101562 2.5 40.699219 2.835938 40.34375 3.226562 C 39.988281 3.621094 39.695312 4.054688 39.460938 4.53125 L 29.289062 25.132812 L 6.566406 28.4375 C 6.042969 28.515625 5.539062 28.664062 5.054688 28.878906 C 4.570312 29.097656 4.128906 29.378906 3.722656 29.71875 C 3.320312 30.0625 2.96875 30.453125 2.671875 30.890625 C 2.375 31.332031 2.148438 31.800781 1.984375 32.304688 C 1.820312 32.808594 1.726562 33.328125 1.710938 33.855469 C 1.691406 34.386719 1.742188 34.90625 1.871094 35.421875 C 1.996094 35.9375 2.191406 36.421875 2.453125 36.882812 C 2.71875 37.34375 3.039062 37.757812 3.417969 38.128906 L 19.875 54.167969 L 15.980469 76.816406 C 15.890625 77.339844 15.875 77.863281 15.929688 78.390625 C 15.988281 78.917969 16.117188 79.425781 16.316406 79.917969 C 16.515625 80.410156 16.777344 80.863281 17.105469 81.28125 C 17.433594 81.699219 17.808594 82.0625 18.238281 82.375 C 18.667969 82.683594 19.132812 82.929688 19.628906 83.113281 C 20.128906 83.292969 20.640625 83.40625 21.167969 83.441406 C 21.699219 83.480469 22.222656 83.445312 22.742188 83.335938 C 23.257812 83.226562 23.753906 83.050781 24.222656 82.800781 L 44.558594 72.109375 L 64.898438 82.800781 C 65.367188 83.050781 65.863281 83.226562 66.382812 83.335938 C 66.898438 83.441406 67.421875 83.476562 67.953125 83.441406 C 68.480469 83.402344 68.992188 83.292969 69.492188 83.109375 C 69.988281 82.929688 70.453125 82.679688 70.878906 82.371094 C 71.308594 82.058594 71.6875 81.695312 72.011719 81.277344 C 72.339844 80.859375 72.605469 80.40625 72.804688 79.914062 C 73.003906 79.425781 73.132812 78.917969 73.1875 78.390625 C 73.246094 77.863281 73.230469 77.339844 73.140625 76.816406 L 69.246094 54.167969 L 85.703125 38.128906 C 86.082031 37.757812 86.402344 37.34375 86.667969 36.882812 C 86.929688 36.421875 87.125 35.9375 87.25 35.421875 C 87.378906 34.90625 87.433594 34.386719 87.414062 33.855469 C 87.394531 33.328125 87.300781 32.808594 87.136719 32.304688 C 86.972656 31.800781 86.746094 31.332031 86.449219 30.890625 C 86.152344 30.453125 85.804688 30.0625 85.398438 29.71875 C 84.992188 29.378906 84.550781 29.097656 84.066406 28.878906 C 83.582031 28.664062 83.078125 28.515625 82.554688 28.4375 Z M 59.1875 48.113281 C 58.519531 48.769531 58.042969 49.539062 57.753906 50.429688 C 57.46875 51.320312 57.402344 52.222656 57.5625 53.144531 L 60.007812 67.390625 L 47.210938 60.667969 C 46.382812 60.230469 45.503906 60.011719 44.570312 60.011719 C 43.632812 60.011719 42.753906 60.230469 41.925781 60.667969 L 29.117188 67.390625 L 31.558594 53.144531 C 31.71875 52.226562 31.652344 51.320312 31.367188 50.429688 C 31.082031 49.542969 30.601562 48.769531 29.933594 48.117188 L 19.585938 38.023438 L 33.890625 35.945312 C 34.8125 35.8125 35.652344 35.46875 36.410156 34.921875 C 37.164062 34.371094 37.75 33.679688 38.164062 32.839844 L 44.5625 19.878906 L 50.960938 32.839844 C 51.375 33.679688 51.960938 34.371094 52.714844 34.921875 C 53.472656 35.46875 54.3125 35.8125 55.234375 35.945312 L 69.542969 38.023438 Z M 59.1875 48.113281 "/></g><g clip-rule="nonzero" clip-path="url(#636df7f423)"><path style=" stroke:none;fill-rule:nonzero;fill:#000000;fill-opacity:1;" d="M 82.558594 227.992188 L 59.816406 224.6875 L 49.644531 204.085938 C 49.410156 203.609375 49.117188 203.175781 48.761719 202.785156 C 48.402344 202.390625 48 202.054688 47.550781 201.777344 C 47.101562 201.496094 46.621094 201.285156 46.113281 201.140625 C 45.601562 200.992188 45.082031 200.921875 44.550781 200.921875 C 44.023438 200.921875 43.503906 200.992188 42.992188 201.140625 C 42.484375 201.285156 42.003906 201.496094 41.554688 201.777344 C 41.105469 202.054688 40.703125 202.390625 40.34375 202.785156 C 39.988281 203.175781 39.695312 203.609375 39.460938 204.085938 L 29.289062 224.6875 L 6.566406 227.996094 C 6.042969 228.074219 5.539062 228.21875 5.054688 228.4375 C 4.570312 228.65625 4.128906 228.933594 3.722656 229.277344 C 3.316406 229.617188 2.96875 230.007812 2.671875 230.449219 C 2.375 230.886719 2.148438 231.359375 1.984375 231.863281 C 1.820312 232.367188 1.726562 232.882812 1.707031 233.414062 C 1.6875 233.941406 1.742188 234.464844 1.871094 234.976562 C 1.996094 235.492188 2.191406 235.980469 2.453125 236.4375 C 2.71875 236.898438 3.039062 237.3125 3.417969 237.683594 L 19.875 253.722656 L 15.980469 276.371094 C 15.890625 276.894531 15.875 277.417969 15.929688 277.945312 C 15.988281 278.472656 16.117188 278.980469 16.316406 279.472656 C 16.515625 279.964844 16.78125 280.417969 17.105469 280.835938 C 17.433594 281.253906 17.8125 281.617188 18.238281 281.929688 C 18.667969 282.238281 19.132812 282.488281 19.628906 282.667969 C 20.128906 282.851562 20.640625 282.960938 21.167969 283 C 21.699219 283.035156 22.222656 283 22.738281 282.894531 C 23.257812 282.785156 23.753906 282.609375 24.222656 282.359375 L 44.558594 271.667969 L 64.898438 282.359375 C 65.367188 282.609375 65.863281 282.785156 66.382812 282.894531 C 66.898438 283 67.425781 283.035156 67.953125 283 C 68.480469 282.960938 68.996094 282.851562 69.492188 282.667969 C 69.988281 282.484375 70.453125 282.238281 70.882812 281.929688 C 71.3125 281.617188 71.6875 281.253906 72.015625 280.835938 C 72.34375 280.417969 72.605469 279.964844 72.804688 279.472656 C 73.003906 278.980469 73.132812 278.472656 73.191406 277.945312 C 73.246094 277.417969 73.230469 276.894531 73.140625 276.371094 L 69.246094 253.722656 L 85.703125 237.6875 C 86.082031 237.316406 86.402344 236.902344 86.667969 236.441406 C 86.929688 235.980469 87.125 235.496094 87.25 234.980469 C 87.378906 234.464844 87.433594 233.945312 87.414062 233.414062 C 87.394531 232.886719 87.300781 232.367188 87.136719 231.863281 C 86.972656 231.359375 86.746094 230.890625 86.449219 230.449219 C 86.152344 230.011719 85.804688 229.621094 85.398438 229.277344 C 84.992188 228.9375 84.550781 228.65625 84.066406 228.4375 C 83.582031 228.222656 83.078125 228.074219 82.554688 227.996094 Z M 59.1875 247.667969 C 58.519531 248.324219 58.042969 249.09375 57.753906 249.984375 C 57.46875 250.871094 57.402344 251.777344 57.5625 252.699219 L 60.007812 266.945312 L 47.210938 260.21875 C 46.382812 259.785156 45.503906 259.566406 44.570312 259.566406 C 43.632812 259.566406 42.753906 259.785156 41.925781 260.21875 L 29.117188 266.945312 L 31.558594 252.699219 C 31.71875 251.777344 31.65625 250.871094 31.367188 249.984375 C 31.082031 249.09375 30.601562 248.324219 29.933594 247.671875 L 19.585938 237.578125 L 33.890625 235.503906 C 34.8125 235.367188 35.652344 235.023438 36.410156 234.476562 C 37.164062 233.925781 37.75 233.230469 38.164062 232.394531 L 44.5625 219.433594 L 50.960938 232.394531 C 51.375 233.230469 51.957031 233.925781 52.714844 234.476562 C 53.46875 235.023438 54.3125 235.367188 55.234375 235.503906 L 69.542969 237.578125 Z M 59.1875 247.667969 "/></g><g clip-rule="nonzero" clip-path="url(#1391d07546)"><path style=" stroke:none;fill-rule:nonzero;fill:#000000;fill-opacity:1;" d="M 82.558594 327.765625 L 59.816406 324.460938 L 49.644531 303.855469 C 49.410156 303.382812 49.117188 302.949219 48.761719 302.554688 C 48.40625 302.160156 48.003906 301.824219 47.550781 301.546875 C 47.101562 301.265625 46.621094 301.050781 46.113281 300.90625 C 45.601562 300.761719 45.082031 300.6875 44.550781 300.6875 C 44.023438 300.6875 43.503906 300.761719 42.992188 300.90625 C 42.484375 301.050781 42.003906 301.265625 41.554688 301.546875 C 41.101562 301.824219 40.699219 302.160156 40.34375 302.554688 C 39.988281 302.949219 39.695312 303.382812 39.460938 303.855469 L 29.289062 324.460938 L 6.566406 327.765625 C 6.042969 327.84375 5.539062 327.988281 5.054688 328.207031 C 4.570312 328.425781 4.128906 328.703125 3.722656 329.046875 C 3.320312 329.386719 2.96875 329.777344 2.671875 330.21875 C 2.375 330.65625 2.148438 331.128906 1.984375 331.632812 C 1.820312 332.136719 1.726562 332.652344 1.710938 333.183594 C 1.691406 333.710938 1.742188 334.234375 1.871094 334.75 C 1.996094 335.261719 2.191406 335.75 2.453125 336.210938 C 2.71875 336.667969 3.039062 337.085938 3.417969 337.453125 L 19.875 353.496094 L 15.980469 376.144531 C 15.890625 376.664062 15.875 377.191406 15.929688 377.71875 C 15.988281 378.242188 16.117188 378.753906 16.316406 379.242188 C 16.515625 379.734375 16.78125 380.1875 17.105469 380.605469 C 17.433594 381.023438 17.8125 381.386719 18.238281 381.699219 C 18.667969 382.011719 19.132812 382.257812 19.628906 382.4375 C 20.128906 382.621094 20.640625 382.730469 21.167969 382.769531 C 21.699219 382.808594 22.222656 382.773438 22.738281 382.664062 C 23.257812 382.554688 23.753906 382.378906 24.222656 382.132812 L 44.558594 371.4375 L 64.898438 382.132812 C 65.367188 382.378906 65.863281 382.554688 66.382812 382.664062 C 66.902344 382.769531 67.425781 382.804688 67.953125 382.765625 C 68.480469 382.726562 68.996094 382.617188 69.492188 382.433594 C 69.992188 382.253906 70.453125 382.003906 70.882812 381.691406 C 71.3125 381.378906 71.6875 381.015625 72.015625 380.597656 C 72.339844 380.179688 72.601562 379.726562 72.800781 379.234375 C 73 378.742188 73.128906 378.234375 73.1875 377.707031 C 73.242188 377.179688 73.226562 376.65625 73.136719 376.132812 L 69.238281 353.484375 L 85.699219 337.449219 C 86.078125 337.078125 86.398438 336.664062 86.660156 336.203125 C 86.921875 335.742188 87.117188 335.253906 87.246094 334.742188 C 87.371094 334.226562 87.425781 333.703125 87.40625 333.175781 C 87.386719 332.644531 87.292969 332.128906 87.128906 331.625 C 86.96875 331.121094 86.738281 330.648438 86.441406 330.210938 C 86.144531 329.769531 85.796875 329.378906 85.390625 329.039062 C 84.988281 328.695312 84.542969 328.414062 84.058594 328.199219 C 83.578125 327.980469 83.074219 327.832031 82.550781 327.753906 Z M 59.1875 347.445312 C 58.519531 348.097656 58.042969 348.867188 57.753906 349.757812 C 57.46875 350.644531 57.402344 351.550781 57.5625 352.472656 L 60.007812 366.71875 L 47.210938 359.992188 C 46.382812 359.558594 45.503906 359.339844 44.570312 359.339844 C 43.632812 359.339844 42.753906 359.558594 41.925781 359.992188 L 29.117188 366.71875 L 31.558594 352.472656 C 31.71875 351.550781 31.652344 350.644531 31.367188 349.757812 C 31.082031 348.867188 30.601562 348.097656 29.933594 347.445312 L 19.585938 337.355469 L 33.890625 335.277344 C 34.8125 335.140625 35.652344 334.800781 36.410156 334.25 C 37.164062 333.699219 37.75 333.003906 38.164062 332.167969 L 44.5625 319.207031 L 50.960938 332.167969 C 51.375 333.003906 51.957031 333.699219 52.714844 334.25 C 53.46875 334.800781 54.3125 335.140625 55.234375 335.277344 L 69.542969 337.355469 Z M 59.1875 347.445312 "/></g><path style=" stroke:none;fill-rule:nonzero;fill:#000000;fill-opacity:1;" d="M 178.851562 323.546875 L 112.65625 323.546875 C 112.285156 323.542969 111.914062 323.582031 111.550781 323.652344 C 111.183594 323.726562 110.828125 323.835938 110.484375 323.976562 C 110.136719 324.121094 109.8125 324.292969 109.5 324.5 C 109.191406 324.707031 108.902344 324.945312 108.640625 325.207031 C 108.375 325.472656 108.140625 325.757812 107.933594 326.070312 C 107.726562 326.378906 107.550781 326.707031 107.40625 327.050781 C 107.265625 327.394531 107.15625 327.75 107.085938 328.117188 C 107.011719 328.484375 106.976562 328.851562 106.976562 329.226562 L 106.976562 354.242188 C 106.976562 354.613281 107.011719 354.984375 107.085938 355.347656 C 107.15625 355.714844 107.265625 356.070312 107.40625 356.414062 C 107.550781 356.761719 107.726562 357.085938 107.933594 357.398438 C 108.140625 357.707031 108.375 357.996094 108.640625 358.257812 C 108.902344 358.523438 109.191406 358.757812 109.5 358.964844 C 109.8125 359.171875 110.136719 359.347656 110.484375 359.488281 C 110.828125 359.632812 111.183594 359.742188 111.550781 359.8125 C 111.914062 359.886719 112.285156 359.921875 112.65625 359.921875 L 178.851562 359.921875 C 179.222656 359.921875 179.59375 359.886719 179.957031 359.8125 C 180.324219 359.742188 180.679688 359.632812 181.023438 359.488281 C 181.371094 359.347656 181.695312 359.171875 182.007812 358.964844 C 182.316406 358.757812 182.605469 358.523438 182.867188 358.257812 C 183.132812 357.996094 183.367188 357.707031 183.574219 357.398438 C 183.78125 357.085938 183.957031 356.761719 184.097656 356.414062 C 184.242188 356.070312 184.351562 355.714844 184.421875 355.347656 C 184.496094 354.984375 184.53125 354.613281 184.53125 354.242188 L 184.53125 329.226562 C 184.53125 328.851562 184.496094 328.484375 184.421875 328.117188 C 184.351562 327.75 184.242188 327.394531 184.097656 327.050781 C 183.957031 326.707031 183.78125 326.378906 183.574219 326.070312 C 183.367188 325.757812 183.132812 325.472656 182.867188 325.207031 C 182.605469 324.945312 182.316406 324.707031 182.007812 324.5 C 181.695312 324.292969 181.371094 324.121094 181.023438 323.976562 C 180.679688 323.835938 180.324219 323.726562 179.957031 323.652344 C 179.59375 323.582031 179.222656 323.542969 178.851562 323.546875 Z M 173.167969 348.558594 L 118.339844 348.558594 L 118.339844 334.90625 L 173.167969 334.90625 Z M 173.167969 348.558594 "/><path style=" stroke:none;fill-rule:nonzero;fill:#000000;fill-opacity:1;" d="M 245.042969 223.773438 L 112.65625 223.773438 C 112.285156 223.773438 111.914062 223.808594 111.550781 223.882812 C 111.183594 223.957031 110.828125 224.0625 110.484375 224.207031 C 110.140625 224.347656 109.8125 224.523438 109.5 224.730469 C 109.191406 224.9375 108.902344 225.175781 108.640625 225.4375 C 108.375 225.703125 108.140625 225.988281 107.933594 226.296875 C 107.726562 226.609375 107.550781 226.9375 107.410156 227.28125 C 107.265625 227.625 107.160156 227.980469 107.085938 228.347656 C 107.011719 228.710938 106.976562 229.082031 106.976562 229.453125 L 106.976562 254.472656 C 106.976562 254.847656 107.011719 255.214844 107.085938 255.582031 C 107.160156 255.945312 107.265625 256.300781 107.410156 256.648438 C 107.550781 256.992188 107.726562 257.320312 107.933594 257.628906 C 108.140625 257.9375 108.375 258.226562 108.640625 258.488281 C 108.902344 258.753906 109.191406 258.988281 109.5 259.195312 C 109.8125 259.402344 110.140625 259.578125 110.484375 259.722656 C 110.828125 259.863281 111.183594 259.972656 111.550781 260.042969 C 111.914062 260.117188 112.285156 260.152344 112.65625 260.152344 L 245.042969 260.152344 C 245.414062 260.152344 245.785156 260.117188 246.152344 260.042969 C 246.515625 259.972656 246.871094 259.863281 247.214844 259.722656 C 247.5625 259.578125 247.890625 259.402344 248.199219 259.195312 C 248.507812 258.988281 248.796875 258.753906 249.058594 258.488281 C 249.324219 258.226562 249.558594 257.9375 249.765625 257.628906 C 249.972656 257.320312 250.148438 256.992188 250.292969 256.648438 C 250.433594 256.300781 250.542969 255.945312 250.613281 255.582031 C 250.6875 255.214844 250.722656 254.847656 250.722656 254.472656 L 250.722656 229.453125 C 250.722656 229.082031 250.6875 228.710938 250.613281 228.347656 C 250.542969 227.980469 250.433594 227.625 250.292969 227.28125 C 250.148438 226.9375 249.972656 226.609375 249.765625 226.296875 C 249.558594 225.988281 249.324219 225.703125 249.058594 225.4375 C 248.796875 225.175781 248.507812 224.9375 248.199219 224.730469 C 247.890625 224.523438 247.5625 224.347656 247.21875 224.207031 C 246.871094 224.0625 246.515625 223.957031 246.152344 223.882812 C 245.785156 223.808594 245.414062 223.773438 245.042969 223.773438 Z M 239.363281 248.792969 L 118.339844 248.792969 L 118.339844 235.136719 L 239.363281 235.136719 Z M 239.363281 248.792969 "/><path style=" stroke:none;fill-rule:nonzero;fill:#000000;fill-opacity:1;" d="M 311.234375 123.996094 L 112.65625 123.996094 C 112.285156 123.996094 111.914062 124.03125 111.550781 124.105469 C 111.183594 124.179688 110.828125 124.285156 110.484375 124.429688 C 110.140625 124.570312 109.8125 124.746094 109.5 124.953125 C 109.191406 125.160156 108.902344 125.394531 108.640625 125.660156 C 108.375 125.925781 108.140625 126.210938 107.933594 126.519531 C 107.726562 126.832031 107.550781 127.160156 107.410156 127.503906 C 107.265625 127.847656 107.160156 128.203125 107.085938 128.570312 C 107.011719 128.933594 106.976562 129.304688 106.976562 129.675781 L 106.976562 154.695312 C 106.976562 155.070312 107.011719 155.4375 107.085938 155.804688 C 107.160156 156.167969 107.265625 156.523438 107.410156 156.871094 C 107.550781 157.214844 107.726562 157.542969 107.933594 157.851562 C 108.140625 158.160156 108.375 158.449219 108.640625 158.710938 C 108.902344 158.976562 109.191406 159.210938 109.5 159.417969 C 109.8125 159.625 110.140625 159.800781 110.484375 159.945312 C 110.828125 160.085938 111.183594 160.195312 111.550781 160.265625 C 111.914062 160.339844 112.285156 160.375 112.65625 160.375 L 311.234375 160.375 C 311.609375 160.375 311.976562 160.339844 312.34375 160.265625 C 312.710938 160.195312 313.066406 160.085938 313.410156 159.945312 C 313.753906 159.800781 314.082031 159.625 314.390625 159.417969 C 314.703125 159.210938 314.988281 158.976562 315.253906 158.710938 C 315.515625 158.449219 315.75 158.160156 315.957031 157.851562 C 316.167969 157.542969 316.339844 157.214844 316.484375 156.871094 C 316.625 156.523438 316.734375 156.167969 316.808594 155.804688 C 316.878906 155.4375 316.917969 155.070312 316.917969 154.695312 L 316.917969 129.675781 C 316.917969 129.304688 316.878906 128.933594 316.808594 128.570312 C 316.734375 128.203125 316.625 127.847656 316.484375 127.503906 C 316.339844 127.160156 316.167969 126.832031 315.957031 126.519531 C 315.75 126.210938 315.515625 125.925781 315.253906 125.660156 C 314.988281 125.394531 314.703125 125.160156 314.390625 124.953125 C 314.082031 124.746094 313.753906 124.570312 313.410156 124.429688 C 313.066406 124.285156 312.710938 124.179688 312.34375 124.105469 C 311.976562 124.03125 311.609375 123.996094 311.234375 123.996094 Z M 305.554688 149.015625 L 118.339844 149.015625 L 118.339844 135.359375 L 305.554688 135.359375 Z M 305.554688 149.015625 "/><g clip-rule="nonzero" clip-path="url(#d97390e7bc)"><path style=" stroke:none;fill-rule:nonzero;fill:#000000;fill-opacity:1;" d="M 377.429688 24.222656 L 112.65625 24.222656 C 112.285156 24.222656 111.914062 24.257812 111.550781 24.332031 C 111.183594 24.402344 110.828125 24.511719 110.484375 24.652344 C 110.136719 24.796875 109.8125 24.972656 109.5 25.179688 C 109.191406 25.386719 108.902344 25.621094 108.640625 25.886719 C 108.375 26.148438 108.140625 26.4375 107.933594 26.746094 C 107.726562 27.054688 107.550781 27.382812 107.40625 27.726562 C 107.265625 28.074219 107.15625 28.429688 107.085938 28.792969 C 107.011719 29.160156 106.976562 29.53125 106.976562 29.902344 L 106.976562 54.917969 C 106.976562 55.289062 107.011719 55.660156 107.085938 56.027344 C 107.15625 56.390625 107.265625 56.746094 107.40625 57.09375 C 107.550781 57.4375 107.726562 57.765625 107.933594 58.074219 C 108.140625 58.386719 108.375 58.671875 108.640625 58.9375 C 108.902344 59.199219 109.191406 59.433594 109.5 59.640625 C 109.8125 59.847656 110.136719 60.023438 110.484375 60.167969 C 110.828125 60.308594 111.183594 60.417969 111.550781 60.488281 C 111.914062 60.5625 112.285156 60.597656 112.65625 60.597656 L 377.429688 60.597656 C 377.804688 60.597656 378.175781 60.5625 378.539062 60.488281 C 378.90625 60.417969 379.261719 60.308594 379.605469 60.167969 C 379.949219 60.023438 380.277344 59.847656 380.589844 59.640625 C 380.898438 59.433594 381.1875 59.199219 381.449219 58.9375 C 381.714844 58.671875 381.949219 58.386719 382.15625 58.074219 C 382.363281 57.765625 382.539062 57.4375 382.679688 57.09375 C 382.824219 56.746094 382.929688 56.390625 383.003906 56.027344 C 383.078125 55.660156 383.113281 55.289062 383.113281 54.917969 L 383.113281 29.902344 C 383.113281 29.53125 383.078125 29.160156 383.003906 28.792969 C 382.929688 28.429688 382.824219 28.074219 382.679688 27.726562 C 382.539062 27.382812 382.363281 27.054688 382.15625 26.746094 C 381.949219 26.4375 381.714844 26.148438 381.449219 25.886719 C 381.1875 25.621094 380.898438 25.386719 380.589844 25.179688 C 380.277344 24.972656 379.949219 24.796875 379.605469 24.652344 C 379.261719 24.511719 378.90625 24.402344 378.539062 24.332031 C 378.175781 24.257812 377.804688 24.222656 377.429688 24.222656 Z M 371.75 49.242188 L 118.339844 49.242188 L 118.339844 35.582031 L 371.75 35.582031 Z M 371.75 49.242188 "/></g></g></svg>