<svg xmlns="http://www.w3.org/2000/svg" xmlns:xlink="http://www.w3.org/1999/xlink" width="512" zoomAndPan="magnify" viewBox="0 0 384 383.999986" height="512" preserveAspectRatio="xMidYMid meet" version="1.2"><g id="4fc6988578"><path style=" stroke:none;fill-rule:nonzero;fill:#000000;fill-opacity:1;" d="M 309.027344 4.1875 L 384.011719 79.171875 L 379.824219 83.359375 L 271.175781 192.003906 L 384.011719 304.835938 L 379.824219 309.027344 L 309.027344 379.820312 L 304.835938 384.011719 L 300.652344 379.820312 L 192.003906 271.175781 L 83.359375 379.820312 L 79.171875 384.011719 L 0 304.835938 L 4.191406 300.652344 L 112.832031 192.003906 L 4.191406 83.359375 L 0 79.171875 L 4.191406 74.984375 L 74.984375 4.1875 L 79.171875 0 L 192.003906 112.832031 L 304.835938 0 Z M 367.257812 79.171875 L 304.835938 16.75 L 192.003906 129.585938 L 187.816406 125.394531 L 79.171875 16.75 L 16.75 79.171875 L 125.394531 187.816406 L 129.585938 192.003906 L 16.75 304.835938 L 79.171875 367.257812 L 192.003906 254.425781 L 304.835938 367.257812 L 367.257812 304.835938 L 254.425781 192.003906 L 258.617188 187.816406 L 367.257812 79.171875 "/></g></svg>