<svg xmlns="http://www.w3.org/2000/svg" xmlns:xlink="http://www.w3.org/1999/xlink" width="512" zoomAndPan="magnify" viewBox="0 0 384 383.999986" height="512" preserveAspectRatio="xMidYMid meet" version="1.2"><g id="7db4d32c7b"><path style=" stroke:none;fill-rule:nonzero;fill:#73142f;fill-opacity:1;" d="M 384 192 C 384 298.023438 298.023438 384 192 384 C 85.976562 384 0 298.023438 0 192 C 0 85.976562 85.976562 0 192 0 C 298.023438 0 384 85.976562 384 192 Z M 384 192 "/><path style=" stroke:none;fill-rule:nonzero;fill:#ffffff;fill-opacity:1;" d="M 93.71875 208.792969 C 115.617188 230.695312 137.519531 252.59375 159.417969 274.496094 C 180.160156 295.234375 212.199219 262.964844 191.382812 242.148438 C 182.480469 233.246094 173.503906 224.269531 164.605469 215.371094 C 199.738281 215.371094 234.871094 215.371094 270.007812 215.371094 C 299.335938 215.371094 299.648438 169.867188 270.316406 169.867188 C 235.027344 169.867188 199.816406 169.867188 164.527344 169.867188 C 173.503906 160.890625 182.480469 151.914062 191.457031 142.9375 C 212.199219 122.195312 179.925781 90.15625 159.109375 110.976562 C 137.210938 132.875 115.308594 154.777344 93.40625 176.675781 C 84.738281 185.421875 84.972656 200.046875 93.71875 208.792969 Z M 93.71875 208.792969 "/></g></svg>