<svg xmlns="http://www.w3.org/2000/svg" xmlns:xlink="http://www.w3.org/1999/xlink" width="512" zoomAndPan="magnify" viewBox="0 0 384 383.999986" height="512" preserveAspectRatio="xMidYMid meet" version="1.2"><defs><clipPath id="acbc72479b"><path d="M 30 10.078125 L 66 10.078125 L 66 71 L 30 71 Z M 30 10.078125 "/></clipPath><clipPath id="8e5baab2ab"><path d="M 84 10.078125 L 120 10.078125 L 120 71 L 84 71 Z M 84 10.078125 "/></clipPath><clipPath id="8ba5d6cdfa"><path d="M 216 10.078125 L 252 10.078125 L 252 71 L 216 71 Z M 216 10.078125 "/></clipPath><clipPath id="c4f0a09830"><path d="M 270 10.078125 L 306 10.078125 L 306 71 L 270 71 Z M 270 10.078125 "/></clipPath><clipPath id="514f76e0c5"><path d="M 192 181 L 384 181 L 384 373.828125 L 192 373.828125 Z M 192 181 "/></clipPath></defs><g id="18d1a55ef3"><path style=" stroke:none;fill-rule:nonzero;fill:#000000;fill-opacity:1;" d="M 276 46.488281 L 246 46.488281 C 242.6875 46.488281 240 43.800781 240 40.488281 C 240 37.175781 242.6875 34.492188 246 34.492188 L 276 34.492188 C 279.3125 34.492188 282 37.175781 282 40.488281 C 282 43.800781 279.3125 46.488281 276 46.488281 Z M 276 46.488281 "/><path style=" stroke:none;fill-rule:nonzero;fill:#000000;fill-opacity:1;" d="M 90 46.488281 L 60 46.488281 C 56.6875 46.488281 54 43.800781 54 40.488281 C 54 37.175781 56.6875 34.492188 60 34.492188 L 90 34.492188 C 93.3125 34.492188 96 37.175781 96 40.488281 C 96 43.800781 93.3125 46.488281 90 46.488281 Z M 90 46.488281 "/><path style=" stroke:none;fill-rule:nonzero;fill:#000000;fill-opacity:1;" d="M 330 204.703125 C 326.6875 204.703125 324 202.015625 324 198.703125 L 324 46.488281 L 300 46.488281 C 296.6875 46.488281 294 43.800781 294 40.488281 C 294 37.175781 296.6875 34.492188 300 34.492188 L 330 34.492188 C 333.3125 34.492188 336 37.175781 336 40.488281 L 336 198.703125 C 336 202.015625 333.3125 204.703125 330 204.703125 Z M 330 204.703125 "/><path style=" stroke:none;fill-rule:nonzero;fill:#000000;fill-opacity:1;" d="M 198 283.433594 L 6 283.433594 C 2.6875 283.433594 0 280.75 0 277.4375 L 0 40.488281 C 0 37.175781 2.6875 34.492188 6 34.492188 L 36 34.492188 C 39.3125 34.492188 42 37.175781 42 40.488281 C 42 43.800781 39.3125 46.488281 36 46.488281 L 12 46.488281 L 12 271.4375 L 198 271.4375 C 201.3125 271.4375 204 274.121094 204 277.4375 C 204 280.75 201.3125 283.433594 198 283.433594 Z M 198 283.433594 "/><path style=" stroke:none;fill-rule:nonzero;fill:#000000;fill-opacity:1;" d="M 222 46.488281 L 114 46.488281 C 110.6875 46.488281 108 43.800781 108 40.488281 C 108 37.175781 110.6875 34.492188 114 34.492188 L 222 34.492188 C 225.3125 34.492188 228 37.175781 228 40.488281 C 228 43.800781 225.3125 46.488281 222 46.488281 Z M 222 46.488281 "/><path style=" stroke:none;fill-rule:nonzero;fill:#000000;fill-opacity:1;" d="M 330 100.476562 L 6 100.476562 C 2.6875 100.476562 0 97.789062 0 94.476562 C 0 91.164062 2.6875 88.476562 6 88.476562 L 330 88.476562 C 333.3125 88.476562 336 91.164062 336 94.476562 C 336 97.789062 333.3125 100.476562 330 100.476562 Z M 330 100.476562 "/><g clip-rule="nonzero" clip-path="url(#acbc72479b)"><path style=" stroke:none;fill-rule:nonzero;fill:#000000;fill-opacity:1;" d="M 48 70.109375 C 38.074219 70.109375 30 62.035156 30 52.113281 L 30 28.117188 C 30 18.195312 38.074219 10.121094 48 10.121094 C 57.925781 10.121094 66 18.195312 66 28.117188 L 66 52.113281 C 66 62.035156 57.925781 70.109375 48 70.109375 Z M 48 22.117188 C 44.691406 22.117188 42 24.808594 42 28.117188 L 42 52.113281 C 42 55.417969 44.691406 58.109375 48 58.109375 C 51.308594 58.109375 54 55.417969 54 52.113281 L 54 28.117188 C 54 24.808594 51.308594 22.117188 48 22.117188 Z M 48 22.117188 "/></g><g clip-rule="nonzero" clip-path="url(#8e5baab2ab)"><path style=" stroke:none;fill-rule:nonzero;fill:#000000;fill-opacity:1;" d="M 102 70.109375 C 92.074219 70.109375 84 62.035156 84 52.113281 L 84 28.117188 C 84 18.195312 92.074219 10.121094 102 10.121094 C 111.925781 10.121094 120 18.195312 120 28.117188 L 120 52.113281 C 120 62.035156 111.925781 70.109375 102 70.109375 Z M 102 22.117188 C 98.691406 22.117188 96 24.808594 96 28.117188 L 96 52.113281 C 96 55.417969 98.691406 58.109375 102 58.109375 C 105.308594 58.109375 108 55.417969 108 52.113281 L 108 28.117188 C 108 24.808594 105.308594 22.117188 102 22.117188 Z M 102 22.117188 "/></g><g clip-rule="nonzero" clip-path="url(#8ba5d6cdfa)"><path style=" stroke:none;fill-rule:nonzero;fill:#000000;fill-opacity:1;" d="M 234 70.109375 C 224.074219 70.109375 216 62.035156 216 52.113281 L 216 28.117188 C 216 18.195312 224.074219 10.121094 234 10.121094 C 243.925781 10.121094 252 18.195312 252 28.117188 L 252 52.113281 C 252 62.035156 243.925781 70.109375 234 70.109375 Z M 234 22.117188 C 230.691406 22.117188 228 24.808594 228 28.117188 L 228 52.113281 C 228 55.417969 230.691406 58.109375 234 58.109375 C 237.308594 58.109375 240 55.417969 240 52.113281 L 240 28.117188 C 240 24.808594 237.308594 22.117188 234 22.117188 Z M 234 22.117188 "/></g><g clip-rule="nonzero" clip-path="url(#c4f0a09830)"><path style=" stroke:none;fill-rule:nonzero;fill:#000000;fill-opacity:1;" d="M 288 70.109375 C 278.074219 70.109375 270 62.035156 270 52.113281 L 270 28.117188 C 270 18.195312 278.074219 10.121094 288 10.121094 C 297.925781 10.121094 306 18.195312 306 28.117188 L 306 52.113281 C 306 62.035156 297.925781 70.109375 288 70.109375 Z M 288 22.117188 C 284.691406 22.117188 282 24.808594 282 28.117188 L 282 52.113281 C 282 55.417969 284.691406 58.109375 288 58.109375 C 291.308594 58.109375 294 55.417969 294 52.113281 L 294 28.117188 C 294 24.808594 291.308594 22.117188 288 22.117188 Z M 288 22.117188 "/></g><path style=" stroke:none;fill-rule:nonzero;fill:#000000;fill-opacity:1;" d="M 60 154.089844 L 36 154.089844 C 32.6875 154.089844 30 151.402344 30 148.089844 L 30 124.09375 C 30 120.78125 32.6875 118.097656 36 118.097656 L 60 118.097656 C 63.3125 118.097656 66 120.78125 66 124.09375 L 66 148.089844 C 66 151.402344 63.3125 154.089844 60 154.089844 Z M 42 142.089844 L 54 142.089844 L 54 130.09375 L 42 130.09375 Z M 42 142.089844 "/><path style=" stroke:none;fill-rule:nonzero;fill:#000000;fill-opacity:1;" d="M 108 154.089844 L 84 154.089844 C 80.6875 154.089844 78 151.402344 78 148.089844 L 78 124.09375 C 78 120.78125 80.6875 118.097656 84 118.097656 L 108 118.097656 C 111.3125 118.097656 114 120.78125 114 124.09375 L 114 148.089844 C 114 151.402344 111.3125 154.089844 108 154.089844 Z M 90 142.089844 L 102 142.089844 L 102 130.09375 L 90 130.09375 Z M 90 142.089844 "/><path style=" stroke:none;fill-rule:nonzero;fill:#000000;fill-opacity:1;" d="M 156 154.089844 L 132 154.089844 C 128.6875 154.089844 126 151.402344 126 148.089844 L 126 124.09375 C 126 120.78125 128.6875 118.097656 132 118.097656 L 156 118.097656 C 159.3125 118.097656 162 120.78125 162 124.09375 L 162 148.089844 C 162 151.402344 159.3125 154.089844 156 154.089844 Z M 138 142.089844 L 150 142.089844 L 150 130.09375 L 138 130.09375 Z M 138 142.089844 "/><path style=" stroke:none;fill-rule:nonzero;fill:#000000;fill-opacity:1;" d="M 204 154.089844 L 180 154.089844 C 176.6875 154.089844 174 151.402344 174 148.089844 L 174 124.09375 C 174 120.78125 176.6875 118.097656 180 118.097656 L 204 118.097656 C 207.3125 118.097656 210 120.78125 210 124.09375 L 210 148.089844 C 210 151.402344 207.3125 154.089844 204 154.089844 Z M 186 142.089844 L 198 142.089844 L 198 130.09375 L 186 130.09375 Z M 186 142.089844 "/><path style=" stroke:none;fill-rule:nonzero;fill:#000000;fill-opacity:1;" d="M 252 154.089844 L 228 154.089844 C 224.6875 154.089844 222 151.402344 222 148.089844 L 222 124.09375 C 222 120.78125 224.6875 118.097656 228 118.097656 L 252 118.097656 C 255.3125 118.097656 258 120.78125 258 124.09375 L 258 148.089844 C 258 151.402344 255.3125 154.089844 252 154.089844 Z M 234 142.089844 L 246 142.089844 L 246 130.09375 L 234 130.09375 Z M 234 142.089844 "/><path style=" stroke:none;fill-rule:nonzero;fill:#000000;fill-opacity:1;" d="M 300 154.089844 L 276 154.089844 C 272.6875 154.089844 270 151.402344 270 148.089844 L 270 124.09375 C 270 120.78125 272.6875 118.097656 276 118.097656 L 300 118.097656 C 303.3125 118.097656 306 120.78125 306 124.09375 L 306 148.089844 C 306 151.402344 303.3125 154.089844 300 154.089844 Z M 282 142.089844 L 294 142.089844 L 294 130.09375 L 282 130.09375 Z M 282 142.089844 "/><path style=" stroke:none;fill-rule:nonzero;fill:#000000;fill-opacity:1;" d="M 60 202.078125 L 36 202.078125 C 32.6875 202.078125 30 199.390625 30 196.078125 L 30 172.085938 C 30 168.773438 32.6875 166.085938 36 166.085938 L 60 166.085938 C 63.3125 166.085938 66 168.773438 66 172.085938 L 66 196.078125 C 66 199.390625 63.3125 202.078125 60 202.078125 Z M 42 190.082031 L 54 190.082031 L 54 178.082031 L 42 178.082031 Z M 42 190.082031 "/><path style=" stroke:none;fill-rule:nonzero;fill:#000000;fill-opacity:1;" d="M 156 202.078125 L 132 202.078125 C 128.6875 202.078125 126 199.390625 126 196.078125 L 126 172.085938 C 126 168.773438 128.6875 166.085938 132 166.085938 L 156 166.085938 C 159.3125 166.085938 162 168.773438 162 172.085938 L 162 196.078125 C 162 199.390625 159.3125 202.078125 156 202.078125 Z M 138 190.082031 L 150 190.082031 L 150 178.082031 L 138 178.082031 Z M 138 190.082031 "/><path style=" stroke:none;fill-rule:nonzero;fill:#000000;fill-opacity:1;" d="M 204 202.078125 L 180 202.078125 C 176.6875 202.078125 174 199.390625 174 196.078125 L 174 172.085938 C 174 168.773438 176.6875 166.085938 180 166.085938 L 204 166.085938 C 207.3125 166.085938 210 168.773438 210 172.085938 L 210 196.078125 C 210 199.390625 207.3125 202.078125 204 202.078125 Z M 186 190.082031 L 198 190.082031 L 198 178.082031 L 186 178.082031 Z M 186 190.082031 "/><path style=" stroke:none;fill-rule:nonzero;fill:#000000;fill-opacity:1;" d="M 60 250.066406 L 36 250.066406 C 32.6875 250.066406 30 247.382812 30 244.066406 L 30 220.074219 C 30 216.761719 32.6875 214.074219 36 214.074219 L 60 214.074219 C 63.3125 214.074219 66 216.761719 66 220.074219 L 66 244.066406 C 66 247.382812 63.3125 250.066406 60 250.066406 Z M 42 238.070312 L 54 238.070312 L 54 226.074219 L 42 226.074219 Z M 42 238.070312 "/><path style=" stroke:none;fill-rule:nonzero;fill:#000000;fill-opacity:1;" d="M 108 250.066406 L 84 250.066406 C 80.6875 250.066406 78 247.382812 78 244.066406 L 78 220.074219 C 78 216.761719 80.6875 214.074219 84 214.074219 L 108 214.074219 C 111.3125 214.074219 114 216.761719 114 220.074219 L 114 244.066406 C 114 247.382812 111.3125 250.066406 108 250.066406 Z M 90 238.070312 L 102 238.070312 L 102 226.074219 L 90 226.074219 Z M 90 238.070312 "/><path style=" stroke:none;fill-rule:nonzero;fill:#000000;fill-opacity:1;" d="M 156 250.066406 L 132 250.066406 C 128.6875 250.066406 126 247.382812 126 244.066406 L 126 220.074219 C 126 216.761719 128.6875 214.074219 132 214.074219 L 156 214.074219 C 159.3125 214.074219 162 216.761719 162 220.074219 L 162 244.066406 C 162 247.382812 159.3125 250.066406 156 250.066406 Z M 138 238.070312 L 150 238.070312 L 150 226.074219 L 138 226.074219 Z M 138 238.070312 "/><g clip-rule="nonzero" clip-path="url(#514f76e0c5)"><path style=" stroke:none;fill-rule:nonzero;fill:#000000;fill-opacity:1;" d="M 288 373.789062 C 235.066406 373.789062 192 330.734375 192 277.8125 C 192 224.886719 235.066406 181.832031 288 181.832031 C 303.613281 181.832031 319.105469 185.664062 332.804688 192.914062 C 364.382812 209.59375 384 242.125 384 277.8125 C 384 330.734375 340.933594 373.789062 288 373.789062 Z M 288 193.828125 C 241.683594 193.828125 204 231.503906 204 277.8125 C 204 324.117188 241.683594 361.792969 288 361.792969 C 334.316406 361.792969 372 324.117188 372 277.8125 C 372 246.585938 354.832031 218.117188 327.195312 203.519531 C 315.214844 197.179688 301.664062 193.828125 288 193.828125 Z M 288 193.828125 "/></g><path style=" stroke:none;fill-rule:nonzero;fill:#000000;fill-opacity:1;" d="M 279.152344 302.242188 C 277.613281 302.242188 276.078125 301.65625 274.90625 300.484375 L 253.695312 279.277344 C 251.351562 276.933594 251.351562 273.136719 253.695312 270.792969 C 256.039062 268.453125 259.835938 268.453125 262.179688 270.792969 L 279.152344 287.761719 L 325.820312 241.101562 C 328.164062 238.761719 331.960938 238.761719 334.304688 241.101562 C 336.648438 243.445312 336.648438 247.242188 334.304688 249.585938 L 283.394531 300.484375 C 282.222656 301.65625 280.6875 302.242188 279.152344 302.242188 Z M 279.152344 302.242188 "/><path style=" stroke:none;fill-rule:nonzero;fill:#000000;fill-opacity:1;" d="M 91.757812 197.933594 C 90.222656 197.933594 88.6875 197.347656 87.515625 196.175781 L 79.027344 187.691406 C 76.683594 185.347656 76.683594 181.550781 79.027344 179.207031 C 81.371094 176.867188 85.171875 176.867188 87.515625 179.207031 L 91.757812 183.449219 L 104.484375 170.726562 C 106.828125 168.382812 110.625 168.382812 112.96875 170.726562 C 115.3125 173.066406 115.3125 176.867188 112.96875 179.207031 L 96 196.175781 C 94.828125 197.34375 93.292969 197.933594 91.757812 197.933594 Z M 91.757812 197.933594 "/></g></svg>