<svg xmlns="http://www.w3.org/2000/svg" xmlns:xlink="http://www.w3.org/1999/xlink" width="512" zoomAndPan="magnify" viewBox="0 0 384 383.999986" height="512" preserveAspectRatio="xMidYMid meet" version="1.2"><defs><clipPath id="ff0dbb7181"><path d="M 0 1.199219 L 179 1.199219 L 179 181 L 0 181 Z M 0 1.199219 "/></clipPath><clipPath id="eacebd7cb6"><path d="M 205 1.199219 L 384 1.199219 L 384 181 L 205 181 Z M 205 1.199219 "/></clipPath><clipPath id="50ed46e39b"><path d="M 0 203 L 179 203 L 179 382.949219 L 0 382.949219 Z M 0 203 "/></clipPath><clipPath id="796cc66d2b"><path d="M 205 203 L 384 203 L 384 382.949219 L 205 382.949219 Z M 205 203 "/></clipPath></defs><g id="8a74187a83"><g clip-rule="nonzero" clip-path="url(#ff0dbb7181)"><path style=" stroke:none;fill-rule:nonzero;fill:#ffffff;fill-opacity:1;" d="M 146.3125 180.054688 L 32.402344 180.054688 C 14.546875 180.054688 0.0195312 165.527344 0.0195312 147.671875 L 0.0195312 33.761719 C 0.0195312 15.90625 14.546875 1.382812 32.402344 1.382812 L 146.3125 1.382812 C 164.167969 1.382812 178.695312 15.90625 178.695312 33.761719 L 178.695312 147.671875 C 178.695312 165.527344 164.167969 180.054688 146.3125 180.054688 Z M 32.402344 17.929688 C 23.671875 17.929688 16.570312 25.03125 16.570312 33.761719 L 16.570312 147.671875 C 16.570312 156.402344 23.671875 163.503906 32.402344 163.503906 L 146.3125 163.503906 C 155.042969 163.503906 162.144531 156.402344 162.144531 147.671875 L 162.144531 33.761719 C 162.144531 25.03125 155.042969 17.929688 146.3125 17.929688 Z M 32.402344 17.929688 "/></g><g clip-rule="nonzero" clip-path="url(#eacebd7cb6)"><path style=" stroke:none;fill-rule:nonzero;fill:#ffffff;fill-opacity:1;" d="M 351.679688 180.054688 L 237.773438 180.054688 C 219.914062 180.054688 205.390625 165.527344 205.390625 147.671875 L 205.390625 33.761719 C 205.390625 15.90625 219.914062 1.382812 237.773438 1.382812 L 351.679688 1.382812 C 369.535156 1.382812 384.0625 15.90625 384.0625 33.761719 L 384.0625 147.671875 C 384.0625 165.527344 369.535156 180.054688 351.679688 180.054688 Z M 237.773438 17.929688 C 229.039062 17.929688 221.9375 25.03125 221.9375 33.761719 L 221.9375 147.671875 C 221.9375 156.402344 229.039062 163.503906 237.773438 163.503906 L 351.679688 163.503906 C 360.410156 163.503906 367.511719 156.402344 367.511719 147.671875 L 367.511719 33.761719 C 367.511719 25.03125 360.410156 17.929688 351.679688 17.929688 Z M 237.773438 17.929688 "/></g><g clip-rule="nonzero" clip-path="url(#50ed46e39b)"><path style=" stroke:none;fill-rule:nonzero;fill:#ffffff;fill-opacity:1;" d="M 146.3125 382.617188 L 32.402344 382.617188 C 14.546875 382.617188 0.0195312 368.089844 0.0195312 350.234375 L 0.0195312 236.324219 C 0.0195312 218.46875 14.546875 203.945312 32.402344 203.945312 L 146.3125 203.945312 C 164.167969 203.945312 178.695312 218.46875 178.695312 236.324219 L 178.695312 350.234375 C 178.695312 368.089844 164.167969 382.617188 146.3125 382.617188 Z M 32.402344 220.492188 C 23.671875 220.492188 16.570312 227.59375 16.570312 236.324219 L 16.570312 350.234375 C 16.570312 358.964844 23.671875 366.066406 32.402344 366.066406 L 146.3125 366.066406 C 155.042969 366.066406 162.144531 358.964844 162.144531 350.234375 L 162.144531 236.324219 C 162.144531 227.59375 155.042969 220.492188 146.3125 220.492188 Z M 32.402344 220.492188 "/></g><g clip-rule="nonzero" clip-path="url(#796cc66d2b)"><path style=" stroke:none;fill-rule:nonzero;fill:#ffffff;fill-opacity:1;" d="M 351.679688 382.617188 L 237.773438 382.617188 C 219.914062 382.617188 205.390625 368.089844 205.390625 350.234375 L 205.390625 236.324219 C 205.390625 218.46875 219.914062 203.945312 237.773438 203.945312 L 351.679688 203.945312 C 369.535156 203.945312 384.0625 218.46875 384.0625 236.324219 L 384.0625 350.234375 C 384.0625 368.089844 369.535156 382.617188 351.679688 382.617188 Z M 237.773438 220.492188 C 229.039062 220.492188 221.9375 227.59375 221.9375 236.324219 L 221.9375 350.234375 C 221.9375 358.964844 229.039062 366.066406 237.773438 366.066406 L 351.679688 366.066406 C 360.410156 366.066406 367.511719 358.964844 367.511719 350.234375 L 367.511719 236.324219 C 367.511719 227.59375 360.410156 220.492188 351.679688 220.492188 Z M 237.773438 220.492188 "/></g></g></svg>