<svg xmlns="http://www.w3.org/2000/svg" xmlns:xlink="http://www.w3.org/1999/xlink" width="512" zoomAndPan="magnify" viewBox="0 0 384 383.999986" height="512" preserveAspectRatio="xMidYMid meet" version="1.0"><path fill="#fcf0e0" d="M 55.121094 207.199219 L 85.847656 207.199219 C 85.542969 202.210938 85.40625 197.144531 85.40625 192 C 85.40625 186.320312 85.582031 180.753906 85.90625 175.265625 L 48 175.265625 L 55.121094 142.636719 L 89.9375 142.636719 C 106.617188 55.632812 168.246094 0.0664062 253.691406 0.0664062 C 283.558594 0.0664062 311.636719 8.992188 335.992188 24.636719 L 327.105469 65.402344 C 306.226562 48.398438 280.929688 38.453125 253.691406 38.453125 C 179.742188 38.453125 142.601562 87.644531 129.476562 142.636719 L 310.273438 142.636719 L 303.152344 175.265625 L 124.425781 175.265625 C 124.003906 180.886719 123.792969 186.472656 123.792969 192 C 123.792969 197.066406 123.96875 202.152344 124.332031 207.199219 L 296.1875 207.199219 L 289.085938 239.828125 L 129.265625 239.828125 C 142.988281 297.582031 182.929688 345.546875 253.691406 345.546875 C 280.140625 345.546875 304.785156 336.140625 325.320312 320.019531 L 325.320312 365.640625 C 303.574219 377.367188 279.296875 383.933594 253.691406 383.933594 C 169.28125 383.933594 106.558594 326.660156 89.839844 239.828125 L 48 239.828125 L 55.121094 207.199219 " fill-opacity="1" fill-rule="nonzero"/></svg>