<svg xmlns="http://www.w3.org/2000/svg" xmlns:xlink="http://www.w3.org/1999/xlink" width="512" zoomAndPan="magnify" viewBox="0 0 384 383.999986" height="512" preserveAspectRatio="xMidYMid meet" version="1.0"><defs><clipPath id="4a979e4ae2"><path d="M 15.359375 1 L 368 1 L 368 384 L 15.359375 384 Z M 15.359375 1 " clip-rule="nonzero"/></clipPath></defs><g clip-path="url(#4a979e4ae2)"><path fill="#ffffff" d="M 191.929688 101.828125 C 250.527344 101.828125 298.015625 149.335938 298.015625 207.914062 C 298.015625 266.492188 250.527344 313.996094 191.929688 313.996094 C 133.335938 313.996094 85.847656 266.492188 85.847656 207.914062 C 85.847656 149.316406 133.335938 101.828125 191.929688 101.828125 Z M 257.015625 63.8125 C 252.507812 61.777344 250.488281 56.46875 252.527344 51.960938 C 254.5625 47.453125 259.871094 45.433594 264.378906 47.46875 C 295.394531 61.503906 321.613281 84.265625 339.921875 112.609375 C 357.648438 140.082031 367.9375 172.808594 367.9375 207.914062 C 367.9375 256.511719 348.246094 300.527344 316.394531 332.378906 C 284.542969 364.230469 240.527344 383.9375 191.929688 383.9375 C 143.332031 383.9375 99.320312 364.230469 67.464844 332.378906 C 35.613281 300.527344 15.925781 256.527344 15.925781 207.914062 C 15.925781 159.296875 35.613281 115.300781 67.464844 83.449219 C 95.007812 55.90625 131.625 37.453125 172.460938 32.960938 L 156.769531 16 C 153.425781 12.382812 153.640625 6.726562 157.261719 3.382812 C 160.878906 0.0351562 166.53125 0.253906 169.878906 3.871094 L 197.894531 34.160156 C 199.75 35.816406 200.910156 38.199219 200.910156 40.871094 C 200.910156 43.289062 199.964844 45.46875 198.421875 47.085938 L 173.058594 78.160156 C 169.933594 81.996094 164.3125 82.578125 160.460938 79.449219 C 156.625 76.339844 156.042969 70.703125 159.167969 66.867188 L 172.039062 51.085938 C 136.351562 55.558594 104.355469 71.957031 80.15625 96.140625 C 51.558594 124.738281 33.867188 164.261719 33.867188 207.914062 C 33.867188 251.566406 51.558594 291.070312 80.15625 319.6875 C 108.753906 348.285156 148.277344 365.976562 191.929688 365.976562 C 235.582031 365.976562 275.089844 348.285156 303.703125 319.6875 C 332.304688 291.089844 349.992188 251.566406 349.992188 207.914062 C 349.992188 176.351562 340.757812 146.953125 324.847656 122.300781 C 308.414062 96.847656 284.871094 76.414062 257.015625 63.8125 Z M 182.949219 140.28125 C 182.949219 135.335938 186.96875 131.300781 191.929688 131.300781 C 196.894531 131.300781 200.910156 135.316406 200.910156 140.28125 L 200.910156 198.933594 L 244.507812 198.933594 C 249.472656 198.933594 253.488281 202.949219 253.488281 207.914062 C 253.488281 212.859375 249.472656 216.894531 244.507812 216.894531 L 191.929688 216.894531 C 186.96875 216.894531 182.949219 212.875 182.949219 207.914062 Z M 182.949219 140.28125 " fill-opacity="1" fill-rule="evenodd"/></g></svg>