<svg xmlns="http://www.w3.org/2000/svg" xmlns:xlink="http://www.w3.org/1999/xlink" width="512" zoomAndPan="magnify" viewBox="0 0 384 383.999986" height="512" preserveAspectRatio="xMidYMid meet" version="1.0"><defs><clipPath id="76fb14ac1d"><path d="M 79.199219 6 L 186 6 L 186 384 L 79.199219 384 Z M 79.199219 6 " clip-rule="nonzero"/></clipPath><clipPath id="ca37717e90"><path d="M 227 2 L 304.949219 2 L 304.949219 380 L 227 380 Z M 227 2 " clip-rule="nonzero"/></clipPath></defs><g clip-path="url(#76fb14ac1d)"><path fill="#000000" d="M 91.515625 6.230469 C 88.730469 6.402344 86.53125 8.648438 86.402344 11.441406 L 79.835938 131.066406 C 79.152344 143.363281 83.792969 152.539062 90.136719 158.675781 C 95.550781 163.890625 101.746094 166.8125 107.261719 169.75 L 99.65625 351.683594 C 98.910156 369.644531 114.5 383.847656 132.480469 383.847656 C 150.472656 383.847656 166.042969 369.644531 165.292969 351.683594 L 157.667969 169.75 C 163.214844 166.820312 169.433594 163.890625 174.84375 158.675781 C 181.1875 152.539062 185.769531 143.363281 185.121094 131.066406 L 178.574219 11.441406 C 178.398438 8.429688 175.820312 6.128906 172.8125 6.304688 C 169.804688 6.457031 167.496094 9.035156 167.671875 12.042969 L 174.242188 131.671875 C 174.765625 141.214844 171.835938 146.375 167.246094 150.816406 C 162.632812 155.269531 155.964844 158.53125 149.472656 162.082031 C 147.640625 163.0625 146.539062 165.011719 146.640625 167.070312 L 154.386719 352.105469 C 154.863281 363.484375 144.8125 372.949219 132.480469 372.949219 C 120.167969 372.949219 110.085938 363.484375 110.570312 352.105469 L 118.3125 167.070312 C 118.410156 165.011719 117.308594 163.085938 115.503906 162.082031 C 109.003906 158.527344 102.3125 155.269531 97.707031 150.816406 C 93.089844 146.375 90.207031 141.214844 90.734375 131.671875 L 97.273438 12.042969 C 97.503906 8.78125 94.804688 6.046875 91.515625 6.230469 Z M 91.515625 6.230469 " fill-opacity="1" fill-rule="evenodd"/></g><path fill="#000000" d="M 118.84375 6.230469 C 115.835938 6.273438 113.429688 8.757812 113.476562 11.761719 L 113.476562 105.613281 C 113.351562 108.722656 115.835938 111.269531 118.941406 111.269531 C 122.023438 111.269531 124.511719 108.714844 124.382812 105.613281 L 124.382812 11.761719 C 124.433594 8.679688 121.925781 6.179688 118.84375 6.230469 Z M 118.84375 6.230469 " fill-opacity="1" fill-rule="evenodd"/><path fill="#000000" d="M 145.96875 6.230469 C 142.941406 6.25 140.503906 8.726562 140.550781 11.761719 L 140.550781 105.613281 C 140.550781 108.640625 143.003906 111.101562 146.015625 111.101562 C 149.050781 111.101562 151.511719 108.644531 151.511719 105.613281 L 151.511719 11.761719 C 151.554688 8.679688 149.050781 6.179688 145.96875 6.230469 Z M 145.96875 6.230469 " fill-opacity="1" fill-rule="evenodd"/><g clip-path="url(#ca37717e90)"><path fill="#000000" d="M 243.511719 13.261719 C 246.148438 12.4375 251.714844 13.789062 258.050781 20.078125 C 273.242188 35.160156 294.152344 64.324219 294.152344 114.878906 C 294.152344 161.480469 283.722656 188.738281 269.257812 203.09375 C 268.128906 204.21875 267.554688 205.773438 267.679688 207.378906 L 278.433594 352.082031 C 278.886719 358.046875 276.855469 361.703125 273.34375 364.535156 C 269.859375 367.363281 264.523438 369.046875 259.023438 369.046875 C 253.539062 369.074219 248.050781 367.421875 244.210938 364.515625 C 240.398438 361.585938 238.042969 357.75 238.042969 351.6875 L 238.042969 27.269531 C 238.042969 22.304688 238.898438 18.78125 240.003906 16.625 C 241.085938 14.496094 242.183594 13.667969 243.511719 13.261719 Z M 240.230469 2.84375 C 236.023438 4.199219 232.460938 7.433594 230.296875 11.660156 C 228.117188 15.894531 227.117188 21.085938 227.117188 27.273438 L 227.117188 351.683594 C 227.117188 360.925781 231.453125 368.519531 237.625 373.203125 C 243.765625 377.894531 251.464844 379.972656 259.082031 379.945312 C 266.679688 379.914062 274.351562 377.789062 280.242188 373.007812 C 286.160156 368.195312 290 360.457031 289.320312 351.308594 L 278.664062 207.859375 C 294.835938 190.195312 305.0625 161.109375 305.0625 114.886719 C 305.0625 61.300781 282.453125 28.957031 265.75 12.375 C 257.800781 4.476562 248.703125 0.1875 240.230469 2.84375 Z M 240.230469 2.84375 " fill-opacity="1" fill-rule="evenodd"/></g></svg>