<svg xmlns="http://www.w3.org/2000/svg" xmlns:xlink="http://www.w3.org/1999/xlink" width="512" zoomAndPan="magnify" viewBox="0 0 384 383.999986" height="512" preserveAspectRatio="xMidYMid meet" version="1.2"><defs><clipPath id="58d82e3f05"><path d="M 0 17.519531 L 383.25 17.519531 L 383.25 363 L 0 363 Z M 0 17.519531 "/></clipPath></defs><g id="1c0c1a1082"><g clip-rule="nonzero" clip-path="url(#58d82e3f05)"><path style=" stroke:none;fill-rule:nonzero;fill:#000000;fill-opacity:1;" d="M 260.980469 296.511719 C 258.410156 294.617188 257.847656 291.027344 259.742188 288.457031 C 261.613281 285.886719 265.207031 285.351562 267.777344 287.222656 C 268.222656 287.550781 268.691406 287.832031 269.179688 288.085938 C 269.152344 286.777344 269.179688 285.402344 269.269531 284.003906 C 251.542969 282.109375 240.75 286.777344 235.261719 294.414062 C 230.871094 300.507812 229.660156 308.652344 230.871094 316.871094 C 232.105469 325.34375 235.9375 333.871094 241.640625 340.308594 C 249.441406 349.136719 260.816406 353.875 273.457031 348.644531 C 274.832031 348.082031 276.398438 348.035156 277.871094 348.644531 C 290.53125 353.875 301.910156 349.136719 309.714844 340.308594 C 315.339844 333.933594 319.222656 325.394531 320.484375 316.871094 C 321.695312 308.652344 320.484375 300.507812 316.089844 294.414062 C 310.464844 286.613281 299.296875 281.878906 280.824219 284.140625 C 280.683594 285.773438 280.65625 287.296875 280.757812 288.695312 C 281.785156 288.324219 282.71875 287.832031 283.558594 287.222656 C 286.128906 285.351562 289.722656 285.886719 291.617188 288.457031 C 293.488281 291.027344 292.925781 294.617188 290.382812 296.511719 C 282.035156 302.597656 269.320312 302.597656 260.980469 296.511719 Z M 271.164062 272.628906 C 272.375 267.933594 274.132812 262.777344 276.421875 257.21875 C 277.632812 254.28125 280.980469 252.878906 283.921875 254.066406 C 286.863281 255.277344 288.261719 258.644531 287.050781 261.585938 C 285.488281 265.414062 284.199219 268.988281 283.195312 272.324219 C 289.574219 271.8125 295.277344 272.070312 300.320312 272.957031 C 303.796875 261.824219 303.425781 257.082031 303.425781 246.136719 L 55.359375 246.136719 L 55.359375 254.890625 C 55.359375 285.03125 88.222656 336.289062 125.945312 336.289062 L 225.175781 336.289062 C 217.535156 321.277344 215.878906 301.644531 225.925781 287.707031 C 233.769531 276.804688 248.257812 270.011719 271.164062 272.628906 Z M 311.320312 276.269531 C 327.832031 283.789062 334.351562 300.5 331.96875 317.964844 L 349.136719 317.964844 C 361.5625 317.964844 371.722656 307.785156 371.722656 295.367188 L 371.722656 184.640625 C 367.214844 184.640625 362.707031 186.292969 359.765625 189.636719 C 349.324219 201.496094 329.398438 201.753906 318.488281 189.664062 L 318.515625 189.636719 C 312.25 182.84375 300.433594 183.074219 294.617188 189.613281 C 285.742188 199.5625 270.25 201.398438 259.066406 194.488281 C 258.277344 196.613281 257.082031 198.550781 255.425781 200.953125 L 309.195312 200.953125 C 312.390625 200.953125 314.960938 203.523438 314.960938 206.71875 L 314.960938 254.882812 C 314.960938 261.789062 313.496094 269.308594 311.320312 276.269531 Z M 329.09375 329.496094 C 326.664062 336.242188 322.972656 342.617188 318.300781 347.917969 C 307.910156 359.703125 292.769531 366.175781 275.671875 360.132812 C 258.574219 366.175781 243.4375 359.710938 233.019531 347.917969 L 232.929688 347.828125 L 125.945312 347.828125 C 105.128906 347.828125 86.261719 335.738281 71.871094 319.300781 C 54.707031 299.742188 43.820312 273.660156 43.820312 254.890625 L 43.820312 207.3125 C 34.246094 197.503906 28.378906 184.152344 21.960938 169.445312 C 16.613281 157.257812 10.820312 144.046875 2.25 131.691406 C -0.71875 127.796875 1.664062 123.054688 5.710938 122.351562 C 24.351562 119.082031 43.691406 122.238281 60.320312 131.460938 C 57.847656 119.792969 60.015625 109.027344 75.085938 109.308594 C 75.925781 105.273438 77.300781 100.160156 79.171875 95.539062 C 82.75 86.691406 88.328125 79.265625 96.691406 80.292969 L 96.714844 80.292969 C 99.632812 80.648438 102.230469 82.1875 104.28125 84.542969 C 115.703125 71.210938 136.542969 71.65625 147.328125 85.597656 C 151.628906 91.132812 153.824219 98.320312 152.933594 105.816406 C 167.113281 107.824219 172.347656 114.546875 171.992188 125.097656 C 171.902344 127.828125 171.339844 130.792969 170.378906 133.964844 C 176.730469 134.03125 183.058594 136.039062 188.339844 139.730469 C 200.652344 127.285156 219.917969 126.800781 229.964844 140.898438 C 230.828125 116.480469 247.710938 95.472656 270.957031 88.957031 L 270.957031 62.605469 C 268.246094 62.605469 266.238281 62.324219 264.136719 60.222656 C 262.660156 58.75 261.753906 56.722656 261.753906 54.523438 L 261.753906 25.632812 C 261.753906 21.195312 265.421875 17.554688 269.839844 17.554688 L 343.367188 17.554688 C 345.582031 17.554688 347.59375 18.46875 349.070312 19.910156 L 349.042969 19.933594 C 350.519531 21.410156 351.425781 23.410156 351.425781 25.632812 L 351.425781 54.507812 C 351.425781 58.921875 347.808594 62.585938 343.367188 62.585938 L 342.222656 62.585938 L 342.222656 88.941406 C 366.144531 95.621094 383.257812 117.660156 383.257812 142.894531 L 383.257812 295.359375 C 383.257812 314.152344 367.914062 329.488281 349.136719 329.488281 L 329.09375 329.488281 Z M 84.296875 293.664062 C 82.78125 290.886719 83.789062 287.378906 86.566406 285.863281 C 89.316406 284.324219 92.828125 285.351562 94.34375 288.105469 C 102.378906 302.648438 116.066406 313.640625 131.761719 319.992188 C 134.703125 321.1875 136.128906 324.546875 134.945312 327.488281 C 133.730469 330.425781 130.386719 331.851562 127.421875 330.65625 C 109.265625 323.3125 93.667969 310.5625 84.296875 293.664062 Z M 53.75 200.953125 L 73.445312 200.953125 C 71.601562 200.558594 69.984375 199.25 69.269531 197.355469 C 62.683594 180.152344 52.753906 165.746094 38.367188 154.890625 C 35.820312 152.980469 35.308594 149.359375 37.222656 146.8125 C 39.132812 144.292969 42.757812 143.78125 45.304688 145.691406 C 61.308594 157.765625 72.753906 174.195312 80.039062 193.269531 C 81.300781 196.539062 79.265625 200.230469 75.859375 200.953125 L 91.535156 200.953125 C 91.417969 198.6875 91.230469 196.425781 90.921875 194.183594 C 90.710938 193.574219 90.617188 192.949219 90.617188 192.316406 C 89.804688 187.273438 88.425781 182.300781 86.507812 177.492188 C 82.957031 168.597656 77.535156 160.261719 70.222656 153.097656 C 55.859375 138.972656 36.496094 131.707031 16.597656 132.695312 C 23.179688 143.578125 27.992188 154.570312 32.5 164.867188 C 38.894531 179.460938 44.636719 192.601562 53.75 200.953125 Z M 116.890625 200.953125 L 124.832031 200.953125 C 130.980469 186.738281 138.050781 173.660156 144.335938 162.058594 C 148.960938 153.515625 160.199219 134.023438 160.503906 124.707031 C 160.671875 119.921875 156.671875 117.097656 145.648438 116.703125 C 141.46875 116.613281 138.875 112.453125 140.390625 108.789062 C 144.476562 98.863281 138.058594 87.78125 127.453125 86.421875 C 119.1875 85.367188 111.382812 90.835938 109.605469 98.652344 C 108.253906 105.074219 99.558594 104.769531 98.300781 98.816406 C 97.574219 95.40625 96.875 93.703125 95.308594 91.714844 C 93.675781 91.550781 91.640625 95.355469 89.84375 99.796875 C 87.324219 106.03125 86.011719 112.46875 85.542969 116.273438 L 85.519531 116.273438 C 85.097656 119.710938 81.902344 122.066406 77.996094 121.035156 L 77.996094 121.011719 C 73.230469 120.425781 71.195312 121.101562 70.992188 122.804688 C 70.453125 126.777344 72.507812 133.660156 75.6875 142.441406 C 76.578125 143.230469 77.441406 144.054688 78.28125 144.894531 C 90.570312 156.941406 98.578125 172.210938 101.660156 188.691406 C 103.390625 189.722656 105 190.882812 106.425781 192.167969 L 110.699219 158.6875 C 109.578125 152.546875 106.21875 148.164062 100.589844 145.542969 C 97.714844 144.195312 96.476562 140.785156 97.8125 137.910156 C 99.164062 135.035156 102.574219 133.777344 105.453125 135.136719 C 108.367188 136.484375 110.914062 138.148438 113.089844 140.058594 L 115.003906 124.957031 C 115.398438 121.800781 118.273438 119.585938 121.429688 119.980469 C 124.585938 120.375 126.800781 123.25 126.40625 126.40625 L 125.871094 130.746094 C 128.46875 129.410156 131.335938 128.429688 134.492188 127.855469 C 137.621094 127.292969 140.613281 129.34375 141.199219 132.476562 C 141.757812 135.605469 139.707031 138.59375 136.574219 139.179688 C 133.351562 139.761719 130.640625 140.949219 128.46875 142.726562 C 126.429688 144.359375 124.773438 146.558594 123.488281 149.308594 L 121.578125 164.363281 C 124.171875 163.027344 127.066406 162.074219 130.222656 161.464844 C 133.328125 160.90625 136.34375 162.953125 136.90625 166.085938 C 137.488281 169.214844 135.414062 172.203125 132.28125 172.789062 C 129.085938 173.375 126.375 174.558594 124.171875 176.335938 C 122.136719 177.96875 120.480469 180.167969 119.195312 182.917969 Z M 137.414062 200.953125 L 240.914062 200.953125 C 243.039062 198.359375 246.964844 193.34375 248.042969 191.03125 C 251.542969 183.488281 247.53125 168.226562 238.113281 163.851562 C 235.757812 162.757812 232.410156 161.867188 229.847656 161.917969 C 226.691406 162.148438 223.964844 159.792969 223.699219 156.636719 C 222.367188 139.78125 203.824219 136.519531 193.804688 151.105469 C 191.726562 154.117188 187.402344 154.488281 184.878906 151.828125 C 179.953125 146.648438 172.617188 144.410156 165.65625 145.949219 C 162.625 152.460938 158.71875 159.652344 154.464844 167.492188 C 149 177.640625 142.902344 188.890625 137.414062 200.953125 Z M 303.425781 212.492188 L 55.359375 212.492188 L 55.359375 234.597656 L 303.425781 234.597656 Z M 78.085938 121.042969 L 77.996094 121.019531 L 77.996094 121.042969 C 78.042969 121.042969 78.183594 121.042969 78.085938 121.042969 Z M 170.863281 176.117188 C 167.988281 177.492188 164.558594 176.304688 163.175781 173.429688 C 161.800781 170.582031 162.984375 167.128906 165.863281 165.746094 C 176.277344 160.707031 188.820312 163.53125 196.0625 172.542969 C 198.046875 175.011719 197.675781 178.636719 195.195312 180.621094 C 192.726562 182.605469 189.074219 182.234375 187.089844 179.753906 C 183.199219 174.90625 176.476562 173.390625 170.863281 176.117188 Z M 212.585938 170.746094 C 209.476562 169.972656 207.605469 166.851562 208.382812 163.761719 C 209.15625 160.683594 212.28125 158.8125 215.371094 159.585938 C 228.027344 162.757812 236.019531 175.367188 233.523438 188.179688 C 232.914062 191.285156 229.878906 193.335938 226.75 192.710938 C 223.644531 192.101562 221.589844 189.09375 222.191406 185.964844 C 223.542969 179.128906 219.332031 172.476562 212.585938 170.746094 Z M 241.457031 152.777344 C 259.117188 159.898438 260.46875 180.4375 260.542969 180.605469 L 261.96875 182.09375 L 261.96875 182.070312 C 267.644531 188.535156 279.675781 189.054688 286.003906 181.953125 C 296.398438 170.285156 316.371094 170.046875 327.042969 181.953125 L 327.066406 181.953125 C 333.355469 188.9375 345.261719 188.675781 351.128906 182.019531 C 356.222656 176.230469 363.949219 173.101562 371.730469 173.101562 L 371.730469 142.894531 C 371.730469 132.128906 367.875 122.230469 361.496094 114.554688 C 355.050781 106.78125 346.027344 101.21875 335.777344 99.21875 C 332.902344 98.890625 330.683594 96.445312 330.683594 93.503906 L 330.683594 62.59375 L 282.496094 62.59375 L 282.496094 93.503906 C 282.496094 96.214844 280.558594 98.644531 277.796875 99.152344 C 256.941406 103.050781 241.449219 121.398438 241.449219 142.902344 L 241.449219 152.777344 Z M 273.289062 51.058594 L 339.890625 51.058594 L 339.890625 29.09375 L 273.289062 29.09375 Z M 273.289062 51.058594 "/></g></g></svg>