<svg xmlns="http://www.w3.org/2000/svg" xmlns:xlink="http://www.w3.org/1999/xlink" width="512" zoomAndPan="magnify" viewBox="0 0 384 383.999986" height="512" preserveAspectRatio="xMidYMid meet" version="1.2"><defs><clipPath id="800cf8de7d"><path d="M 0 17.519531 L 383.25 17.519531 L 383.25 363 L 0 363 Z M 0 17.519531 "/></clipPath></defs><g id="7472c0d820"><g clip-rule="nonzero" clip-path="url(#800cf8de7d)"><path style=" stroke:none;fill-rule:nonzero;fill:#ffffff;fill-opacity:1;" d="M 260.832031 296.511719 C 258.261719 294.617188 257.699219 291.027344 259.59375 288.457031 C 261.464844 285.886719 265.054688 285.351562 267.625 287.222656 C 268.070312 287.550781 268.539062 287.832031 269.023438 288.085938 C 269 286.777344 269.023438 285.402344 269.117188 284.003906 C 251.402344 282.109375 240.613281 286.777344 235.125 294.414062 C 230.738281 300.507812 229.527344 308.652344 230.738281 316.871094 C 231.972656 325.34375 235.800781 333.871094 241.5 340.308594 C 249.300781 349.136719 260.664062 353.875 273.300781 348.644531 C 274.675781 348.082031 276.238281 348.035156 277.714844 348.644531 C 290.363281 353.875 301.738281 349.136719 309.535156 340.308594 C 315.160156 333.933594 319.039062 325.394531 320.300781 316.871094 C 321.511719 308.652344 320.300781 300.507812 315.910156 294.414062 C 310.285156 286.613281 299.125 281.878906 280.660156 284.140625 C 280.523438 285.773438 280.496094 287.296875 280.597656 288.695312 C 281.625 288.324219 282.554688 287.832031 283.394531 287.222656 C 285.964844 285.351562 289.554688 285.886719 291.449219 288.457031 C 293.320312 291.027344 292.761719 294.617188 290.214844 296.511719 C 281.871094 302.597656 269.164062 302.597656 260.832031 296.511719 Z M 271.007812 272.628906 C 272.21875 267.933594 273.972656 262.777344 276.265625 257.21875 C 277.472656 254.28125 280.816406 252.878906 283.757812 254.066406 C 286.699219 255.277344 288.097656 258.644531 286.886719 261.585938 C 285.324219 265.414062 284.039062 268.988281 283.035156 272.324219 C 289.40625 271.8125 295.105469 272.070312 300.148438 272.957031 C 303.621094 261.824219 303.253906 257.082031 303.253906 246.136719 L 55.328125 246.136719 L 55.328125 254.890625 C 55.328125 285.03125 88.171875 336.289062 125.871094 336.289062 L 225.046875 336.289062 C 217.410156 321.277344 215.757812 301.644531 225.796875 287.707031 C 233.636719 276.804688 248.113281 270.011719 271.007812 272.628906 Z M 311.140625 276.269531 C 327.644531 283.789062 334.160156 300.5 331.78125 317.964844 L 348.933594 317.964844 C 361.355469 317.964844 371.507812 307.785156 371.507812 295.367188 L 371.507812 184.640625 C 367.003906 184.640625 362.5 186.292969 359.558594 189.636719 C 349.125 201.496094 329.210938 201.753906 318.308594 189.664062 L 318.332031 189.636719 C 312.074219 182.84375 300.261719 183.074219 294.449219 189.613281 C 285.578125 199.5625 270.09375 201.398438 258.917969 194.488281 C 258.128906 196.613281 256.933594 198.550781 255.28125 200.953125 L 309.015625 200.953125 C 312.210938 200.953125 314.78125 203.523438 314.78125 206.71875 L 314.78125 254.882812 C 314.78125 261.789062 313.316406 269.308594 311.140625 276.269531 Z M 328.90625 329.496094 C 326.476562 336.242188 322.785156 342.617188 318.117188 347.917969 C 307.730469 359.703125 292.601562 366.175781 275.515625 360.132812 C 258.425781 366.175781 243.296875 359.710938 232.886719 347.917969 L 232.796875 347.828125 L 125.871094 347.828125 C 105.070312 347.828125 86.210938 335.738281 71.832031 319.300781 C 54.675781 299.742188 43.796875 273.660156 43.796875 254.890625 L 43.796875 207.3125 C 34.226562 197.503906 28.363281 184.152344 21.949219 169.445312 C 16.601562 157.257812 10.8125 144.046875 2.246094 131.691406 C -0.71875 127.796875 1.664062 123.054688 5.707031 122.351562 C 24.335938 119.082031 43.664062 122.238281 60.285156 131.460938 C 57.8125 119.792969 59.980469 109.027344 75.042969 109.308594 C 75.882812 105.273438 77.257812 100.160156 79.128906 95.539062 C 82.703125 86.691406 88.277344 79.265625 96.636719 80.292969 L 96.660156 80.292969 C 99.578125 80.648438 102.171875 82.1875 104.222656 84.542969 C 115.636719 71.210938 136.464844 71.65625 147.246094 85.597656 C 151.542969 91.132812 153.734375 98.320312 152.84375 105.816406 C 167.019531 107.824219 172.246094 114.546875 171.894531 125.097656 C 171.804688 127.828125 171.242188 130.792969 170.28125 133.964844 C 176.628906 134.03125 182.953125 136.039062 188.234375 139.730469 C 200.539062 127.285156 219.792969 126.800781 229.832031 140.898438 C 230.695312 116.480469 247.570312 95.472656 270.804688 88.957031 L 270.804688 62.605469 C 268.09375 62.605469 266.085938 62.324219 263.984375 60.222656 C 262.511719 58.75 261.605469 56.722656 261.605469 54.523438 L 261.605469 25.632812 C 261.605469 21.195312 265.269531 17.554688 269.683594 17.554688 L 343.171875 17.554688 C 345.386719 17.554688 347.394531 18.46875 348.871094 19.910156 L 348.84375 19.933594 C 350.320312 21.410156 351.226562 23.410156 351.226562 25.632812 L 351.226562 54.507812 C 351.226562 58.921875 347.609375 62.585938 343.171875 62.585938 L 342.027344 62.585938 L 342.027344 88.941406 C 365.933594 95.621094 383.039062 117.660156 383.039062 142.894531 L 383.039062 295.359375 C 383.039062 314.152344 367.703125 329.488281 348.933594 329.488281 L 328.90625 329.488281 Z M 84.25 293.664062 C 82.734375 290.886719 83.738281 287.378906 86.515625 285.863281 C 89.265625 284.324219 92.773438 285.351562 94.289062 288.105469 C 102.320312 302.648438 116 313.640625 131.6875 319.992188 C 134.628906 321.1875 136.050781 324.546875 134.867188 327.488281 C 133.65625 330.425781 130.3125 331.851562 127.347656 330.65625 C 109.203125 323.3125 93.613281 310.5625 84.25 293.664062 Z M 53.71875 200.953125 L 73.402344 200.953125 C 71.558594 200.558594 69.945312 199.25 69.226562 197.355469 C 62.648438 180.152344 52.722656 165.746094 38.34375 154.890625 C 35.800781 152.980469 35.289062 149.359375 37.199219 146.8125 C 39.109375 144.292969 42.734375 143.78125 45.277344 145.691406 C 61.273438 157.765625 72.710938 174.195312 79.992188 193.269531 C 81.253906 196.539062 79.21875 200.230469 75.816406 200.953125 L 91.480469 200.953125 C 91.367188 198.6875 91.175781 196.425781 90.871094 194.183594 C 90.65625 193.574219 90.566406 192.949219 90.566406 192.316406 C 89.75 187.273438 88.375 182.300781 86.457031 177.492188 C 82.90625 168.597656 77.488281 160.261719 70.183594 153.097656 C 55.828125 138.972656 36.476562 131.707031 16.585938 132.695312 C 23.167969 143.578125 27.976562 154.570312 32.480469 164.867188 C 38.871094 179.460938 44.613281 192.601562 53.71875 200.953125 Z M 116.820312 200.953125 L 124.761719 200.953125 C 130.90625 186.738281 137.972656 173.660156 144.253906 162.058594 C 148.875 153.515625 160.109375 134.023438 160.414062 124.707031 C 160.578125 119.921875 156.582031 117.097656 145.5625 116.703125 C 141.390625 116.613281 138.792969 112.453125 140.308594 108.789062 C 144.394531 98.863281 137.980469 87.78125 127.378906 86.421875 C 119.121094 85.367188 111.320312 90.835938 109.542969 98.652344 C 108.191406 105.074219 99.503906 104.769531 98.242188 98.816406 C 97.519531 95.40625 96.816406 93.703125 95.253906 91.714844 C 93.621094 91.550781 91.589844 95.355469 89.792969 99.796875 C 87.273438 106.03125 85.964844 112.46875 85.492188 116.273438 L 85.46875 116.273438 C 85.050781 119.710938 81.851562 122.066406 77.949219 121.035156 L 77.949219 121.011719 C 73.191406 120.425781 71.15625 121.101562 70.949219 122.804688 C 70.414062 126.777344 72.464844 133.660156 75.644531 142.441406 C 76.535156 143.230469 77.398438 144.054688 78.238281 144.894531 C 90.515625 156.941406 98.523438 172.210938 101.601562 188.691406 C 103.332031 189.722656 104.9375 190.882812 106.363281 192.167969 L 110.636719 158.6875 C 109.515625 152.546875 106.15625 148.164062 100.53125 145.542969 C 97.65625 144.195312 96.421875 140.785156 97.757812 137.910156 C 99.105469 135.035156 102.515625 133.777344 105.390625 135.136719 C 108.304688 136.484375 110.851562 138.148438 113.023438 140.058594 L 114.9375 124.957031 C 115.332031 121.800781 118.207031 119.585938 121.359375 119.980469 C 124.515625 120.375 126.730469 123.25 126.335938 126.40625 L 125.796875 130.746094 C 128.394531 129.410156 131.257812 128.429688 134.414062 127.855469 C 137.542969 127.292969 140.53125 129.34375 141.117188 132.476562 C 141.675781 135.605469 139.625 138.59375 136.496094 139.179688 C 133.277344 139.761719 130.566406 140.949219 128.394531 142.726562 C 126.359375 144.359375 124.703125 146.558594 123.417969 149.308594 L 121.507812 164.363281 C 124.101562 163.027344 126.992188 162.074219 130.148438 161.464844 C 133.253906 160.90625 136.265625 162.953125 136.828125 166.085938 C 137.410156 169.214844 135.335938 172.203125 132.207031 172.789062 C 129.011719 173.375 126.300781 174.558594 124.101562 176.335938 C 122.066406 177.96875 120.414062 180.167969 119.128906 182.917969 Z M 137.335938 200.953125 L 240.777344 200.953125 C 242.902344 198.359375 246.820312 193.34375 247.902344 191.03125 C 251.402344 183.488281 247.390625 168.226562 237.976562 163.851562 C 235.621094 162.757812 232.277344 161.867188 229.714844 161.917969 C 226.5625 162.148438 223.835938 159.792969 223.574219 156.636719 C 222.238281 139.78125 203.707031 136.519531 193.695312 151.105469 C 191.617188 154.117188 187.292969 154.488281 184.773438 151.828125 C 179.847656 146.648438 172.519531 144.410156 165.558594 145.949219 C 162.53125 152.460938 158.625 159.652344 154.375 167.492188 C 148.917969 177.640625 142.820312 188.890625 137.335938 200.953125 Z M 303.253906 212.492188 L 55.328125 212.492188 L 55.328125 234.597656 L 303.253906 234.597656 Z M 78.039062 121.042969 L 77.949219 121.019531 L 77.949219 121.042969 C 78 121.042969 78.140625 121.042969 78.039062 121.042969 Z M 170.765625 176.117188 C 167.890625 177.492188 164.464844 176.304688 163.082031 173.429688 C 161.707031 170.582031 162.890625 167.128906 165.765625 165.746094 C 176.175781 160.707031 188.710938 163.53125 195.949219 172.542969 C 197.933594 175.011719 197.5625 178.636719 195.085938 180.621094 C 192.613281 182.605469 188.964844 182.234375 186.980469 179.753906 C 183.09375 174.90625 176.375 173.390625 170.765625 176.117188 Z M 212.460938 170.746094 C 209.359375 169.972656 207.488281 166.851562 208.261719 163.761719 C 209.035156 160.683594 212.15625 158.8125 215.246094 159.585938 C 227.894531 162.757812 235.882812 175.367188 233.390625 188.179688 C 232.78125 191.285156 229.75 193.335938 226.621094 192.710938 C 223.515625 192.101562 221.464844 189.09375 222.066406 185.964844 C 223.414062 179.128906 219.207031 172.476562 212.460938 170.746094 Z M 241.320312 152.777344 C 258.96875 159.898438 260.320312 180.4375 260.394531 180.605469 L 261.820312 182.09375 L 261.820312 182.070312 C 267.492188 188.535156 279.515625 189.054688 285.84375 181.953125 C 296.226562 170.285156 316.191406 170.046875 326.855469 181.953125 L 326.878906 181.953125 C 333.164062 188.9375 345.0625 188.675781 350.929688 182.019531 C 356.019531 176.230469 363.742188 173.101562 371.515625 173.101562 L 371.515625 142.894531 C 371.515625 132.128906 367.664062 122.230469 361.289062 114.554688 C 354.847656 106.78125 345.832031 101.21875 335.585938 99.21875 C 332.710938 98.890625 330.496094 96.445312 330.496094 93.503906 L 330.496094 62.59375 L 282.332031 62.59375 L 282.332031 93.503906 C 282.332031 96.214844 280.398438 98.644531 277.640625 99.152344 C 256.792969 103.050781 241.3125 121.398438 241.3125 142.902344 L 241.3125 152.777344 Z M 273.132812 51.058594 L 339.695312 51.058594 L 339.695312 29.09375 L 273.132812 29.09375 Z M 273.132812 51.058594 "/></g></g></svg>