<svg xmlns="http://www.w3.org/2000/svg" xmlns:xlink="http://www.w3.org/1999/xlink" width="512" zoomAndPan="magnify" viewBox="0 0 384 383.999986" height="512" preserveAspectRatio="xMidYMid meet" version="1.2"><g id="97d458715f"><path style=" stroke:none;fill-rule:nonzero;fill:#73142f;fill-opacity:1;" d="M 0 192 C 0 85.976562 85.976562 0 192 0 C 298.023438 0 384 85.976562 384 192 C 384 298.023438 298.023438 384 192 384 C 85.976562 384 0 298.023438 0 192 Z M 0 192 "/><path style=" stroke:none;fill-rule:nonzero;fill:#ffffff;fill-opacity:1;" d="M 290.28125 175.207031 C 268.382812 153.304688 246.480469 131.40625 224.582031 109.503906 C 203.839844 88.765625 171.800781 121.035156 192.617188 141.851562 C 201.519531 150.753906 210.496094 159.730469 219.394531 168.628906 C 184.261719 168.628906 149.128906 168.628906 113.992188 168.628906 C 84.664062 168.628906 84.351562 214.132812 113.683594 214.132812 C 148.972656 214.132812 184.183594 214.132812 219.472656 214.132812 C 210.496094 223.109375 201.519531 232.085938 192.542969 241.0625 C 171.800781 261.804688 204.074219 293.84375 224.890625 273.023438 C 246.789062 251.125 268.691406 229.222656 290.59375 207.324219 C 299.261719 198.578125 299.027344 183.953125 290.28125 175.207031 Z M 290.28125 175.207031 "/></g></svg>