<svg xmlns="http://www.w3.org/2000/svg" xmlns:xlink="http://www.w3.org/1999/xlink" width="512" zoomAndPan="magnify" viewBox="0 0 384 383.999986" height="512" preserveAspectRatio="xMidYMid meet" version="1.0"><defs><clipPath id="e116331620"><path d="M 15.476562 0 L 368.726562 0 L 368.726562 384 L 15.476562 384 Z M 15.476562 0 " clip-rule="nonzero"/></clipPath></defs><g clip-path="url(#e116331620)"><path fill="#000000" d="M 368.710938 349.324219 L 368.710938 345.445312 C 368.710938 321.628906 364.039062 298.511719 354.824219 276.738281 C 345.925781 255.71875 333.195312 236.84375 316.984375 220.644531 C 300.773438 204.441406 281.886719 191.71875 260.855469 182.828125 C 259.472656 182.242188 258.082031 181.679688 256.679688 181.128906 C 259.328125 178.964844 261.875 176.664062 264.316406 174.226562 C 273.6875 164.859375 281.050781 153.945312 286.195312 141.789062 C 291.523438 129.195312 294.226562 115.828125 294.226562 102.058594 C 294.226562 88.289062 291.527344 74.921875 286.195312 62.324219 C 281.050781 50.171875 273.6875 39.257812 264.316406 29.890625 C 254.945312 20.523438 244.027344 13.167969 231.863281 8.027344 C 219.261719 2.699219 205.882812 0 192.105469 0 C 178.332031 0 164.953125 2.699219 152.351562 8.027344 C 140.1875 13.167969 129.269531 20.523438 119.898438 29.890625 C 110.523438 39.257812 103.164062 50.171875 98.019531 62.324219 C 92.6875 74.921875 89.988281 88.289062 89.988281 102.058594 C 89.988281 115.828125 92.691406 129.195312 98.019531 141.789062 C 103.164062 153.945312 110.527344 164.859375 119.898438 174.226562 C 122.339844 176.664062 124.886719 178.964844 127.535156 181.128906 C 126.132812 181.679688 124.742188 182.242188 123.359375 182.828125 C 102.328125 191.71875 83.441406 204.441406 67.230469 220.644531 C 51.019531 236.84375 38.289062 255.71875 29.390625 276.738281 C 20.175781 298.511719 15.503906 321.628906 15.503906 345.445312 L 15.503906 349.324219 C 15.503906 367.4375 29.417969 382.367188 47.125 384.003906 L 339.492188 383.695312 L 339.597656 383.683594 C 342.640625 383.371094 345.589844 382.46875 348.285156 381.027344 C 360.320312 375.535156 368.710938 363.390625 368.710938 349.324219 Z M 116.839844 133.835938 C 112.582031 123.769531 110.421875 113.078125 110.421875 102.058594 C 110.421875 91.039062 112.582031 80.347656 116.839844 70.28125 C 120.953125 60.558594 126.84375 51.828125 134.347656 44.332031 C 141.847656 36.835938 150.582031 30.949219 160.3125 26.835938 C 170.382812 22.578125 181.078125 20.421875 192.105469 20.421875 C 203.132812 20.421875 213.832031 22.578125 223.902344 26.835938 C 233.628906 30.949219 242.367188 36.835938 249.867188 44.332031 C 257.371094 51.828125 263.261719 60.558594 267.375 70.28125 C 271.632812 80.347656 273.792969 91.039062 273.792969 102.058594 C 273.792969 113.078125 271.632812 123.769531 267.375 133.835938 C 263.257812 143.554688 257.371094 152.285156 249.867188 159.785156 C 242.367188 167.28125 233.628906 173.167969 223.902344 177.277344 C 213.832031 181.535156 203.132812 183.695312 192.105469 183.695312 C 181.078125 183.695312 170.382812 181.535156 160.3125 177.277344 C 150.582031 173.167969 141.847656 167.28125 134.347656 159.785156 C 126.84375 152.285156 120.953125 143.554688 116.839844 133.835938 Z M 348.277344 349.324219 C 348.277344 357.269531 341.808594 363.730469 333.859375 363.730469 L 50.355469 363.730469 C 42.40625 363.730469 35.9375 357.269531 35.9375 349.324219 L 35.9375 345.445312 C 35.9375 324.375 40.066406 303.9375 48.210938 284.691406 C 56.074219 266.105469 67.335938 249.417969 81.679688 235.082031 C 96.019531 220.75 112.722656 209.496094 131.320312 201.632812 C 135.417969 199.902344 139.628906 198.332031 143.835938 196.960938 C 145.304688 196.484375 146.796875 196.023438 148.273438 195.59375 C 148.824219 195.433594 149.347656 195.226562 149.847656 194.988281 C 150.675781 195.363281 151.507812 195.730469 152.351562 196.085938 C 164.953125 201.417969 178.328125 204.117188 192.105469 204.117188 C 205.882812 204.117188 219.257812 201.414062 231.863281 196.085938 C 232.703125 195.730469 233.535156 195.363281 234.367188 194.988281 C 234.863281 195.226562 235.390625 195.433594 235.941406 195.59375 C 241.660156 197.265625 247.367188 199.296875 252.894531 201.636719 C 271.492188 209.496094 288.195312 220.75 302.535156 235.082031 C 316.875 249.417969 328.136719 266.105469 336.003906 284.691406 C 344.144531 303.933594 348.277344 324.375 348.277344 345.445312 Z M 348.277344 349.324219 " fill-opacity="1" fill-rule="nonzero"/></g></svg>