<svg xmlns="http://www.w3.org/2000/svg" xmlns:xlink="http://www.w3.org/1999/xlink" width="512" zoomAndPan="magnify" viewBox="0 0 384 383.999986" height="512" preserveAspectRatio="xMidYMid meet" version="1.0"><defs><clipPath id="6af2408997"><path d="M 8 14 L 365 14 L 365 371.25 L 8 371.25 Z M 8 14 " clip-rule="nonzero"/></clipPath><clipPath id="72a5717607"><path d="M 45 56 L 328 56 L 328 371.25 L 45 371.25 Z M 45 56 " clip-rule="nonzero"/></clipPath></defs><g clip-path="url(#6af2408997)"><path fill="#000000" d="M 186.316406 371.195312 C 182.675781 371.191406 179.039062 371.074219 175.40625 370.847656 C 171.769531 370.621094 168.148438 370.28125 164.535156 369.832031 C 160.921875 369.382812 157.328125 368.820312 153.746094 368.152344 C 150.167969 367.480469 146.613281 366.703125 143.082031 365.8125 C 139.550781 364.925781 136.050781 363.929688 132.582031 362.828125 C 129.113281 361.722656 125.679688 360.515625 122.28125 359.203125 C 118.886719 357.886719 115.535156 356.472656 112.226562 354.953125 C 108.917969 353.433594 105.65625 351.8125 102.445312 350.09375 C 99.238281 348.375 96.082031 346.5625 92.984375 344.648438 C 89.886719 342.734375 86.847656 340.730469 83.871094 338.632812 C 80.894531 336.53125 77.988281 334.34375 75.144531 332.066406 C 72.304688 329.789062 69.535156 327.429688 66.835938 324.980469 C 64.140625 322.535156 61.519531 320.007812 58.976562 317.398438 C 56.433594 314.792969 53.972656 312.109375 51.597656 309.351562 C 49.21875 306.589844 46.925781 303.761719 44.722656 300.863281 C 42.519531 297.964844 40.402344 295 38.378906 291.972656 C 36.355469 288.945312 34.429688 285.855469 32.59375 282.707031 C 30.761719 279.5625 29.023438 276.363281 27.386719 273.109375 C 25.75 269.855469 24.210938 266.554688 22.777344 263.207031 C 21.339844 259.859375 20.007812 256.46875 18.78125 253.042969 C 17.550781 249.613281 16.429688 246.148438 15.414062 242.648438 C 14.398438 239.152344 13.488281 235.625 12.6875 232.070312 C 11.890625 228.519531 11.199219 224.941406 10.617188 221.347656 C 10.035156 217.75 9.566406 214.140625 9.207031 210.515625 C 8.847656 206.890625 8.597656 203.257812 8.460938 199.617188 C 8.324219 195.976562 8.296875 192.335938 8.382812 188.691406 C 8.46875 185.050781 8.664062 181.414062 8.972656 177.785156 C 9.28125 174.15625 9.703125 170.539062 10.230469 166.933594 C 10.761719 163.332031 11.402344 159.746094 12.152344 156.179688 C 12.902344 152.617188 13.757812 149.078125 14.726562 145.566406 C 15.691406 142.054688 16.765625 138.574219 17.945312 135.128906 C 19.125 131.679688 20.40625 128.273438 21.796875 124.90625 C 23.183594 121.539062 24.671875 118.214844 26.265625 114.941406 C 27.855469 111.664062 29.546875 108.4375 31.335938 105.265625 C 33.125 102.09375 35.011719 98.980469 36.988281 95.921875 C 38.96875 92.863281 41.042969 89.871094 43.203125 86.941406 C 45.367188 84.011719 47.621094 81.148438 49.957031 78.359375 C 52.296875 75.566406 54.71875 72.847656 57.222656 70.203125 C 59.730469 67.5625 62.3125 64.996094 64.972656 62.511719 C 67.636719 60.027344 70.371094 57.625 73.183594 55.308594 C 75.992188 52.992188 78.867188 50.761719 81.816406 48.621094 C 84.761719 46.480469 87.769531 44.433594 90.839844 42.476562 C 93.910156 40.519531 97.039062 38.660156 100.226562 36.894531 C 103.410156 35.128906 106.648438 33.464844 109.933594 31.898438 C 113.222656 30.332031 116.554688 28.871094 119.929688 27.507812 C 123.308594 26.144531 126.722656 24.890625 130.175781 23.738281 C 133.628906 22.585938 137.117188 21.539062 140.632812 20.601562 C 144.152344 19.664062 147.695312 18.832031 151.265625 18.113281 C 154.832031 17.390625 158.421875 16.78125 162.027344 16.277344 C 165.632812 15.777344 169.25 15.386719 172.882812 15.109375 C 176.511719 14.828125 180.148438 14.660156 183.789062 14.605469 C 187.429688 14.550781 191.066406 14.605469 194.703125 14.773438 C 198.339844 14.9375 201.96875 15.214844 205.589844 15.605469 C 209.210938 15.996094 212.8125 16.496094 216.402344 17.105469 C 219.992188 17.714844 223.558594 18.4375 227.105469 19.265625 C 230.648438 20.09375 234.167969 21.03125 237.65625 22.078125 C 241.144531 23.121094 244.59375 24.273438 248.011719 25.53125 C 251.429688 26.785156 254.804688 28.144531 258.140625 29.609375 C 261.472656 31.074219 264.757812 32.636719 267.996094 34.304688 C 271.234375 35.96875 274.421875 37.730469 277.550781 39.59375 C 280.679688 41.453125 283.75 43.40625 286.761719 45.457031 C 289.773438 47.503906 292.71875 49.644531 295.597656 51.875 C 298.476562 54.101562 301.285156 56.417969 304.023438 58.820312 C 306.757812 61.222656 309.421875 63.703125 312.007812 66.269531 C 314.59375 68.835938 317.097656 71.476562 319.519531 74.195312 C 321.945312 76.914062 324.28125 79.703125 326.535156 82.566406 C 328.789062 85.425781 330.949219 88.355469 333.023438 91.351562 C 335.097656 94.34375 337.078125 97.398438 338.964844 100.515625 C 340.847656 103.632812 342.636719 106.800781 344.332031 110.027344 C 346.023438 113.253906 347.613281 116.527344 349.105469 119.851562 C 350.597656 123.175781 351.984375 126.539062 353.269531 129.949219 C 354.554688 133.355469 355.734375 136.800781 356.808594 140.28125 C 357.882812 143.761719 358.851562 147.273438 359.710938 150.8125 C 360.570312 154.351562 361.320312 157.917969 361.960938 161.503906 C 362.601562 165.089844 363.132812 168.691406 363.550781 172.308594 C 363.972656 175.925781 364.28125 179.554688 364.480469 183.191406 C 364.675781 186.832031 364.761719 190.472656 364.738281 194.113281 C 364.714844 197.757812 364.578125 201.394531 364.328125 205.03125 C 364.082031 208.664062 363.722656 212.289062 363.253906 215.898438 C 362.78125 219.511719 362.203125 223.105469 361.511719 226.683594 C 360.824219 230.261719 360.023438 233.8125 359.117188 237.339844 C 358.207031 240.867188 357.195312 244.367188 356.070312 247.832031 C 354.949219 251.296875 353.722656 254.726562 352.390625 258.117188 C 351.058594 261.507812 349.625 264.851562 348.089844 268.15625 C 346.550781 271.457031 344.914062 274.710938 343.179688 277.910156 C 341.441406 281.113281 339.609375 284.257812 337.683594 287.347656 C 335.753906 290.4375 333.730469 293.46875 331.617188 296.433594 C 329.503906 299.398438 327.300781 302.296875 325.007812 305.128906 C 322.714844 307.957031 320.339844 310.714844 317.878906 313.402344 C 315.417969 316.085938 312.878906 318.691406 310.257812 321.222656 C 307.636719 323.75 304.941406 326.195312 302.171875 328.5625 C 299.402344 330.925781 296.5625 333.203125 293.652344 335.390625 C 290.742188 337.582031 287.769531 339.679688 284.730469 341.6875 C 281.691406 343.695312 278.59375 345.605469 275.4375 347.421875 C 272.285156 349.242188 269.074219 350.960938 265.816406 352.582031 C 262.554688 354.199219 259.246094 355.71875 255.894531 357.136719 C 244.886719 361.800781 233.527344 365.3125 221.8125 367.679688 C 210.101562 370.046875 198.265625 371.21875 186.316406 371.195312 Z M 186.316406 30.800781 C 183.027344 30.804688 179.746094 30.910156 176.464844 31.113281 C 173.179688 31.320312 169.910156 31.625 166.648438 32.035156 C 163.382812 32.441406 160.136719 32.945312 156.90625 33.550781 C 153.671875 34.15625 150.464844 34.863281 147.273438 35.664062 C 144.085938 36.46875 140.925781 37.367188 137.792969 38.363281 C 134.660156 39.359375 131.558594 40.453125 128.492188 41.636719 C 125.425781 42.824219 122.398438 44.105469 119.410156 45.476562 C 116.421875 46.847656 113.476562 48.3125 110.578125 49.863281 C 107.679688 51.417969 104.832031 53.054688 102.035156 54.785156 C 99.234375 56.511719 96.492188 58.324219 93.804688 60.21875 C 91.117188 62.113281 88.492188 64.089844 85.925781 66.148438 C 83.359375 68.203125 80.859375 70.335938 78.421875 72.546875 C 75.988281 74.757812 73.621094 77.039062 71.328125 79.394531 C 69.03125 81.75 66.808594 84.171875 64.664062 86.664062 C 62.515625 89.15625 60.445312 91.710938 58.457031 94.328125 C 56.464844 96.945312 54.554688 99.625 52.730469 102.359375 C 50.902344 105.09375 49.160156 107.882812 47.503906 110.726562 C 45.851562 113.566406 44.28125 116.457031 42.804688 119.394531 C 41.324219 122.335938 39.9375 125.316406 38.640625 128.339844 C 37.34375 131.363281 36.140625 134.421875 35.035156 137.519531 C 33.925781 140.617188 32.910156 143.742188 31.996094 146.902344 C 31.078125 150.0625 30.257812 153.246094 29.535156 156.457031 C 28.8125 159.664062 28.191406 162.894531 27.664062 166.140625 C 27.140625 169.390625 26.714844 172.648438 26.390625 175.921875 C 26.066406 179.199219 25.84375 182.476562 25.71875 185.765625 C 25.597656 189.054688 25.574219 192.339844 25.652344 195.628906 C 25.726562 198.917969 25.90625 202.203125 26.1875 205.480469 C 26.464844 208.757812 26.84375 212.023438 27.324219 215.277344 C 27.800781 218.535156 28.378906 221.769531 29.058594 224.988281 C 29.734375 228.210938 30.507812 231.40625 31.382812 234.574219 C 32.253906 237.746094 33.222656 240.890625 34.289062 244.003906 C 35.355469 247.113281 36.515625 250.191406 37.769531 253.230469 C 39.023438 256.273438 40.367188 259.273438 41.804688 262.230469 C 43.242188 265.191406 44.769531 268.101562 46.386719 270.96875 C 48.003906 273.832031 49.703125 276.644531 51.492188 279.40625 C 53.28125 282.167969 55.152344 284.871094 57.105469 287.515625 C 59.058594 290.160156 61.09375 292.746094 63.207031 295.265625 C 65.316406 297.785156 67.503906 300.242188 69.769531 302.628906 C 72.03125 305.015625 74.363281 307.332031 76.769531 309.574219 C 79.171875 311.816406 81.644531 313.984375 84.179688 316.078125 C 86.71875 318.171875 89.316406 320.183594 91.976562 322.117188 C 94.636719 324.050781 97.355469 325.898438 100.128906 327.664062 C 102.902344 329.433594 105.726562 331.113281 108.605469 332.707031 C 111.480469 334.296875 114.402344 335.800781 117.371094 337.214844 C 120.339844 338.628906 123.351562 339.953125 126.398438 341.179688 C 129.449219 342.410156 132.535156 343.542969 135.652344 344.585938 C 138.773438 345.625 141.921875 346.570312 145.097656 347.414062 C 148.273438 348.261719 151.472656 349.011719 154.699219 349.664062 C 157.921875 350.3125 161.160156 350.867188 164.417969 351.316406 C 167.671875 351.769531 170.941406 352.121094 174.21875 352.375 C 177.496094 352.625 180.78125 352.777344 184.066406 352.828125 C 187.355469 352.878906 190.640625 352.828125 193.925781 352.675781 C 197.210938 352.523438 200.488281 352.273438 203.757812 351.921875 C 207.023438 351.570312 210.28125 351.117188 213.523438 350.566406 C 216.761719 350.015625 219.984375 349.363281 223.1875 348.613281 C 226.386719 347.867188 229.5625 347.019531 232.710938 346.074219 C 235.863281 345.132812 238.980469 344.09375 242.066406 342.957031 C 245.152344 341.820312 248.199219 340.59375 251.210938 339.269531 C 254.222656 337.949219 257.1875 336.535156 260.113281 335.03125 C 263.039062 333.527344 265.914062 331.9375 268.738281 330.253906 C 271.566406 328.574219 274.339844 326.808594 277.058594 324.960938 C 279.777344 323.109375 282.433594 321.175781 285.035156 319.164062 C 287.636719 317.148438 290.171875 315.058594 292.644531 312.890625 C 295.117188 310.722656 297.519531 308.476562 299.855469 306.160156 C 302.1875 303.84375 304.449219 301.460938 306.636719 299.003906 C 308.828125 296.550781 310.9375 294.03125 312.972656 291.445312 C 315.007812 288.859375 316.960938 286.214844 318.832031 283.511719 C 320.703125 280.808594 322.492188 278.046875 324.195312 275.234375 C 325.898438 272.421875 327.515625 269.554688 329.042969 266.644531 C 330.570312 263.730469 332.007812 260.773438 333.351562 257.773438 C 334.699219 254.769531 335.953125 251.730469 337.113281 248.652344 C 338.273438 245.574219 339.339844 242.464844 340.308594 239.320312 C 341.277344 236.175781 342.152344 233.007812 342.925781 229.808594 C 343.703125 226.613281 344.378906 223.394531 344.957031 220.15625 C 345.539062 216.917969 346.015625 213.664062 346.394531 210.398438 C 346.773438 207.128906 347.054688 203.855469 347.234375 200.570312 C 347.410156 197.285156 347.488281 193.996094 347.464844 190.707031 C 347.445312 187.417969 347.320312 184.132812 347.097656 180.847656 C 346.871094 177.566406 346.546875 174.296875 346.125 171.03125 C 345.699219 167.769531 345.175781 164.523438 344.550781 161.292969 C 343.929688 158.0625 343.207031 154.855469 342.386719 151.671875 C 341.566406 148.484375 340.648438 145.328125 339.636719 142.195312 C 338.625 139.066406 337.515625 135.972656 336.3125 132.910156 C 335.109375 129.847656 333.8125 126.828125 332.425781 123.84375 C 331.039062 120.863281 329.558594 117.925781 327.992188 115.035156 C 326.425781 112.140625 324.769531 109.300781 323.027344 106.511719 C 321.285156 103.722656 319.460938 100.988281 317.550781 98.308594 C 315.640625 95.628906 313.652344 93.011719 311.582031 90.457031 C 309.511719 87.902344 307.367188 85.410156 305.144531 82.984375 C 302.921875 80.5625 300.625 78.207031 298.261719 75.921875 C 295.894531 73.640625 293.460938 71.429688 290.957031 69.296875 C 288.457031 67.160156 285.890625 65.105469 283.261719 63.128906 C 280.636719 61.152344 277.949219 59.257812 275.207031 57.445312 C 272.460938 55.632812 269.664062 53.902344 266.816406 52.261719 C 263.964844 50.621094 261.070312 49.070312 258.125 47.605469 C 255.179688 46.144531 252.191406 44.769531 249.164062 43.492188 C 239.222656 39.28125 228.960938 36.109375 218.378906 33.972656 C 207.800781 31.835938 197.113281 30.777344 186.316406 30.800781 Z M 186.316406 30.800781 " fill-opacity="1" fill-rule="nonzero"/></g><g clip-path="url(#72a5717607)"><path fill="#000000" d="M 186.316406 371.195312 C 132.269531 371.195312 81.695312 347.101562 47.558594 305.09375 C 47.101562 304.527344 46.71875 303.910156 46.414062 303.25 C 46.109375 302.585938 45.894531 301.898438 45.761719 301.179688 C 45.632812 300.460938 45.59375 299.738281 45.648438 299.011719 C 45.703125 298.285156 45.84375 297.574219 46.078125 296.882812 C 46.914062 294.40625 47.824219 291.957031 48.808594 289.535156 C 49.792969 287.117188 50.851562 284.726562 51.984375 282.371094 C 53.113281 280.015625 54.316406 277.695312 55.589844 275.410156 C 56.863281 273.128906 58.203125 270.886719 59.613281 268.683594 C 61.023438 266.484375 62.496094 264.328125 64.039062 262.214844 C 65.578125 260.105469 67.183594 258.042969 68.851562 256.03125 C 70.515625 254.015625 72.242188 252.058594 74.03125 250.148438 C 75.816406 248.242188 77.660156 246.390625 79.558594 244.59375 C 81.457031 242.800781 83.410156 241.066406 85.417969 239.390625 C 87.421875 237.714844 89.476562 236.101562 91.578125 234.550781 C 93.683594 233 95.832031 231.515625 98.027344 230.097656 C 100.222656 228.675781 102.457031 227.324219 104.734375 226.042969 C 107.011719 224.761719 109.324219 223.550781 111.675781 222.410156 C 114.023438 221.265625 116.410156 220.199219 118.824219 219.203125 C 121.238281 218.207031 123.683594 217.285156 126.15625 216.441406 C 128.628906 215.59375 131.125 214.824219 133.640625 214.128906 C 127.0625 204.867188 121.300781 194.125 116.679688 182.433594 C 110.3125 166.320312 106.804688 149.894531 106.804688 136.1875 C 106.804688 134.882812 106.835938 133.582031 106.898438 132.28125 C 106.964844 130.980469 107.058594 129.683594 107.1875 128.386719 C 107.3125 127.09375 107.472656 125.800781 107.664062 124.511719 C 107.855469 123.222656 108.078125 121.941406 108.332031 120.664062 C 108.585938 119.386719 108.871094 118.117188 109.1875 116.855469 C 109.503906 115.589844 109.847656 114.335938 110.226562 113.089844 C 110.605469 111.84375 111.011719 110.609375 111.453125 109.382812 C 111.890625 108.15625 112.359375 106.941406 112.855469 105.738281 C 113.355469 104.535156 113.882812 103.347656 114.4375 102.171875 C 114.992188 100.992188 115.578125 99.832031 116.191406 98.683594 C 116.804688 97.535156 117.445312 96.402344 118.117188 95.285156 C 118.785156 94.167969 119.480469 93.066406 120.203125 91.984375 C 120.925781 90.902344 121.675781 89.839844 122.449219 88.792969 C 123.226562 87.746094 124.027344 86.722656 124.851562 85.714844 C 125.675781 84.707031 126.527344 83.722656 127.402344 82.757812 C 128.273438 81.792969 129.171875 80.851562 130.09375 79.929688 C 131.011719 79.007812 131.953125 78.109375 132.917969 77.238281 C 133.882812 76.363281 134.867188 75.511719 135.875 74.6875 C 136.878906 73.859375 137.90625 73.058594 138.949219 72.285156 C 139.996094 71.507812 141.058594 70.757812 142.140625 70.035156 C 143.222656 69.3125 144.324219 68.617188 145.4375 67.945312 C 146.554688 67.277344 147.6875 66.636719 148.835938 66.019531 C 149.980469 65.40625 151.144531 64.820312 152.320312 64.265625 C 153.496094 63.707031 154.6875 63.179688 155.886719 62.683594 C 157.089844 62.183594 158.304688 61.714844 159.53125 61.277344 C 160.753906 60.839844 161.988281 60.429688 163.234375 60.054688 C 164.480469 59.675781 165.734375 59.328125 166.996094 59.011719 C 168.257812 58.695312 169.527344 58.410156 170.804688 58.15625 C 172.082031 57.902344 173.363281 57.679688 174.648438 57.488281 C 175.9375 57.296875 177.226562 57.136719 178.523438 57.011719 C 179.816406 56.882812 181.117188 56.785156 182.414062 56.722656 C 183.714844 56.660156 185.015625 56.628906 186.316406 56.628906 C 187.617188 56.628906 188.917969 56.660156 190.21875 56.722656 C 191.519531 56.785156 192.816406 56.882812 194.109375 57.011719 C 195.40625 57.136719 196.695312 57.296875 197.984375 57.488281 C 199.269531 57.679688 200.554688 57.902344 201.828125 58.15625 C 203.105469 58.410156 204.375 58.695312 205.636719 59.011719 C 206.898438 59.328125 208.152344 59.675781 209.398438 60.054688 C 210.644531 60.429688 211.878906 60.839844 213.105469 61.277344 C 214.328125 61.714844 215.542969 62.183594 216.746094 62.683594 C 217.949219 63.179688 219.136719 63.707031 220.3125 64.265625 C 221.488281 64.820312 222.652344 65.40625 223.800781 66.019531 C 224.945312 66.636719 226.078125 67.277344 227.195312 67.945312 C 228.3125 68.617188 229.410156 69.3125 230.492188 70.035156 C 231.574219 70.757812 232.636719 71.507812 233.683594 72.285156 C 234.726562 73.058594 235.753906 73.859375 236.761719 74.6875 C 237.765625 75.511719 238.75 76.363281 239.714844 77.238281 C 240.679688 78.109375 241.621094 79.007812 242.542969 79.929688 C 243.460938 80.851562 244.359375 81.792969 245.234375 82.757812 C 246.105469 83.722656 246.957031 84.707031 247.78125 85.714844 C 248.605469 86.722656 249.40625 87.746094 250.183594 88.792969 C 250.957031 89.839844 251.707031 90.902344 252.429688 91.984375 C 253.152344 93.066406 253.847656 94.167969 254.519531 95.285156 C 255.1875 96.402344 255.828125 97.535156 256.441406 98.683594 C 257.054688 99.832031 257.640625 100.992188 258.195312 102.171875 C 258.753906 103.347656 259.28125 104.535156 259.777344 105.738281 C 260.277344 106.941406 260.742188 108.15625 261.183594 109.382812 C 261.621094 110.609375 262.027344 111.84375 262.40625 113.089844 C 262.785156 114.335938 263.132812 115.589844 263.449219 116.855469 C 263.765625 118.117188 264.050781 119.386719 264.300781 120.664062 C 264.554688 121.941406 264.777344 123.222656 264.96875 124.511719 C 265.160156 125.800781 265.320312 127.09375 265.449219 128.386719 C 265.574219 129.683594 265.671875 130.980469 265.734375 132.28125 C 265.796875 133.582031 265.832031 134.882812 265.832031 136.1875 C 265.832031 149.894531 262.320312 166.320312 255.953125 182.433594 C 251.332031 194.121094 245.570312 204.867188 238.992188 214.132812 C 241.511719 214.824219 244.003906 215.59375 246.476562 216.441406 C 248.949219 217.289062 251.394531 218.207031 253.808594 219.203125 C 256.226562 220.199219 258.609375 221.269531 260.960938 222.410156 C 263.308594 223.550781 265.625 224.761719 267.898438 226.042969 C 270.175781 227.328125 272.414062 228.679688 274.605469 230.097656 C 276.800781 231.515625 278.949219 233 281.054688 234.550781 C 283.15625 236.101562 285.210938 237.714844 287.21875 239.390625 C 289.222656 241.066406 291.175781 242.800781 293.074219 244.597656 C 294.972656 246.390625 296.816406 248.242188 298.601562 250.148438 C 300.390625 252.058594 302.117188 254.019531 303.785156 256.03125 C 305.449219 258.042969 307.054688 260.105469 308.59375 262.21875 C 310.136719 264.328125 311.613281 266.484375 313.019531 268.6875 C 314.429688 270.886719 315.773438 273.128906 317.042969 275.410156 C 318.316406 277.695312 319.519531 280.015625 320.648438 282.371094 C 321.78125 284.726562 322.839844 287.117188 323.824219 289.539062 C 324.808594 291.960938 325.722656 294.40625 326.558594 296.886719 C 326.789062 297.574219 326.933594 298.285156 326.984375 299.011719 C 327.039062 299.738281 327 300.460938 326.871094 301.179688 C 326.742188 301.898438 326.523438 302.585938 326.21875 303.25 C 325.914062 303.914062 325.53125 304.527344 325.074219 305.09375 C 290.941406 347.101562 240.367188 371.195312 186.316406 371.195312 Z M 64.070312 297.898438 C 65.957031 300.085938 67.902344 302.222656 69.90625 304.308594 C 71.910156 306.394531 73.964844 308.421875 76.078125 310.398438 C 78.1875 312.371094 80.351562 314.289062 82.566406 316.144531 C 84.78125 318.003906 87.042969 319.800781 89.351562 321.535156 C 91.664062 323.273438 94.019531 324.945312 96.421875 326.554688 C 98.820312 328.164062 101.261719 329.710938 103.746094 331.1875 C 106.230469 332.667969 108.75 334.078125 111.308594 335.421875 C 113.867188 336.765625 116.460938 338.039062 119.089844 339.242188 C 121.71875 340.445312 124.375 341.578125 127.0625 342.640625 C 129.75 343.699219 132.464844 344.6875 135.207031 345.601562 C 137.949219 346.519531 140.710938 347.359375 143.5 348.125 C 146.285156 348.894531 149.089844 349.585938 151.914062 350.199219 C 154.734375 350.816406 157.574219 351.355469 160.425781 351.820312 C 163.277344 352.285156 166.140625 352.671875 169.015625 352.980469 C 171.886719 353.289062 174.765625 353.523438 177.652344 353.675781 C 180.539062 353.832031 183.425781 353.910156 186.316406 353.910156 C 189.207031 353.910156 192.09375 353.832031 194.980469 353.675781 C 197.863281 353.523438 200.746094 353.289062 203.617188 352.980469 C 206.492188 352.671875 209.355469 352.285156 212.207031 351.820312 C 215.058594 351.355469 217.894531 350.816406 220.71875 350.199219 C 223.542969 349.585938 226.347656 348.894531 229.132812 348.125 C 231.921875 347.359375 234.683594 346.519531 237.425781 345.601562 C 240.167969 344.6875 242.882812 343.699219 245.570312 342.640625 C 248.257812 341.578125 250.914062 340.445312 253.542969 339.242188 C 256.171875 338.039062 258.765625 336.765625 261.324219 335.421875 C 263.882812 334.078125 266.402344 332.667969 268.886719 331.1875 C 271.371094 329.710938 273.8125 328.164062 276.210938 326.554688 C 278.613281 324.945312 280.96875 323.273438 283.277344 321.535156 C 285.589844 319.800781 287.851562 318.003906 290.066406 316.144531 C 292.28125 314.289062 294.445312 312.371094 296.554688 310.398438 C 298.667969 308.421875 300.722656 306.394531 302.726562 304.308594 C 304.730469 302.222656 306.675781 300.085938 308.5625 297.898438 C 307.6875 295.636719 306.742188 293.40625 305.722656 291.207031 C 304.703125 289.011719 303.613281 286.847656 302.453125 284.71875 C 301.292969 282.589844 300.066406 280.503906 298.765625 278.457031 C 297.46875 276.410156 296.109375 274.40625 294.679688 272.449219 C 293.25 270.492188 291.761719 268.582031 290.207031 266.722656 C 288.65625 264.863281 287.042969 263.054688 285.371094 261.300781 C 283.699219 259.542969 281.972656 257.847656 280.191406 256.203125 C 278.410156 254.5625 276.574219 252.980469 274.6875 251.460938 C 272.804688 249.9375 270.871094 248.480469 268.890625 247.085938 C 266.90625 245.691406 264.882812 244.359375 262.816406 243.097656 C 260.746094 241.835938 258.640625 240.644531 256.492188 239.519531 C 254.347656 238.394531 252.167969 237.339844 249.953125 236.359375 C 247.738281 235.378906 245.492188 234.46875 243.21875 233.636719 C 240.945312 232.800781 238.644531 232.042969 236.320312 231.355469 C 233.996094 230.671875 231.652344 230.066406 229.289062 229.535156 C 226.925781 229.003906 224.546875 228.550781 222.152344 228.175781 C 221.378906 228.058594 220.636719 227.835938 219.921875 227.515625 C 219.207031 227.191406 218.550781 226.78125 217.949219 226.28125 C 217.347656 225.777344 216.820312 225.207031 216.375 224.5625 C 215.929688 223.917969 215.578125 223.226562 215.316406 222.488281 C 215.058594 221.75 214.90625 220.988281 214.851562 220.207031 C 214.800781 219.425781 214.855469 218.648438 215.015625 217.882812 C 215.171875 217.117188 215.429688 216.382812 215.789062 215.6875 C 216.148438 214.988281 216.589844 214.355469 217.121094 213.777344 C 226 204.148438 234.082031 190.757812 239.890625 176.074219 C 245.480469 161.9375 248.558594 147.769531 248.558594 136.183594 C 248.558594 101.847656 220.636719 73.910156 186.316406 73.910156 C 151.996094 73.910156 124.078125 101.847656 124.078125 136.1875 C 124.078125 147.769531 127.15625 161.9375 132.746094 176.078125 C 138.546875 190.757812 146.632812 204.148438 155.511719 213.777344 C 156.042969 214.355469 156.488281 214.992188 156.84375 215.6875 C 157.203125 216.382812 157.460938 217.117188 157.621094 217.882812 C 157.777344 218.648438 157.832031 219.425781 157.78125 220.207031 C 157.730469 220.988281 157.574219 221.75 157.316406 222.488281 C 157.058594 223.226562 156.703125 223.917969 156.257812 224.5625 C 155.8125 225.207031 155.289062 225.78125 154.6875 226.28125 C 154.085938 226.78125 153.425781 227.191406 152.710938 227.515625 C 152 227.835938 151.253906 228.058594 150.480469 228.175781 C 148.085938 228.550781 145.707031 229.003906 143.34375 229.535156 C 140.980469 230.066406 138.636719 230.671875 136.3125 231.355469 C 133.988281 232.042969 131.691406 232.800781 129.414062 233.636719 C 127.140625 234.46875 124.894531 235.378906 122.679688 236.359375 C 120.464844 237.339844 118.285156 238.394531 116.140625 239.519531 C 113.992188 240.644531 111.886719 241.835938 109.816406 243.097656 C 107.75 244.359375 105.726562 245.691406 103.746094 247.085938 C 101.761719 248.480469 99.828125 249.9375 97.945312 251.460938 C 96.058594 252.980469 94.222656 254.5625 92.441406 256.203125 C 90.660156 257.847656 88.933594 259.542969 87.261719 261.300781 C 85.589844 263.054688 83.976562 264.859375 82.425781 266.722656 C 80.871094 268.582031 79.382812 270.492188 77.953125 272.449219 C 76.523438 274.40625 75.164062 276.410156 73.863281 278.457031 C 72.566406 280.503906 71.339844 282.589844 70.179688 284.71875 C 69.019531 286.847656 67.929688 289.011719 66.910156 291.207031 C 65.890625 293.40625 64.945312 295.636719 64.070312 297.898438 Z M 64.070312 297.898438 " fill-opacity="1" fill-rule="nonzero"/></g></svg>