<svg xmlns="http://www.w3.org/2000/svg" xmlns:xlink="http://www.w3.org/1999/xlink" width="512" zoomAndPan="magnify" viewBox="0 0 384 383.999986" height="512" preserveAspectRatio="xMidYMid meet" version="1.2"><defs><clipPath id="713fe041bb"><path d="M 1.199219 101 L 88 101 L 88 184 L 1.199219 184 Z M 1.199219 101 "/></clipPath><clipPath id="81fbee18b7"><path d="M 1.199219 1.199219 L 88 1.199219 L 88 84 L 1.199219 84 Z M 1.199219 1.199219 "/></clipPath><clipPath id="3908457114"><path d="M 1.199219 200 L 88 200 L 88 283 L 1.199219 283 Z M 1.199219 200 "/></clipPath><clipPath id="35bf1f83c0"><path d="M 1.199219 300 L 88 300 L 88 382.949219 L 1.199219 382.949219 Z M 1.199219 300 "/></clipPath><clipPath id="f6f77db2d7"><path d="M 106 24 L 382.949219 24 L 382.949219 61 L 106 61 Z M 106 24 "/></clipPath></defs><g id="3ea73b7198"><g clip-rule="nonzero" clip-path="url(#713fe041bb)"><path style=" stroke:none;fill-rule:nonzero;fill:#fcf0e0;fill-opacity:1;" d="M 82.527344 128.164062 L 59.792969 124.863281 L 49.625 104.265625 C 49.390625 103.789062 49.097656 103.355469 48.742188 102.964844 C 48.386719 102.570312 47.980469 102.234375 47.53125 101.957031 C 47.082031 101.675781 46.601562 101.464844 46.09375 101.316406 C 45.585938 101.171875 45.066406 101.101562 44.535156 101.101562 C 44.003906 101.101562 43.484375 101.171875 42.976562 101.316406 C 42.46875 101.464844 41.988281 101.675781 41.539062 101.957031 C 41.089844 102.234375 40.6875 102.570312 40.328125 102.964844 C 39.972656 103.355469 39.679688 103.789062 39.445312 104.265625 L 29.277344 124.863281 L 6.5625 128.164062 C 6.039062 128.242188 5.535156 128.390625 5.054688 128.605469 C 4.570312 128.824219 4.128906 129.105469 3.722656 129.445312 C 3.316406 129.785156 2.96875 130.175781 2.671875 130.617188 C 2.375 131.054688 2.148438 131.527344 1.984375 132.03125 C 1.820312 132.535156 1.726562 133.050781 1.707031 133.582031 C 1.691406 134.109375 1.742188 134.632812 1.871094 135.144531 C 1.996094 135.660156 2.191406 136.148438 2.453125 136.605469 C 2.714844 137.066406 3.039062 137.480469 3.417969 137.851562 L 19.867188 153.882812 L 15.972656 176.519531 C 15.882812 177.042969 15.867188 177.566406 15.925781 178.09375 C 15.984375 178.621094 16.109375 179.128906 16.308594 179.621094 C 16.511719 180.109375 16.773438 180.566406 17.101562 180.980469 C 17.425781 181.398438 17.804688 181.761719 18.234375 182.074219 C 18.660156 182.386719 19.125 182.632812 19.621094 182.816406 C 20.121094 182.996094 20.632812 183.105469 21.160156 183.144531 C 21.6875 183.183594 22.210938 183.148438 22.730469 183.039062 C 23.25 182.929688 23.742188 182.753906 24.210938 182.507812 L 44.542969 171.820312 L 64.875 182.507812 C 65.34375 182.753906 65.835938 182.929688 66.355469 183.039062 C 66.875 183.144531 67.394531 183.179688 67.925781 183.140625 C 68.453125 183.101562 68.964844 182.992188 69.460938 182.808594 C 69.957031 182.628906 70.421875 182.382812 70.847656 182.070312 C 71.277344 181.757812 71.652344 181.394531 71.980469 180.976562 C 72.308594 180.5625 72.570312 180.109375 72.769531 179.617188 C 72.96875 179.128906 73.097656 178.617188 73.152344 178.09375 C 73.210938 177.566406 73.195312 177.042969 73.105469 176.519531 L 69.210938 153.882812 L 85.664062 137.851562 C 86.042969 137.480469 86.363281 137.066406 86.625 136.605469 C 86.890625 136.148438 87.085938 135.660156 87.210938 135.144531 C 87.335938 134.632812 87.390625 134.109375 87.371094 133.582031 C 87.351562 133.050781 87.261719 132.535156 87.097656 132.03125 C 86.933594 131.527344 86.703125 131.054688 86.410156 130.617188 C 86.113281 130.175781 85.761719 129.785156 85.359375 129.445312 C 84.953125 129.105469 84.507812 128.824219 84.027344 128.605469 C 83.542969 128.390625 83.039062 128.242188 82.515625 128.164062 Z M 59.164062 147.832031 C 58.496094 148.488281 58.019531 149.257812 57.730469 150.148438 C 57.445312 151.035156 57.382812 151.941406 57.539062 152.863281 L 59.984375 167.101562 L 47.191406 160.378906 C 46.367188 159.941406 45.484375 159.726562 44.550781 159.726562 C 43.617188 159.726562 42.738281 159.941406 41.910156 160.378906 L 29.105469 167.101562 L 31.546875 152.863281 C 31.707031 151.941406 31.640625 151.039062 31.355469 150.148438 C 31.066406 149.261719 30.589844 148.488281 29.921875 147.835938 L 19.578125 137.746094 L 33.875 135.671875 C 34.800781 135.535156 35.640625 135.195312 36.394531 134.644531 C 37.152344 134.097656 37.734375 133.402344 38.148438 132.566406 L 44.546875 119.609375 L 50.941406 132.566406 C 51.355469 133.402344 51.9375 134.097656 52.695312 134.644531 C 53.449219 135.195312 54.289062 135.535156 55.214844 135.671875 L 69.515625 137.746094 Z M 59.164062 147.832031 "/></g><g clip-rule="nonzero" clip-path="url(#81fbee18b7)"><path style=" stroke:none;fill-rule:nonzero;fill:#fcf0e0;fill-opacity:1;" d="M 82.527344 28.429688 L 59.792969 25.125 L 49.625 4.527344 C 49.390625 4.054688 49.097656 3.621094 48.742188 3.226562 C 48.386719 2.835938 47.984375 2.5 47.535156 2.21875 C 47.082031 1.9375 46.605469 1.726562 46.09375 1.578125 C 45.585938 1.433594 45.066406 1.363281 44.535156 1.363281 C 44.003906 1.363281 43.484375 1.433594 42.976562 1.578125 C 42.46875 1.726562 41.988281 1.9375 41.539062 2.21875 C 41.085938 2.5 40.683594 2.835938 40.328125 3.226562 C 39.972656 3.621094 39.679688 4.054688 39.445312 4.527344 L 29.277344 25.125 L 6.5625 28.429688 C 6.039062 28.503906 5.535156 28.652344 5.054688 28.867188 C 4.570312 29.085938 4.128906 29.367188 3.722656 29.707031 C 3.316406 30.050781 2.96875 30.441406 2.671875 30.878906 C 2.375 31.320312 2.148438 31.789062 1.984375 32.292969 C 1.820312 32.796875 1.726562 33.3125 1.707031 33.84375 C 1.691406 34.371094 1.742188 34.894531 1.871094 35.40625 C 1.996094 35.921875 2.191406 36.410156 2.453125 36.867188 C 2.714844 37.328125 3.039062 37.742188 3.417969 38.113281 L 19.867188 54.148438 L 15.972656 76.785156 C 15.882812 77.308594 15.867188 77.832031 15.925781 78.359375 C 15.980469 78.886719 16.109375 79.394531 16.308594 79.886719 C 16.507812 80.375 16.773438 80.832031 17.097656 81.25 C 17.425781 81.664062 17.804688 82.03125 18.230469 82.339844 C 18.660156 82.652344 19.125 82.898438 19.621094 83.082031 C 20.121094 83.261719 20.632812 83.371094 21.160156 83.410156 C 21.691406 83.449219 22.214844 83.410156 22.730469 83.304688 C 23.25 83.195312 23.742188 83.015625 24.210938 82.769531 L 44.542969 72.082031 L 64.875 82.769531 C 65.34375 83.015625 65.835938 83.195312 66.355469 83.300781 C 66.875 83.410156 67.398438 83.445312 67.925781 83.40625 C 68.453125 83.367188 68.964844 83.257812 69.464844 83.078125 C 69.960938 82.894531 70.425781 82.648438 70.851562 82.335938 C 71.28125 82.027344 71.660156 81.664062 71.984375 81.246094 C 72.3125 80.828125 72.574219 80.375 72.773438 79.882812 C 72.976562 79.394531 73.101562 78.886719 73.160156 78.359375 C 73.21875 77.832031 73.203125 77.308594 73.113281 76.785156 L 69.21875 54.148438 L 85.671875 38.113281 C 86.050781 37.742188 86.371094 37.328125 86.632812 36.867188 C 86.894531 36.410156 87.089844 35.921875 87.21875 35.40625 C 87.34375 34.894531 87.398438 34.371094 87.378906 33.84375 C 87.359375 33.3125 87.265625 32.796875 87.105469 32.292969 C 86.941406 31.789062 86.710938 31.320312 86.414062 30.878906 C 86.121094 30.441406 85.769531 30.050781 85.363281 29.707031 C 84.960938 29.367188 84.515625 29.085938 84.035156 28.867188 C 83.550781 28.652344 83.046875 28.503906 82.523438 28.429688 Z M 59.164062 48.09375 C 58.496094 48.75 58.019531 49.519531 57.730469 50.410156 C 57.445312 51.300781 57.382812 52.203125 57.539062 53.125 L 59.984375 67.363281 L 47.191406 60.644531 C 46.367188 60.207031 45.484375 59.988281 44.550781 59.988281 C 43.617188 59.988281 42.738281 60.207031 41.910156 60.644531 L 29.105469 67.363281 L 31.546875 53.125 C 31.707031 52.203125 31.640625 51.300781 31.355469 50.410156 C 31.066406 49.523438 30.589844 48.75 29.921875 48.097656 L 19.578125 38.011719 L 33.875 35.933594 C 34.800781 35.796875 35.640625 35.457031 36.394531 34.90625 C 37.152344 34.359375 37.734375 33.664062 38.148438 32.828125 L 44.546875 19.871094 L 50.941406 32.828125 C 51.355469 33.664062 51.9375 34.359375 52.695312 34.90625 C 53.449219 35.457031 54.289062 35.796875 55.214844 35.933594 L 69.515625 38.011719 Z M 59.164062 48.09375 "/></g><g clip-rule="nonzero" clip-path="url(#3908457114)"><path style=" stroke:none;fill-rule:nonzero;fill:#fcf0e0;fill-opacity:1;" d="M 82.527344 227.902344 L 59.792969 224.597656 L 49.625 204.003906 C 49.390625 203.53125 49.097656 203.097656 48.742188 202.703125 C 48.386719 202.3125 47.980469 201.976562 47.53125 201.695312 C 47.082031 201.417969 46.601562 201.203125 46.09375 201.058594 C 45.585938 200.914062 45.066406 200.839844 44.535156 200.839844 C 44.003906 200.839844 43.484375 200.914062 42.976562 201.058594 C 42.46875 201.203125 41.988281 201.417969 41.539062 201.695312 C 41.089844 201.976562 40.6875 202.3125 40.328125 202.703125 C 39.972656 203.097656 39.679688 203.53125 39.445312 204.003906 L 29.277344 224.601562 L 6.5625 227.90625 C 6.039062 227.984375 5.535156 228.128906 5.054688 228.347656 C 4.570312 228.5625 4.125 228.84375 3.722656 229.183594 C 3.316406 229.527344 2.96875 229.917969 2.671875 230.355469 C 2.375 230.796875 2.144531 231.265625 1.980469 231.769531 C 1.820312 232.273438 1.726562 232.789062 1.707031 233.320312 C 1.6875 233.847656 1.742188 234.371094 1.871094 234.882812 C 1.996094 235.398438 2.191406 235.886719 2.453125 236.34375 C 2.714844 236.804688 3.039062 237.21875 3.417969 237.589844 L 19.867188 253.621094 L 15.972656 276.261719 C 15.882812 276.785156 15.867188 277.308594 15.925781 277.835938 C 15.984375 278.363281 16.109375 278.871094 16.308594 279.359375 C 16.511719 279.851562 16.773438 280.304688 17.101562 280.722656 C 17.425781 281.140625 17.804688 281.503906 18.234375 281.816406 C 18.660156 282.128906 19.125 282.375 19.621094 282.554688 C 20.121094 282.738281 20.632812 282.847656 21.160156 282.886719 C 21.6875 282.925781 22.210938 282.890625 22.730469 282.78125 C 23.25 282.671875 23.742188 282.496094 24.210938 282.25 L 44.542969 271.558594 L 64.875 282.25 C 65.34375 282.496094 65.835938 282.671875 66.355469 282.78125 C 66.875 282.890625 67.398438 282.925781 67.925781 282.886719 C 68.453125 282.847656 68.96875 282.738281 69.464844 282.554688 C 69.960938 282.375 70.425781 282.128906 70.855469 281.816406 C 71.28125 281.503906 71.660156 281.140625 71.988281 280.722656 C 72.3125 280.304688 72.578125 279.851562 72.777344 279.359375 C 72.976562 278.871094 73.105469 278.363281 73.160156 277.835938 C 73.21875 277.308594 73.203125 276.785156 73.113281 276.261719 L 69.21875 253.621094 L 85.671875 237.59375 C 86.050781 237.222656 86.371094 236.808594 86.632812 236.347656 C 86.894531 235.886719 87.089844 235.402344 87.21875 234.886719 C 87.34375 234.371094 87.398438 233.851562 87.378906 233.320312 C 87.359375 232.792969 87.265625 232.277344 87.105469 231.773438 C 86.941406 231.269531 86.710938 230.796875 86.414062 230.359375 C 86.121094 229.917969 85.769531 229.527344 85.363281 229.1875 C 84.960938 228.84375 84.515625 228.566406 84.035156 228.347656 C 83.550781 228.128906 83.046875 227.984375 82.523438 227.90625 Z M 59.164062 247.570312 C 58.496094 248.222656 58.019531 248.996094 57.730469 249.882812 C 57.445312 250.773438 57.382812 251.675781 57.539062 252.597656 L 59.984375 266.839844 L 47.191406 260.117188 C 46.367188 259.679688 45.484375 259.464844 44.550781 259.464844 C 43.617188 259.464844 42.738281 259.679688 41.910156 260.117188 L 29.105469 266.839844 L 31.546875 252.597656 C 31.707031 251.675781 31.640625 250.773438 31.355469 249.886719 C 31.070312 248.996094 30.589844 248.226562 29.921875 247.574219 L 19.578125 237.484375 L 33.875 235.410156 C 34.800781 235.273438 35.640625 234.929688 36.394531 234.382812 C 37.152344 233.832031 37.734375 233.136719 38.148438 232.300781 L 44.546875 219.347656 L 50.941406 232.300781 C 51.355469 233.136719 51.9375 233.832031 52.695312 234.382812 C 53.449219 234.929688 54.289062 235.273438 55.214844 235.410156 L 69.515625 237.484375 Z M 59.164062 247.570312 "/></g><g clip-rule="nonzero" clip-path="url(#35bf1f83c0)"><path style=" stroke:none;fill-rule:nonzero;fill:#fcf0e0;fill-opacity:1;" d="M 82.527344 327.632812 L 59.792969 324.332031 L 49.625 303.734375 C 49.390625 303.261719 49.097656 302.828125 48.742188 302.433594 C 48.386719 302.042969 47.984375 301.707031 47.535156 301.425781 C 47.082031 301.144531 46.605469 300.933594 46.09375 300.785156 C 45.585938 300.640625 45.066406 300.570312 44.535156 300.570312 C 44.003906 300.570312 43.484375 300.640625 42.976562 300.785156 C 42.46875 300.933594 41.988281 301.144531 41.539062 301.425781 C 41.085938 301.703125 40.683594 302.042969 40.328125 302.433594 C 39.972656 302.828125 39.679688 303.261719 39.445312 303.734375 L 29.277344 324.332031 L 6.5625 327.632812 C 6.039062 327.710938 5.535156 327.859375 5.054688 328.074219 C 4.570312 328.292969 4.128906 328.574219 3.722656 328.914062 C 3.316406 329.257812 2.96875 329.648438 2.671875 330.085938 C 2.375 330.527344 2.148438 330.996094 1.984375 331.5 C 1.820312 332.003906 1.726562 332.519531 1.707031 333.050781 C 1.691406 333.578125 1.742188 334.101562 1.871094 334.613281 C 1.996094 335.128906 2.191406 335.617188 2.453125 336.074219 C 2.714844 336.535156 3.039062 336.949219 3.417969 337.320312 L 19.867188 353.355469 L 15.972656 375.992188 C 15.882812 376.515625 15.867188 377.039062 15.925781 377.566406 C 15.984375 378.09375 16.109375 378.601562 16.308594 379.09375 C 16.511719 379.582031 16.773438 380.039062 17.101562 380.453125 C 17.425781 380.871094 17.804688 381.234375 18.234375 381.546875 C 18.660156 381.859375 19.125 382.105469 19.621094 382.289062 C 20.121094 382.46875 20.632812 382.578125 21.160156 382.617188 C 21.6875 382.65625 22.210938 382.621094 22.730469 382.511719 C 23.25 382.402344 23.742188 382.226562 24.210938 381.980469 L 44.542969 371.292969 L 64.875 381.980469 C 65.34375 382.226562 65.835938 382.402344 66.355469 382.511719 C 66.875 382.617188 67.398438 382.652344 67.925781 382.613281 C 68.457031 382.574219 68.96875 382.464844 69.464844 382.28125 C 69.964844 382.101562 70.425781 381.851562 70.855469 381.539062 C 71.28125 381.230469 71.660156 380.863281 71.984375 380.445312 C 72.3125 380.027344 72.574219 379.574219 72.773438 379.082031 C 72.972656 378.59375 73.101562 378.082031 73.15625 377.558594 C 73.214844 377.03125 73.195312 376.503906 73.105469 375.984375 L 69.210938 353.34375 L 85.664062 337.3125 C 86.042969 336.945312 86.363281 336.527344 86.625 336.070312 C 86.890625 335.609375 87.082031 335.121094 87.210938 334.609375 C 87.335938 334.09375 87.390625 333.570312 87.371094 333.042969 C 87.351562 332.511719 87.261719 331.996094 87.097656 331.492188 C 86.933594 330.988281 86.703125 330.519531 86.40625 330.078125 C 86.113281 329.640625 85.761719 329.25 85.359375 328.90625 C 84.953125 328.566406 84.507812 328.285156 84.027344 328.066406 C 83.542969 327.847656 83.039062 327.703125 82.515625 327.625 Z M 59.164062 347.304688 C 58.496094 347.957031 58.019531 348.730469 57.730469 349.617188 C 57.445312 350.507812 57.382812 351.410156 57.539062 352.332031 L 59.984375 366.574219 L 47.191406 359.851562 C 46.367188 359.414062 45.484375 359.199219 44.550781 359.199219 C 43.617188 359.199219 42.738281 359.414062 41.910156 359.851562 L 29.105469 366.574219 L 31.546875 352.332031 C 31.707031 351.410156 31.640625 350.507812 31.355469 349.617188 C 31.066406 348.730469 30.589844 347.957031 29.921875 347.304688 L 19.578125 337.21875 L 33.875 335.144531 C 34.800781 335.007812 35.640625 334.664062 36.394531 334.117188 C 37.152344 333.566406 37.734375 332.871094 38.148438 332.035156 L 44.546875 319.082031 L 50.941406 332.035156 C 51.355469 332.871094 51.9375 333.566406 52.695312 334.117188 C 53.449219 334.664062 54.289062 335.007812 55.214844 335.144531 L 69.515625 337.21875 Z M 59.164062 347.304688 "/></g><path style=" stroke:none;fill-rule:nonzero;fill:#fcf0e0;fill-opacity:1;" d="M 178.777344 323.417969 L 112.613281 323.417969 C 112.238281 323.417969 111.871094 323.453125 111.503906 323.523438 C 111.140625 323.597656 110.785156 323.707031 110.4375 323.847656 C 110.09375 323.992188 109.765625 324.164062 109.457031 324.371094 C 109.148438 324.578125 108.859375 324.816406 108.597656 325.078125 C 108.332031 325.34375 108.097656 325.628906 107.890625 325.9375 C 107.683594 326.25 107.507812 326.578125 107.367188 326.921875 C 107.222656 327.265625 107.117188 327.621094 107.042969 327.988281 C 106.96875 328.351562 106.933594 328.722656 106.933594 329.09375 L 106.933594 354.101562 C 106.933594 354.472656 106.96875 354.84375 107.042969 355.207031 C 107.117188 355.574219 107.222656 355.929688 107.367188 356.273438 C 107.507812 356.617188 107.683594 356.945312 107.890625 357.253906 C 108.097656 357.566406 108.332031 357.851562 108.597656 358.117188 C 108.859375 358.378906 109.148438 358.617188 109.457031 358.824219 C 109.765625 359.03125 110.09375 359.203125 110.4375 359.347656 C 110.785156 359.488281 111.140625 359.597656 111.503906 359.671875 C 111.871094 359.742188 112.238281 359.777344 112.613281 359.777344 L 178.777344 359.777344 C 179.152344 359.777344 179.519531 359.742188 179.886719 359.671875 C 180.253906 359.597656 180.609375 359.488281 180.953125 359.347656 C 181.296875 359.203125 181.625 359.03125 181.933594 358.824219 C 182.246094 358.617188 182.53125 358.378906 182.796875 358.117188 C 183.058594 357.851562 183.292969 357.566406 183.5 357.253906 C 183.707031 356.945312 183.882812 356.617188 184.027344 356.273438 C 184.167969 355.929688 184.277344 355.574219 184.347656 355.207031 C 184.421875 354.84375 184.457031 354.472656 184.457031 354.101562 L 184.457031 329.09375 C 184.457031 328.722656 184.421875 328.351562 184.347656 327.988281 C 184.277344 327.621094 184.167969 327.265625 184.027344 326.921875 C 183.882812 326.578125 183.707031 326.25 183.5 325.9375 C 183.292969 325.628906 183.058594 325.34375 182.796875 325.078125 C 182.53125 324.816406 182.246094 324.578125 181.933594 324.371094 C 181.625 324.164062 181.296875 323.992188 180.953125 323.847656 C 180.609375 323.707031 180.253906 323.597656 179.886719 323.523438 C 179.519531 323.453125 179.152344 323.417969 178.777344 323.417969 Z M 173.101562 348.421875 L 118.292969 348.421875 L 118.292969 334.773438 L 173.101562 334.773438 Z M 173.101562 348.421875 "/><path style=" stroke:none;fill-rule:nonzero;fill:#fcf0e0;fill-opacity:1;" d="M 244.945312 223.683594 L 112.613281 223.683594 C 112.238281 223.683594 111.871094 223.722656 111.503906 223.792969 C 111.140625 223.867188 110.785156 223.976562 110.441406 224.117188 C 110.09375 224.261719 109.769531 224.433594 109.457031 224.640625 C 109.148438 224.847656 108.859375 225.085938 108.597656 225.347656 C 108.332031 225.613281 108.097656 225.898438 107.890625 226.207031 C 107.683594 226.519531 107.507812 226.847656 107.367188 227.191406 C 107.222656 227.535156 107.117188 227.890625 107.042969 228.253906 C 106.972656 228.621094 106.933594 228.992188 106.933594 229.363281 L 106.933594 254.371094 C 106.933594 254.746094 106.972656 255.113281 107.042969 255.480469 C 107.117188 255.84375 107.222656 256.199219 107.367188 256.542969 C 107.507812 256.890625 107.683594 257.214844 107.890625 257.527344 C 108.097656 257.835938 108.332031 258.125 108.597656 258.386719 C 108.859375 258.652344 109.148438 258.886719 109.457031 259.09375 C 109.769531 259.300781 110.09375 259.476562 110.441406 259.617188 C 110.785156 259.761719 111.140625 259.867188 111.503906 259.941406 C 111.871094 260.015625 112.238281 260.050781 112.613281 260.050781 L 244.945312 260.050781 C 245.320312 260.050781 245.6875 260.015625 246.054688 259.941406 C 246.417969 259.867188 246.773438 259.761719 247.117188 259.617188 C 247.464844 259.476562 247.789062 259.300781 248.101562 259.09375 C 248.410156 258.886719 248.695312 258.652344 248.960938 258.386719 C 249.222656 258.125 249.460938 257.835938 249.667969 257.527344 C 249.875 257.214844 250.050781 256.890625 250.191406 256.542969 C 250.335938 256.199219 250.441406 255.84375 250.515625 255.480469 C 250.585938 255.113281 250.625 254.746094 250.625 254.371094 L 250.625 229.363281 C 250.625 228.992188 250.585938 228.621094 250.515625 228.253906 C 250.441406 227.890625 250.335938 227.535156 250.191406 227.191406 C 250.050781 226.847656 249.875 226.519531 249.667969 226.207031 C 249.460938 225.898438 249.222656 225.613281 248.960938 225.347656 C 248.695312 225.085938 248.410156 224.847656 248.101562 224.640625 C 247.789062 224.433594 247.464844 224.261719 247.117188 224.117188 C 246.773438 223.976562 246.417969 223.867188 246.054688 223.792969 C 245.6875 223.722656 245.320312 223.683594 244.945312 223.683594 Z M 239.265625 248.691406 L 118.292969 248.691406 L 118.292969 235.042969 L 239.265625 235.042969 Z M 239.265625 248.691406 "/><path style=" stroke:none;fill-rule:nonzero;fill:#fcf0e0;fill-opacity:1;" d="M 311.113281 123.945312 L 112.613281 123.945312 C 112.238281 123.945312 111.871094 123.984375 111.503906 124.054688 C 111.140625 124.128906 110.785156 124.238281 110.441406 124.378906 C 110.09375 124.523438 109.769531 124.695312 109.457031 124.902344 C 109.148438 125.113281 108.859375 125.347656 108.597656 125.609375 C 108.332031 125.875 108.097656 126.160156 107.890625 126.472656 C 107.683594 126.78125 107.507812 127.109375 107.367188 127.453125 C 107.222656 127.796875 107.117188 128.152344 107.042969 128.519531 C 106.972656 128.882812 106.933594 129.253906 106.933594 129.625 L 106.933594 154.632812 C 106.933594 155.007812 106.972656 155.375 107.042969 155.742188 C 107.117188 156.109375 107.222656 156.460938 107.367188 156.808594 C 107.507812 157.152344 107.683594 157.480469 107.890625 157.789062 C 108.097656 158.097656 108.332031 158.386719 108.597656 158.648438 C 108.859375 158.914062 109.148438 159.148438 109.457031 159.355469 C 109.769531 159.5625 110.09375 159.738281 110.441406 159.878906 C 110.785156 160.023438 111.140625 160.128906 111.503906 160.203125 C 111.871094 160.277344 112.238281 160.3125 112.613281 160.3125 L 311.113281 160.3125 C 311.484375 160.3125 311.855469 160.277344 312.21875 160.203125 C 312.585938 160.128906 312.941406 160.023438 313.285156 159.878906 C 313.628906 159.738281 313.957031 159.5625 314.265625 159.355469 C 314.578125 159.148438 314.863281 158.914062 315.128906 158.648438 C 315.390625 158.386719 315.625 158.097656 315.832031 157.789062 C 316.039062 157.480469 316.214844 157.152344 316.359375 156.808594 C 316.5 156.460938 316.609375 156.109375 316.679688 155.742188 C 316.753906 155.375 316.789062 155.007812 316.789062 154.632812 L 316.789062 129.625 C 316.789062 129.253906 316.753906 128.882812 316.679688 128.519531 C 316.609375 128.152344 316.5 127.796875 316.359375 127.453125 C 316.214844 127.109375 316.039062 126.78125 315.832031 126.472656 C 315.625 126.160156 315.390625 125.875 315.128906 125.609375 C 314.863281 125.347656 314.578125 125.113281 314.265625 124.902344 C 313.957031 124.695312 313.628906 124.523438 313.285156 124.378906 C 312.941406 124.238281 312.585938 124.128906 312.21875 124.054688 C 311.855469 123.984375 311.484375 123.945312 311.113281 123.945312 Z M 305.433594 148.957031 L 118.292969 148.957031 L 118.292969 135.304688 L 305.433594 135.304688 Z M 305.433594 148.957031 "/><g clip-rule="nonzero" clip-path="url(#f6f77db2d7)"><path style=" stroke:none;fill-rule:nonzero;fill:#fcf0e0;fill-opacity:1;" d="M 377.28125 24.210938 L 112.613281 24.210938 C 112.238281 24.210938 111.871094 24.25 111.503906 24.320312 C 111.140625 24.394531 110.785156 24.5 110.4375 24.644531 C 110.09375 24.785156 109.765625 24.960938 109.457031 25.167969 C 109.148438 25.375 108.859375 25.609375 108.597656 25.875 C 108.332031 26.136719 108.097656 26.425781 107.890625 26.734375 C 107.683594 27.046875 107.507812 27.375 107.367188 27.71875 C 107.222656 28.0625 107.117188 28.417969 107.042969 28.78125 C 106.96875 29.148438 106.933594 29.519531 106.933594 29.890625 L 106.933594 54.894531 C 106.933594 55.269531 106.96875 55.636719 107.042969 56.003906 C 107.117188 56.371094 107.222656 56.726562 107.367188 57.070312 C 107.507812 57.414062 107.683594 57.742188 107.890625 58.050781 C 108.097656 58.363281 108.332031 58.648438 108.597656 58.914062 C 108.859375 59.175781 109.148438 59.410156 109.457031 59.617188 C 109.765625 59.824219 110.09375 60 110.4375 60.144531 C 110.785156 60.285156 111.140625 60.394531 111.503906 60.464844 C 111.871094 60.539062 112.238281 60.574219 112.613281 60.574219 L 377.28125 60.574219 C 377.652344 60.574219 378.023438 60.539062 378.390625 60.464844 C 378.753906 60.394531 379.109375 60.285156 379.453125 60.144531 C 379.800781 60 380.125 59.824219 380.4375 59.617188 C 380.746094 59.410156 381.035156 59.175781 381.296875 58.914062 C 381.5625 58.648438 381.796875 58.363281 382.003906 58.050781 C 382.210938 57.742188 382.386719 57.414062 382.527344 57.070312 C 382.671875 56.726562 382.777344 56.371094 382.851562 56.003906 C 382.925781 55.636719 382.960938 55.269531 382.960938 54.894531 L 382.960938 29.890625 C 382.960938 29.519531 382.925781 29.148438 382.851562 28.78125 C 382.777344 28.417969 382.671875 28.0625 382.527344 27.71875 C 382.386719 27.371094 382.210938 27.046875 382.003906 26.734375 C 381.796875 26.425781 381.5625 26.136719 381.296875 25.875 C 381.035156 25.609375 380.746094 25.375 380.4375 25.167969 C 380.125 24.960938 379.800781 24.785156 379.453125 24.644531 C 379.109375 24.5 378.753906 24.394531 378.390625 24.320312 C 378.023438 24.25 377.652344 24.210938 377.28125 24.210938 Z M 371.601562 49.222656 L 118.292969 49.222656 L 118.292969 35.570312 L 371.601562 35.570312 Z M 371.601562 49.222656 "/></g></g></svg>